<?xml version="1.0" encoding="UTF-8"?>
<svg width="129px" height="58px" viewBox="0 0 129 58" version="1.1" xmlns="http://www.w3.org/2000/svg" xmlns:xlink="http://www.w3.org/1999/xlink">
    <title>编组 3备份 2</title>
    <defs>
        <linearGradient x1="50%" y1="0%" x2="50%" y2="99.9998216%" id="linearGradient-1">
            <stop stop-color="#787878" offset="0%"></stop>
            <stop stop-color="#595959" offset="100%"></stop>
        </linearGradient>
        <linearGradient x1="0%" y1="-534.042553%" x2="100%" y2="-534.042553%" id="linearGradient-2">
            <stop stop-color="#404040" offset="0%"></stop>
            <stop stop-color="#5E5E5E" offset="100%"></stop>
        </linearGradient>
    </defs>
    <g id="页面-1" stroke="none" stroke-width="1" fill="none" fill-rule="evenodd">
        <g id="门克庆-全厂工艺流程图" transform="translate(-1495.000000, -299.000000)">
            <g id="编组-3备份-2" transform="translate(1495.000000, 299.000000)">
                <path d="M0,-2.55795385e-13 L25.0631142,-2.55795385e-13 L25.0631142,22.5636555 L125,22.5636555 L125,50.9120304 L58.3116976,50.9120304 C49.966369,51.2059135 41.9833837,47.87256 34.362742,40.9119697 C26.7421002,33.9513794 19.3586169,27.0256807 12.2122921,20.1348736 L12.2122921,25.9649442 L0,25.9649442 L0,-2.55795385e-13 Z" id="路径-38" fill="url(#linearGradient-1)" fill-rule="nonzero"></path>
                <rect id="矩形" fill="#646464" x="125" y="33.9298884" width="4" height="2"></rect>
                <rect id="矩形备份-11" fill="#646464" x="125" y="36.9298884" width="4" height="2"></rect>
                <rect id="矩形备份-12" fill="#646464" x="125" y="39.9298884" width="4" height="2"></rect>
                <rect id="矩形备份-13" fill="#646464" x="125" y="42.9298884" width="4" height="2"></rect>
                <rect id="矩形备份-14" fill="#646464" x="125" y="45.9298884" width="4" height="2"></rect>
                <rect id="矩形备份-15" fill="#646464" x="125" y="48.9298884" width="4" height="2"></rect>
                <rect id="矩形" fill="#5E5E5E" x="0" y="27.3168935" width="12" height="2"></rect>
                <rect id="矩形" fill="url(#linearGradient-2)" fill-rule="nonzero" x="26" y="12.3168935" width="99" height="10"></rect>
                <polyline id="路径-39" stroke="#414141" stroke-width="2" points="27 14.3168935 27 4.30688167 36.7983093 15.8110215"></polyline>
                <polygon id="路径-40" stroke="#5A5A5A" points="59 50.3168935 71 50.3168935 65.295702 56.3168935"></polygon>
                <polygon id="路径-40备份" stroke="#5A5A5A" points="74 50.3168935 86 50.3168935 80.295702 56.3168935"></polygon>
                <polygon id="路径-40备份-2" stroke="#5A5A5A" points="91 50.3168935 103 50.3168935 97.295702 56.3168935"></polygon>
                <polygon id="路径-40备份-3" stroke="#5A5A5A" points="108 50.3168935 120 50.3168935 114.295702 56.3168935"></polygon>
                <rect id="矩形" stroke="#5E5E5E" fill="#D8D8D8" x="62.5" y="55.8168935" width="5" height="1"></rect>
                <rect id="矩形备份-16" stroke="#5E5E5E" fill="#D8D8D8" x="77.5" y="55.8168935" width="5" height="1"></rect>
                <rect id="矩形备份-17" stroke="#5E5E5E" fill="#D8D8D8" x="94.5" y="55.8168935" width="5" height="1"></rect>
                <rect id="矩形备份-18" stroke="#5E5E5E" fill="#D8D8D8" x="111.5" y="55.8168935" width="5" height="1"></rect>
                <path d="M6.52108642,11.6349713 L37.5611195,40.9298884 C43.823343,46.2632218 50.6415161,48.9298884 58.0156386,48.9298884 C65.3897611,48.9298884 84.7827884,48.9298884 116.19472,48.9298884 C122.008777,48.2632218 123.943447,44.9298884 121.998733,38.9298884 C120.054019,32.9298884 117.12652,24.7255568 113.216238,14.3168935 L37.5611195,14.3168935 L13.3108202,1.73582146 C10.3597007,0.681277606 7.91972389,1.14294793 5.99088988,3.12083242 C4.14829083,5.59171172 4.32502301,8.429758 6.52108642,11.6349713 Z" id="路径-41" stroke="#CCCCCC" stroke-dasharray="2"></path>
                <g id="shezhi-6" transform="translate(6.000000, 2.316894)" fill="#FFFFFF" fill-rule="nonzero">
                    <path d="M9.61419964,4.30304566 L8.8166254,4.1803402 C8.60399173,4.1475158 8.38216176,3.97677149 8.32265799,3.80117677 C8.26401544,3.62560185 8.15100678,3.05562925 8.27830981,2.88185591 L8.75530019,2.23108934 C8.88284079,2.0573259 8.86250794,1.7912265 8.71034816,1.6393295 L8.36123496,1.29055536 C8.20905538,1.13804463 7.94287723,1.11738585 7.76943428,1.24561483 L7.11866438,1.72257836 C6.94488487,1.8495106 6.66932232,1.88662119 6.50586762,1.80397615 C6.34242281,1.72199433 5.85293971,1.39631408 5.82074768,1.18421261 L5.69768149,0.387062671 C5.66521229,0.174377168 5.46224019,0 5.24713173,0 L4.75315442,0 C4.53838254,0 4.33540054,0.174377168 4.30294123,0.386458845 L4.18014232,1.18360878 C4.14733655,1.39631408 3.97657627,1.61805699 3.80097531,1.67762793 C3.62572082,1.73652576 3.05547058,1.8495205 2.88169106,1.72257836 L2.23124784,1.24562473 C2.05745842,1.11799957 1.79130007,1.13867815 1.63905119,1.29056526 L1.29001718,1.63933939 C1.13775841,1.79185012 1.11744536,2.05793963 1.24471869,2.23109924 L1.72232281,2.8818658 C1.84932887,3.05563915 1.88635167,3.33153835 1.80377299,3.49495755 C1.72144179,3.65840645 1.39635382,4.1475257 1.18392803,4.1803501 L0.386759657,4.30306546 C0.173789417,4.33533553 0,4.53822123 0,4.75334183 L0,5.24729169 C0,5.4623925 0.173779518,5.66474366 0.386413186,5.69755817 L1.18366075,5.82027352 C1.39629442,5.85307813 1.6181145,6.02385214 1.67762817,6.19943696 C1.73627071,6.37502178 1.84932887,6.94551901 1.72232281,7.11876772 L1.24470879,7.76948479 C1.11768294,7.94320863 1.13774851,8.20938723 1.29000729,8.36129413 L1.63905119,8.71072158 C1.79129017,8.8625493 2.05738913,8.88321798 2.23118844,8.75561262 L2.88169106,8.27809476 C3.05546068,8.15098434 3.33103312,8.11464586 3.49474521,8.19663758 C3.65820982,8.27863919 4.14733655,8.60430954 4.18014232,8.81640112 L4.30293133,9.61354116 C4.33540054,9.82622666 4.53803607,10 4.75315442,10 L5.24712183,10 C5.46223029,10 5.66520239,9.82622666 5.69768149,9.61354116 L5.82073778,8.81639122 C5.85293971,8.60371561 6.02369998,8.38195291 6.19930094,8.32298579 C6.37463463,8.26403847 6.94488487,8.15099423 7.11832781,8.27808486 L7.76943428,8.75561262 C7.9431445,8.88322788 8.20932266,8.86255919 8.36123496,8.71072158 L8.71034816,8.36129413 C8.86251784,8.20938723 8.88284079,7.9426642 8.75530019,7.76948479 L8.27830981,7.11876772 C8.15100678,6.94492509 8.11424135,6.6697089 8.19657256,6.50626 C8.27891366,6.34221717 8.60400163,5.85308803 8.81635812,5.82027352 L9.6135364,5.69755817 C9.82622946,5.66474366 10,5.4623925 10,5.24729169 L10,4.75334183 C10.0002664,4.53822123 9.82647694,4.33526624 9.61418974,4.30304566 L9.61419964,4.30304566 Z M5.00012823,6.97771979 C3.90819297,6.97771979 3.02290239,6.09187665 3.02290239,5.00055433 C3.02290239,3.90814314 3.90818307,3.02283454 5.00012823,3.02283454 C6.09233077,3.02283454 6.97734417,3.90814314 6.97734417,5.00055433 C6.97734417,6.09187665 6.09234067,6.97771979 5.00012823,6.97771979 L5.00012823,6.97771979 Z M3.80614266,5.00054443 C3.80614266,4.68772272 3.93497016,4.37717773 4.15583992,4.15603866 C4.37698685,3.93485009 4.68780025,3.80662111 5.00013813,3.80662111 C5.312476,3.80662111 5.62353688,3.93485009 5.84441654,4.15604856 C6.0653061,4.37718763 6.19411379,4.68771282 6.19411379,5.00054443 C6.19411379,5.312891 6.0652962,5.6233964 5.84441654,5.84454537 C5.62353688,6.06576363 5.3124661,6.19391343 5.00012823,6.19391343 C4.68779036,6.19391343 4.37699675,6.06576363 4.15583002,5.84454537 C3.93498006,5.62340629 3.80614266,5.312891 3.80614266,5.00054443 L3.80614266,5.00054443 Z" id="形状"></path>
                </g>
                <g id="shezhi-6备份" transform="translate(38.000000, 15.316894)" fill="#FFFFFF" fill-rule="nonzero">
                    <path d="M5.76851978,2.5818274 L5.28997524,2.50820412 C5.16239504,2.48850948 5.02929705,2.38606289 4.99359479,2.28070606 C4.95840926,2.17536111 4.89060407,1.83337755 4.96698589,1.72911354 L5.25318011,1.33865361 C5.32970447,1.23439554 5.31750477,1.0747359 5.2262089,0.983597697 L5.01674098,0.774333217 C4.92543323,0.682826779 4.76572634,0.670431508 4.66166057,0.7473689 L4.27119863,1.03354702 C4.16693092,1.10970636 4.00159339,1.13197271 3.90352057,1.08238569 C3.80545368,1.0331966 3.51176382,0.837788451 3.49244861,0.710527566 L3.41860889,0.232237603 C3.39912737,0.104626301 3.27734411,0 3.14827904,0 L2.85189265,0 C2.72302952,0 2.60124032,0.104626301 2.58176474,0.231875307 L2.50808539,0.71016527 C2.48840193,0.837788451 2.38594576,0.970834191 2.28058519,1.00657676 C2.17543249,1.04191546 1.83328235,1.1097123 1.72901464,1.03354702 L1.3387487,0.74737484 C1.23447505,0.670799743 1.07478004,0.683206893 0.983430716,0.774339156 L0.774010311,0.983603636 C0.682655047,1.07511007 0.670467218,1.23476378 0.746831214,1.33865954 L1.03339369,1.72911948 C1.10959732,1.83338349 1.131811,1.99892301 1.0822638,2.09697453 C1.03286507,2.19504387 0.83781229,2.48851542 0.710356819,2.50821006 L0.232055794,2.58183928 C0.10427365,2.60120132 0,2.72293274 0,2.8520051 L0,3.14837501 C0,3.2774355 0.104267711,3.3988462 0.231847912,3.4185349 L0.710196452,3.49216411 C0.837776653,3.51184688 0.970868699,3.61431128 1.0065769,3.71966217 C1.04176243,3.82501307 1.10959732,4.16731141 1.03339369,4.27126063 L0.746825275,4.66169087 C0.670609765,4.76592518 0.682649107,4.92563234 0.774004371,5.01677648 L0.983430716,5.22643295 C1.0747741,5.31752958 1.23443348,5.32993079 1.33871307,5.25336757 L1.72901464,4.96685686 C1.83327641,4.8905906 1.99861987,4.86878752 2.09684713,4.91798255 C2.19492589,4.96718352 2.48840193,5.16258572 2.50808539,5.28984067 L2.5817588,5.76812469 C2.60124032,5.895736 2.72282164,6 2.85189265,6 L3.1482731,6 C3.27733817,6 3.39912143,5.895736 3.41860889,5.76812469 L3.49244267,5.28983473 C3.51176382,5.16222937 3.61421999,5.02917175 3.71958057,4.99379148 C3.82478078,4.95842308 4.16693092,4.89059654 4.27099669,4.96685092 L4.66166057,5.25336757 C4.7658867,5.32993673 4.92559359,5.31753552 5.01674098,5.22643295 L5.2262089,5.01677648 C5.31751071,4.92563234 5.32970447,4.76559852 5.25318011,4.66169087 L4.96698589,4.27126063 C4.89060407,4.16695505 4.86854481,4.00182534 4.91794353,3.903756 C4.96734819,3.8053303 5.16240098,3.51185282 5.28981487,3.49216411 L5.76812184,3.4185349 C5.89573768,3.3988462 6,3.2774355 6,3.14837501 L6,2.8520051 C6.00015981,2.72293274 5.89588616,2.60115974 5.76851384,2.5818274 L5.76851978,2.5818274 Z M3.00007694,4.18663188 C2.34491578,4.18663188 1.81374143,3.65512599 1.81374143,3.0003326 C1.81374143,2.34488589 2.34490984,1.81370072 3.00007694,1.81370072 C3.65539846,1.81370072 4.1864065,2.34488589 4.1864065,3.0003326 C4.1864065,3.65512599 3.6554044,4.18663188 3.00007694,4.18663188 L3.00007694,4.18663188 Z M2.2836856,3.00032666 C2.2836856,2.81263363 2.36098209,2.62630664 2.49350395,2.4936232 C2.62619211,2.36091006 2.81268015,2.28397266 3.00008288,2.28397266 C3.1874856,2.28397266 3.37412213,2.36091006 3.50664992,2.49362914 C3.63918366,2.62631258 3.71646828,2.81262769 3.71646828,3.00032666 C3.71646828,3.1877346 3.63917772,3.37403784 3.50664992,3.50672722 C3.37412213,3.63945818 3.18747966,3.71634806 3.00007694,3.71634806 C2.81267421,3.71634806 2.62619805,3.63945818 2.49349801,3.50672722 C2.36098803,3.37404378 2.2836856,3.1877346 2.2836856,3.00032666 L2.2836856,3.00032666 Z" id="形状"></path>
                </g>
                <g id="shezhi-6备份-2" transform="translate(59.000000, 15.316894)" fill="#FFFFFF" fill-rule="nonzero">
                    <path d="M5.76851978,2.5818274 L5.28997524,2.50820412 C5.16239504,2.48850948 5.02929705,2.38606289 4.99359479,2.28070606 C4.95840926,2.17536111 4.89060407,1.83337755 4.96698589,1.72911354 L5.25318011,1.33865361 C5.32970447,1.23439554 5.31750477,1.0747359 5.2262089,0.983597697 L5.01674098,0.774333217 C4.92543323,0.682826779 4.76572634,0.670431508 4.66166057,0.7473689 L4.27119863,1.03354702 C4.16693092,1.10970636 4.00159339,1.13197271 3.90352057,1.08238569 C3.80545368,1.0331966 3.51176382,0.837788451 3.49244861,0.710527566 L3.41860889,0.232237603 C3.39912737,0.104626301 3.27734411,0 3.14827904,0 L2.85189265,0 C2.72302952,0 2.60124032,0.104626301 2.58176474,0.231875307 L2.50808539,0.71016527 C2.48840193,0.837788451 2.38594576,0.970834191 2.28058519,1.00657676 C2.17543249,1.04191546 1.83328235,1.1097123 1.72901464,1.03354702 L1.3387487,0.74737484 C1.23447505,0.670799743 1.07478004,0.683206893 0.983430716,0.774339156 L0.774010311,0.983603636 C0.682655047,1.07511007 0.670467218,1.23476378 0.746831214,1.33865954 L1.03339369,1.72911948 C1.10959732,1.83338349 1.131811,1.99892301 1.0822638,2.09697453 C1.03286507,2.19504387 0.83781229,2.48851542 0.710356819,2.50821006 L0.232055794,2.58183928 C0.10427365,2.60120132 0,2.72293274 0,2.8520051 L0,3.14837501 C0,3.2774355 0.104267711,3.3988462 0.231847912,3.4185349 L0.710196452,3.49216411 C0.837776653,3.51184688 0.970868699,3.61431128 1.0065769,3.71966217 C1.04176243,3.82501307 1.10959732,4.16731141 1.03339369,4.27126063 L0.746825275,4.66169087 C0.670609765,4.76592518 0.682649107,4.92563234 0.774004371,5.01677648 L0.983430716,5.22643295 C1.0747741,5.31752958 1.23443348,5.32993079 1.33871307,5.25336757 L1.72901464,4.96685686 C1.83327641,4.8905906 1.99861987,4.86878752 2.09684713,4.91798255 C2.19492589,4.96718352 2.48840193,5.16258572 2.50808539,5.28984067 L2.5817588,5.76812469 C2.60124032,5.895736 2.72282164,6 2.85189265,6 L3.1482731,6 C3.27733817,6 3.39912143,5.895736 3.41860889,5.76812469 L3.49244267,5.28983473 C3.51176382,5.16222937 3.61421999,5.02917175 3.71958057,4.99379148 C3.82478078,4.95842308 4.16693092,4.89059654 4.27099669,4.96685092 L4.66166057,5.25336757 C4.7658867,5.32993673 4.92559359,5.31753552 5.01674098,5.22643295 L5.2262089,5.01677648 C5.31751071,4.92563234 5.32970447,4.76559852 5.25318011,4.66169087 L4.96698589,4.27126063 C4.89060407,4.16695505 4.86854481,4.00182534 4.91794353,3.903756 C4.96734819,3.8053303 5.16240098,3.51185282 5.28981487,3.49216411 L5.76812184,3.4185349 C5.89573768,3.3988462 6,3.2774355 6,3.14837501 L6,2.8520051 C6.00015981,2.72293274 5.89588616,2.60115974 5.76851384,2.5818274 L5.76851978,2.5818274 Z M3.00007694,4.18663188 C2.34491578,4.18663188 1.81374143,3.65512599 1.81374143,3.0003326 C1.81374143,2.34488589 2.34490984,1.81370072 3.00007694,1.81370072 C3.65539846,1.81370072 4.1864065,2.34488589 4.1864065,3.0003326 C4.1864065,3.65512599 3.6554044,4.18663188 3.00007694,4.18663188 L3.00007694,4.18663188 Z M2.2836856,3.00032666 C2.2836856,2.81263363 2.36098209,2.62630664 2.49350395,2.4936232 C2.62619211,2.36091006 2.81268015,2.28397266 3.00008288,2.28397266 C3.1874856,2.28397266 3.37412213,2.36091006 3.50664992,2.49362914 C3.63918366,2.62631258 3.71646828,2.81262769 3.71646828,3.00032666 C3.71646828,3.1877346 3.63917772,3.37403784 3.50664992,3.50672722 C3.37412213,3.63945818 3.18747966,3.71634806 3.00007694,3.71634806 C2.81267421,3.71634806 2.62619805,3.63945818 2.49349801,3.50672722 C2.36098803,3.37404378 2.2836856,3.1877346 2.2836856,3.00032666 L2.2836856,3.00032666 Z" id="形状"></path>
                </g>
                <g id="shezhi-6备份-3" transform="translate(83.000000, 15.316894)" fill="#FFFFFF" fill-rule="nonzero">
                    <path d="M5.76851978,2.5818274 L5.28997524,2.50820412 C5.16239504,2.48850948 5.02929705,2.38606289 4.99359479,2.28070606 C4.95840926,2.17536111 4.89060407,1.83337755 4.96698589,1.72911354 L5.25318011,1.33865361 C5.32970447,1.23439554 5.31750477,1.0747359 5.2262089,0.983597697 L5.01674098,0.774333217 C4.92543323,0.682826779 4.76572634,0.670431508 4.66166057,0.7473689 L4.27119863,1.03354702 C4.16693092,1.10970636 4.00159339,1.13197271 3.90352057,1.08238569 C3.80545368,1.0331966 3.51176382,0.837788451 3.49244861,0.710527566 L3.41860889,0.232237603 C3.39912737,0.104626301 3.27734411,0 3.14827904,0 L2.85189265,0 C2.72302952,0 2.60124032,0.104626301 2.58176474,0.231875307 L2.50808539,0.71016527 C2.48840193,0.837788451 2.38594576,0.970834191 2.28058519,1.00657676 C2.17543249,1.04191546 1.83328235,1.1097123 1.72901464,1.03354702 L1.3387487,0.74737484 C1.23447505,0.670799743 1.07478004,0.683206893 0.983430716,0.774339156 L0.774010311,0.983603636 C0.682655047,1.07511007 0.670467218,1.23476378 0.746831214,1.33865954 L1.03339369,1.72911948 C1.10959732,1.83338349 1.131811,1.99892301 1.0822638,2.09697453 C1.03286507,2.19504387 0.83781229,2.48851542 0.710356819,2.50821006 L0.232055794,2.58183928 C0.10427365,2.60120132 0,2.72293274 0,2.8520051 L0,3.14837501 C0,3.2774355 0.104267711,3.3988462 0.231847912,3.4185349 L0.710196452,3.49216411 C0.837776653,3.51184688 0.970868699,3.61431128 1.0065769,3.71966217 C1.04176243,3.82501307 1.10959732,4.16731141 1.03339369,4.27126063 L0.746825275,4.66169087 C0.670609765,4.76592518 0.682649107,4.92563234 0.774004371,5.01677648 L0.983430716,5.22643295 C1.0747741,5.31752958 1.23443348,5.32993079 1.33871307,5.25336757 L1.72901464,4.96685686 C1.83327641,4.8905906 1.99861987,4.86878752 2.09684713,4.91798255 C2.19492589,4.96718352 2.48840193,5.16258572 2.50808539,5.28984067 L2.5817588,5.76812469 C2.60124032,5.895736 2.72282164,6 2.85189265,6 L3.1482731,6 C3.27733817,6 3.39912143,5.895736 3.41860889,5.76812469 L3.49244267,5.28983473 C3.51176382,5.16222937 3.61421999,5.02917175 3.71958057,4.99379148 C3.82478078,4.95842308 4.16693092,4.89059654 4.27099669,4.96685092 L4.66166057,5.25336757 C4.7658867,5.32993673 4.92559359,5.31753552 5.01674098,5.22643295 L5.2262089,5.01677648 C5.31751071,4.92563234 5.32970447,4.76559852 5.25318011,4.66169087 L4.96698589,4.27126063 C4.89060407,4.16695505 4.86854481,4.00182534 4.91794353,3.903756 C4.96734819,3.8053303 5.16240098,3.51185282 5.28981487,3.49216411 L5.76812184,3.4185349 C5.89573768,3.3988462 6,3.2774355 6,3.14837501 L6,2.8520051 C6.00015981,2.72293274 5.89588616,2.60115974 5.76851384,2.5818274 L5.76851978,2.5818274 Z M3.00007694,4.18663188 C2.34491578,4.18663188 1.81374143,3.65512599 1.81374143,3.0003326 C1.81374143,2.34488589 2.34490984,1.81370072 3.00007694,1.81370072 C3.65539846,1.81370072 4.1864065,2.34488589 4.1864065,3.0003326 C4.1864065,3.65512599 3.6554044,4.18663188 3.00007694,4.18663188 L3.00007694,4.18663188 Z M2.2836856,3.00032666 C2.2836856,2.81263363 2.36098209,2.62630664 2.49350395,2.4936232 C2.62619211,2.36091006 2.81268015,2.28397266 3.00008288,2.28397266 C3.1874856,2.28397266 3.37412213,2.36091006 3.50664992,2.49362914 C3.63918366,2.62631258 3.71646828,2.81262769 3.71646828,3.00032666 C3.71646828,3.1877346 3.63917772,3.37403784 3.50664992,3.50672722 C3.37412213,3.63945818 3.18747966,3.71634806 3.00007694,3.71634806 C2.81267421,3.71634806 2.62619805,3.63945818 2.49349801,3.50672722 C2.36098803,3.37404378 2.2836856,3.1877346 2.2836856,3.00032666 L2.2836856,3.00032666 Z" id="形状"></path>
                </g>
                <g id="shezhi-6备份-4" transform="translate(108.000000, 15.316894)" fill="#FFFFFF" fill-rule="nonzero">
                    <path d="M5.76851978,2.5818274 L5.28997524,2.50820412 C5.16239504,2.48850948 5.02929705,2.38606289 4.99359479,2.28070606 C4.95840926,2.17536111 4.89060407,1.83337755 4.96698589,1.72911354 L5.25318011,1.33865361 C5.32970447,1.23439554 5.31750477,1.0747359 5.2262089,0.983597697 L5.01674098,0.774333217 C4.92543323,0.682826779 4.76572634,0.670431508 4.66166057,0.7473689 L4.27119863,1.03354702 C4.16693092,1.10970636 4.00159339,1.13197271 3.90352057,1.08238569 C3.80545368,1.0331966 3.51176382,0.837788451 3.49244861,0.710527566 L3.41860889,0.232237603 C3.39912737,0.104626301 3.27734411,0 3.14827904,0 L2.85189265,0 C2.72302952,0 2.60124032,0.104626301 2.58176474,0.231875307 L2.50808539,0.71016527 C2.48840193,0.837788451 2.38594576,0.970834191 2.28058519,1.00657676 C2.17543249,1.04191546 1.83328235,1.1097123 1.72901464,1.03354702 L1.3387487,0.74737484 C1.23447505,0.670799743 1.07478004,0.683206893 0.983430716,0.774339156 L0.774010311,0.983603636 C0.682655047,1.07511007 0.670467218,1.23476378 0.746831214,1.33865954 L1.03339369,1.72911948 C1.10959732,1.83338349 1.131811,1.99892301 1.0822638,2.09697453 C1.03286507,2.19504387 0.83781229,2.48851542 0.710356819,2.50821006 L0.232055794,2.58183928 C0.10427365,2.60120132 0,2.72293274 0,2.8520051 L0,3.14837501 C0,3.2774355 0.104267711,3.3988462 0.231847912,3.4185349 L0.710196452,3.49216411 C0.837776653,3.51184688 0.970868699,3.61431128 1.0065769,3.71966217 C1.04176243,3.82501307 1.10959732,4.16731141 1.03339369,4.27126063 L0.746825275,4.66169087 C0.670609765,4.76592518 0.682649107,4.92563234 0.774004371,5.01677648 L0.983430716,5.22643295 C1.0747741,5.31752958 1.23443348,5.32993079 1.33871307,5.25336757 L1.72901464,4.96685686 C1.83327641,4.8905906 1.99861987,4.86878752 2.09684713,4.91798255 C2.19492589,4.96718352 2.48840193,5.16258572 2.50808539,5.28984067 L2.5817588,5.76812469 C2.60124032,5.895736 2.72282164,6 2.85189265,6 L3.1482731,6 C3.27733817,6 3.39912143,5.895736 3.41860889,5.76812469 L3.49244267,5.28983473 C3.51176382,5.16222937 3.61421999,5.02917175 3.71958057,4.99379148 C3.82478078,4.95842308 4.16693092,4.89059654 4.27099669,4.96685092 L4.66166057,5.25336757 C4.7658867,5.32993673 4.92559359,5.31753552 5.01674098,5.22643295 L5.2262089,5.01677648 C5.31751071,4.92563234 5.32970447,4.76559852 5.25318011,4.66169087 L4.96698589,4.27126063 C4.89060407,4.16695505 4.86854481,4.00182534 4.91794353,3.903756 C4.96734819,3.8053303 5.16240098,3.51185282 5.28981487,3.49216411 L5.76812184,3.4185349 C5.89573768,3.3988462 6,3.2774355 6,3.14837501 L6,2.8520051 C6.00015981,2.72293274 5.89588616,2.60115974 5.76851384,2.5818274 L5.76851978,2.5818274 Z M3.00007694,4.18663188 C2.34491578,4.18663188 1.81374143,3.65512599 1.81374143,3.0003326 C1.81374143,2.34488589 2.34490984,1.81370072 3.00007694,1.81370072 C3.65539846,1.81370072 4.1864065,2.34488589 4.1864065,3.0003326 C4.1864065,3.65512599 3.6554044,4.18663188 3.00007694,4.18663188 L3.00007694,4.18663188 Z M2.2836856,3.00032666 C2.2836856,2.81263363 2.36098209,2.62630664 2.49350395,2.4936232 C2.62619211,2.36091006 2.81268015,2.28397266 3.00008288,2.28397266 C3.1874856,2.28397266 3.37412213,2.36091006 3.50664992,2.49362914 C3.63918366,2.62631258 3.71646828,2.81262769 3.71646828,3.00032666 C3.71646828,3.1877346 3.63917772,3.37403784 3.50664992,3.50672722 C3.37412213,3.63945818 3.18747966,3.71634806 3.00007694,3.71634806 C2.81267421,3.71634806 2.62619805,3.63945818 2.49349801,3.50672722 C2.36098803,3.37404378 2.2836856,3.1877346 2.2836856,3.00032666 L2.2836856,3.00032666 Z" id="形状"></path>
                </g>
            </g>
        </g>
    </g>
</svg>