<?xml version="1.0" encoding="UTF-8"?>
<svg width="79px" height="44px" viewBox="0 0 79 44" version="1.1" xmlns="http://www.w3.org/2000/svg" xmlns:xlink="http://www.w3.org/1999/xlink">
    <title>设备图标汇总_浮选机备份</title>
    <defs>
        <linearGradient x1="50%" y1="0%" x2="50%" y2="100%" id="linearGradient-1">
            <stop stop-color="#808080" offset="15%"></stop>
            <stop stop-color="#767676" offset="32%"></stop>
            <stop stop-color="#5C5C5C" offset="62%"></stop>
            <stop stop-color="#333333" offset="99%"></stop>
        </linearGradient>
        <linearGradient x1="50%" y1="0%" x2="50%" y2="100%" id="linearGradient-2">
            <stop stop-color="#808080" offset="15%"></stop>
            <stop stop-color="#767676" offset="32%"></stop>
            <stop stop-color="#5C5C5C" offset="62%"></stop>
            <stop stop-color="#333333" offset="99%"></stop>
        </linearGradient>
        <linearGradient x1="49.9832832%" y1="0%" x2="49.9832832%" y2="100%" id="linearGradient-3">
            <stop stop-color="#808080" offset="15%"></stop>
            <stop stop-color="#767676" offset="32%"></stop>
            <stop stop-color="#5C5C5C" offset="62%"></stop>
            <stop stop-color="#333333" offset="99%"></stop>
        </linearGradient>
        <linearGradient x1="50.0167168%" y1="0%" x2="50.0167168%" y2="100%" id="linearGradient-4">
            <stop stop-color="#808080" offset="15%"></stop>
            <stop stop-color="#767676" offset="32%"></stop>
            <stop stop-color="#5C5C5C" offset="62%"></stop>
            <stop stop-color="#333333" offset="99%"></stop>
        </linearGradient>
        <linearGradient x1="99.9984837%" y1="49.7237569%" x2="0.00116253222%" y2="49.7237569%" id="linearGradient-5">
            <stop stop-color="#404040" offset="0%"></stop>
            <stop stop-color="#5E5E5E" offset="100%"></stop>
        </linearGradient>
        <linearGradient x1="3482.994%" y1="2104.97238%" x2="3482.994%" y2="1657.45856%" id="linearGradient-6">
            <stop stop-color="#404040" offset="0%"></stop>
            <stop stop-color="#5E5E5E" offset="100%"></stop>
        </linearGradient>
        <linearGradient x1="3373.18519%" y1="2396.18574%" x2="3373.18519%" y2="1724.54395%" id="linearGradient-7">
            <stop stop-color="#404040" offset="0%"></stop>
            <stop stop-color="#5E5E5E" offset="100%"></stop>
        </linearGradient>
        <linearGradient x1="25888.806%" y1="426.664702%" x2="25888.806%" y2="410.842664%" id="linearGradient-8">
            <stop stop-color="#404040" offset="0%"></stop>
            <stop stop-color="#5E5E5E" offset="100%"></stop>
        </linearGradient>
        <linearGradient x1="25726.6791%" y1="452.239246%" x2="25726.6791%" y2="436.446671%" id="linearGradient-9">
            <stop stop-color="#404040" offset="0%"></stop>
            <stop stop-color="#5E5E5E" offset="100%"></stop>
        </linearGradient>
        <linearGradient x1="25564.7388%" y1="477.843253%" x2="25564.7388%" y2="462.021214%" id="linearGradient-10">
            <stop stop-color="#404040" offset="0%"></stop>
            <stop stop-color="#5E5E5E" offset="100%"></stop>
        </linearGradient>
        <linearGradient x1="25402.6119%" y1="503.417796%" x2="25402.6119%" y2="487.625221%" id="linearGradient-11">
            <stop stop-color="#404040" offset="0%"></stop>
            <stop stop-color="#5E5E5E" offset="100%"></stop>
        </linearGradient>
        <linearGradient x1="25240.6716%" y1="528.992339%" x2="25240.6716%" y2="513.199764%" id="linearGradient-12">
            <stop stop-color="#404040" offset="0%"></stop>
            <stop stop-color="#5E5E5E" offset="100%"></stop>
        </linearGradient>
        <linearGradient x1="50%" y1="0%" x2="50%" y2="100%" id="linearGradient-13">
            <stop stop-color="#808080" offset="15%"></stop>
            <stop stop-color="#767676" offset="32%"></stop>
            <stop stop-color="#5C5C5C" offset="62%"></stop>
            <stop stop-color="#333333" offset="99%"></stop>
        </linearGradient>
    </defs>
    <g id="页面-1" stroke="none" stroke-width="1" fill="none" fill-rule="evenodd">
        <g id="门克庆-全厂工艺流程图" transform="translate(-1000.000000, -938.000000)" fill-rule="nonzero">
            <g id="设备图标汇总_浮选机备份" transform="translate(1000.000000, 938.000000)">
                <rect id="矩形" fill="url(#linearGradient-1)" x="7" y="18" width="15" height="26"></rect>
                <rect id="矩形" fill="url(#linearGradient-1)" x="24" y="18" width="15" height="26"></rect>
                <rect id="矩形" fill="url(#linearGradient-1)" x="40" y="18" width="15" height="26"></rect>
                <rect id="矩形" fill="url(#linearGradient-1)" x="57" y="18" width="15" height="26"></rect>
                <rect id="矩形" fill="url(#linearGradient-2)" x="7" y="13" width="15" height="4"></rect>
                <rect id="矩形" fill="url(#linearGradient-2)" x="24" y="13" width="15" height="4"></rect>
                <rect id="矩形" fill="url(#linearGradient-2)" x="40" y="13" width="15" height="4"></rect>
                <rect id="矩形" fill="url(#linearGradient-2)" x="57" y="13" width="15" height="4"></rect>
                <polygon id="路径" fill="url(#linearGradient-3)" points="74 18 74 44 79 40.1451981 79 19.9264748"></polygon>
                <polygon id="路径" fill="url(#linearGradient-4)" points="4.95653628 18 0 19.9394155 0 40.1193202 4.91307255 44 5 44 5 18"></polygon>
                <path d="M11.924748,12 L17.0769556,12 C17.5948915,11.9878974 18.0075983,11.442404 17.9998939,10.7801105 L17.9998939,10 L11.0000814,10 L11.0000814,10.7801105 C10.993338,11.4427673 11.4065413,11.9878962 11.924748,12 Z" id="路径" fill="url(#linearGradient-5)"></path>
                <path d="M11.0000817,1.22209945 L11.0000817,2 L17.9998936,2 L17.9998936,1.22209945 C18.0076063,0.55943142 17.5951663,0.013303054 17.0769554,0 L11.9247482,0 C11.4062663,0.0133026916 10.9933287,0.559067819 11.0000817,1.22209945 Z" id="路径" fill="url(#linearGradient-6)"></path>
                <rect id="矩形" fill="url(#linearGradient-7)" x="11" y="9" width="7" height="1"></rect>
                <rect id="矩形" fill="url(#linearGradient-8)" x="11" y="2" width="1" height="6"></rect>
                <rect id="矩形" fill="url(#linearGradient-9)" x="13" y="2" width="1" height="6"></rect>
                <rect id="矩形" fill="url(#linearGradient-10)" x="14" y="2" width="1" height="6"></rect>
                <rect id="矩形" fill="url(#linearGradient-11)" x="16" y="2" width="1" height="6"></rect>
                <rect id="矩形" fill="url(#linearGradient-12)" x="17" y="2" width="1" height="6"></rect>
                <rect id="矩形" fill="url(#linearGradient-13)" x="10" y="11" width="9" height="2"></rect>
            </g>
        </g>
    </g>
</svg>