<svg id="图层_1" data-name="图层 1" xmlns="http://www.w3.org/2000/svg" viewBox="0 0 100 100"><defs><style>.cls-1{fill:#1a1a1a;}</style></defs><title>设备图标汇总</title><path class="cls-1" d="M66.11,38.31,72.36,32l-3.28-3.32L62.82,35m-44.18,19h8.65V49.12H18.64m28-28v9.33h4.79V21.15M36,35l-6.57-6.6L25.82,32l6.57,6.32M79.55,49.12H70.89v4.82h8.66m-24.8.62H49.38l3-3A2.2,2.2,0,0,0,53,49.73a4.34,4.34,0,0,0-.62-1.81,2.35,2.35,0,0,0-3.28,0l-7.15,6.91a2.4,2.4,0,0,0,0,3.32A3.56,3.56,0,0,0,44.6,59h5.06l-4.14,4.82a2.17,2.17,0,0,0-.62,1.81,4.25,4.25,0,0,0,.62,1.81,2.12,2.12,0,0,0,1.78.62,4.17,4.17,0,0,0,1.78-.62l7.18-7.21a3.89,3.89,0,0,0,1.2-3,2.51,2.51,0,0,0-2.71-2.7ZM72.09,74.12h-3.9v-22a19.1,19.1,0,1,0-38.2,0v22H26.13v4.82h46m-8.68-4.82H34.78V53.67A15.77,15.77,0,0,1,39,43.14a13.64,13.64,0,0,1,19.26-1,12.27,12.27,0,0,1,1,1A15,15,0,0,1,63.4,53.67V74.12Z"/></svg>