<svg id="图层_1" data-name="图层 1" xmlns="http://www.w3.org/2000/svg" xmlns:xlink="http://www.w3.org/1999/xlink" viewBox="0 0 512 512"><defs><style>.cls-1{fill:url(#未命名的渐变_178);}.cls-2{fill:url(#未命名的渐变_178-2);}.cls-3{fill:url(#未命名的渐变_178-3);}.cls-4{fill:#666;}.cls-5{fill:url(#未命名的渐变_178-4);}.cls-6{fill:url(#未命名的渐变_178-5);}.cls-7{fill:url(#未命名的渐变_178-6);}.cls-8{fill:url(#未命名的渐变_178-7);}.cls-9{fill:url(#未命名的渐变_178-8);}.cls-10{fill:url(#未命名的渐变_178-9);}.cls-11{fill:url(#未命名的渐变_178-10);}.cls-12{fill:url(#未命名的渐变_178-11);}.cls-13{fill:url(#未命名的渐变_178-12);}.cls-14{fill:url(#未命名的渐变_178-13);}</style><linearGradient id="未命名的渐变_178" x1="256.05" y1="96.4" x2="256.05" y2="425.7" gradientUnits="userSpaceOnUse"><stop offset="0" stop-color="#8a8a8a"/><stop offset="1" stop-color="#545454"/></linearGradient><linearGradient id="未命名的渐变_178-2" x1="120.32" y1="227.93" x2="120.32" y2="267.07" xlink:href="#未命名的渐变_178"/><linearGradient id="未命名的渐变_178-3" x1="120.32" y1="147.82" x2="120.32" y2="167.51" xlink:href="#未命名的渐变_178"/><linearGradient id="未命名的渐变_178-4" x1="115.46" y1="172.98" x2="115.46" y2="231.87" xlink:href="#未命名的渐变_178"/><linearGradient id="未命名的渐变_178-5" x1="118.2" y1="273.63" x2="118.2" y2="297.7" xlink:href="#未命名的渐变_178"/><linearGradient id="未命名的渐变_178-6" x1="156.46" y1="305.36" x2="156.46" y2="425.7" xlink:href="#未命名的渐变_178"/><linearGradient id="未命名的渐变_178-7" x1="76.59" y1="305.36" x2="76.59" y2="425.7" xlink:href="#未命名的渐变_178"/><linearGradient id="未命名的渐变_178-8" x1="427.32" y1="227.93" x2="427.32" y2="267.07" gradientTransform="matrix(-1, 0, 0, 1, 818, 0)" xlink:href="#未命名的渐变_178"/><linearGradient id="未命名的渐变_178-9" x1="427.32" y1="147.82" x2="427.32" y2="167.51" gradientTransform="matrix(1, 0, 0, -1, -36.64, 315.33)" xlink:href="#未命名的渐变_178"/><linearGradient id="未命名的渐变_178-10" x1="422.46" y1="172.98" x2="422.46" y2="231.87" gradientTransform="matrix(-1, 0, 0, 1, 818, 0)" xlink:href="#未命名的渐变_178"/><linearGradient id="未命名的渐变_178-11" x1="425.2" y1="273.63" x2="425.2" y2="297.7" gradientTransform="matrix(1, 0, 0, -1, -32.4, 571.33)" xlink:href="#未命名的渐变_178"/><linearGradient id="未命名的渐变_178-12" x1="463.46" y1="305.36" x2="463.46" y2="425.7" gradientTransform="matrix(-1, 0, 0, 1, 818, 0)" xlink:href="#未命名的渐变_178"/><linearGradient id="未命名的渐变_178-13" x1="383.59" y1="305.36" x2="383.59" y2="425.7" gradientTransform="matrix(-1, 0, 0, 1, 818, 0)" xlink:href="#未命名的渐变_178"/></defs><title>设备图标汇总</title><path class="cls-1" d="M304.73,269.26V241.48l-11.84.23a3,3,0,0,1-2.94-3.28V112.81h-.06V99.68a3.28,3.28,0,0,0-3.28-3.28H225.48a3.28,3.28,0,0,0-3.28,3.28v13.13h-.06V238.43a3,3,0,0,1-2.94,3.28l-11.84-.23v27.78c1.51,0,3.65,1.49,3.65,3.28v29.54c0,1.79-2.14,3.24-3.65,3.27V422.42a3.07,3.07,0,0,0,2.78,3.28H302a3.06,3.06,0,0,0,2.78-3.28V305.35c-1.51,0-3.65-1.48-3.65-3.27V272.54C301.08,270.75,303.22,269.3,304.73,269.26Z"/><path class="cls-2" d="M192.52,267.07H48.11a3.28,3.28,0,0,1-3.28-3.28V231.21a3.28,3.28,0,0,1,3.52-3.27L192.76,238.4a3.29,3.29,0,0,1,3.05,3.28v22.11A3.28,3.28,0,0,1,192.52,267.07Z"/><rect class="cls-3" x="87.5" y="147.82" width="65.64" height="19.69"/><rect class="cls-4" x="108.28" y="140.16" width="24.07" height="5.47" rx="2.74"/><rect class="cls-4" x="112.45" y="124.02" width="14.77" height="5.47" rx="2.74" transform="translate(246.6 6.92) rotate(90)"/><rect class="cls-4" x="108.28" y="132.5" width="24.07" height="5.47" rx="2.74"/><path class="cls-4" d="M185.48,305.36V371a5.47,5.47,0,0,0,10.94,0V305.36Z"/><path class="cls-4" d="M36.69,305.36V371a5.47,5.47,0,0,0,10.94,0V305.36Z"/><path class="cls-5" d="M210.46,231.86,20.1,221.29A3.27,3.27,0,0,1,17,218V176.26A3.28,3.28,0,0,1,20.28,173H210.64a3.28,3.28,0,0,1,3.29,3.28v52.33A3.28,3.28,0,0,1,210.46,231.86Z"/><rect class="cls-6" x="36.69" y="273.63" width="163.01" height="24.07" rx="3.28"/><path class="cls-7" d="M193,385.22c-4.15.14-8.77-1.58-13.56-6.92a6.74,6.74,0,0,1-1.67-4.5V308.64a3.28,3.28,0,0,0-3.29-3.28H116.56V425.7h76.51a3.28,3.28,0,0,0,3.28-3.28V388.57A3.3,3.3,0,0,0,193,385.22Z"/><path class="cls-8" d="M55.29,308.64V373.8a6.7,6.7,0,0,1-1.68,4.5c-4.79,5.34-9.41,7.06-13.56,6.92a3.31,3.31,0,0,0-3.36,3.35v33.85A3.28,3.28,0,0,0,40,425.7h76.52V305.36H58.57A3.28,3.28,0,0,0,55.29,308.64Z"/><path class="cls-9" d="M318.48,267.07H462.89a3.28,3.28,0,0,0,3.28-3.28V231.21a3.28,3.28,0,0,0-3.52-3.27L318.24,238.4a3.29,3.29,0,0,0-3.05,3.28v22.11A3.28,3.28,0,0,0,318.48,267.07Z"/><rect class="cls-10" x="357.86" y="147.82" width="65.64" height="19.69" transform="translate(781.36 315.33) rotate(-180)"/><rect class="cls-4" x="378.65" y="140.16" width="24.07" height="5.47" rx="2.74" transform="translate(781.36 285.79) rotate(-180)"/><rect class="cls-4" x="383.78" y="124.02" width="14.77" height="5.47" rx="2.74" transform="translate(517.92 -264.4) rotate(90)"/><rect class="cls-4" x="378.65" y="132.5" width="24.07" height="5.47" rx="2.74" transform="translate(781.36 270.47) rotate(180)"/><path class="cls-4" d="M325.52,305.36V371a5.47,5.47,0,1,1-10.94,0V305.36Z"/><path class="cls-4" d="M474.31,305.36V371a5.47,5.47,0,0,1-10.94,0V305.36Z"/><path class="cls-11" d="M300.54,231.86,490.9,221.29A3.27,3.27,0,0,0,494,218V176.26a3.28,3.28,0,0,0-3.28-3.28H300.36a3.28,3.28,0,0,0-3.29,3.28v52.33A3.28,3.28,0,0,0,300.54,231.86Z"/><rect class="cls-12" x="311.3" y="273.63" width="163.01" height="24.07" rx="3.28" transform="translate(785.6 571.33) rotate(-180)"/><path class="cls-13" d="M318,385.22c4.15.14,8.77-1.58,13.56-6.92a6.74,6.74,0,0,0,1.67-4.5V308.64a3.28,3.28,0,0,1,3.29-3.28h57.91V425.7H317.93a3.28,3.28,0,0,1-3.28-3.28V388.57A3.3,3.3,0,0,1,318,385.22Z"/><path class="cls-14" d="M455.71,308.64V373.8a6.7,6.7,0,0,0,1.68,4.5c4.79,5.34,9.41,7.06,13.56,6.92a3.31,3.31,0,0,1,3.36,3.35v33.85A3.28,3.28,0,0,1,471,425.7H394.51V305.36h57.92A3.28,3.28,0,0,1,455.71,308.64Z"/><rect class="cls-4" x="213.93" y="74.52" width="83.15" height="16.41" rx="3.53"/><rect class="cls-4" x="25.75" y="433.36" width="458.4" height="16.41" rx="2.85"/></svg>