<svg id="图层_1" data-name="图层 1" xmlns="http://www.w3.org/2000/svg" xmlns:xlink="http://www.w3.org/1999/xlink" viewBox="0 0 1024 512"><defs><style>.cls-1{fill:url(#未命名的渐变_53);}.cls-2{fill:#ccc;}.cls-3{fill:url(#未命名的渐变_53-2);}.cls-4{fill:#666;}.cls-5{fill:url(#未命名的渐变_53-3);}.cls-6{fill:url(#未命名的渐变_53-4);}.cls-7{fill:url(#未命名的渐变_53-5);}.cls-8{fill:url(#未命名的渐变_53-6);}.cls-9{fill:url(#未命名的渐变_53-7);}.cls-10{fill:url(#未命名的渐变_53-8);}.cls-11{fill:url(#未命名的渐变_35);}.cls-12,.cls-13{fill:#999;}.cls-12{stroke:#666;stroke-miterlimit:10;stroke-width:4px;}</style><linearGradient id="未命名的渐变_53" x1="149.21" y1="387" x2="149.21" y2="476" gradientUnits="userSpaceOnUse"><stop offset="0" stop-color="#787878"/><stop offset="1" stop-color="#595959"/></linearGradient><linearGradient id="未命名的渐变_53-2" x1="287.36" y1="475.9" x2="287.36" y2="386.9" xlink:href="#未命名的渐变_53"/><linearGradient id="未命名的渐变_53-3" x1="219" y1="382" x2="219" y2="394" xlink:href="#未命名的渐变_53"/><linearGradient id="未命名的渐变_53-4" x1="218.29" y1="427" x2="218.29" y2="453" xlink:href="#未命名的渐变_53"/><linearGradient id="未命名的渐变_53-5" x1="735.21" x2="735.21" xlink:href="#未命名的渐变_53"/><linearGradient id="未命名的渐变_53-6" x1="873.36" y1="475.9" x2="873.36" y2="386.9" xlink:href="#未命名的渐变_53"/><linearGradient id="未命名的渐变_53-7" x1="805" y1="382" x2="805" y2="394" xlink:href="#未命名的渐变_53"/><linearGradient id="未命名的渐变_53-8" x1="804.29" y1="427" x2="804.29" y2="453" xlink:href="#未命名的渐变_53"/><linearGradient id="未命名的渐变_35" x1="512.63" y1="101.88" x2="512.63" y2="372.88" gradientUnits="userSpaceOnUse"><stop offset="0" stop-color="#8f8f8f"/><stop offset="1" stop-color="#6e6e6e"/></linearGradient></defs><title>设备图标汇总</title><circle class="cls-1" cx="149.21" cy="431.5" r="44.5"/><circle class="cls-2" cx="149.58" cy="431.3" r="20.16"/><circle class="cls-3" cx="287.36" cy="431.4" r="44.5"/><circle class="cls-2" cx="287.36" cy="431.4" r="20.16"/><rect class="cls-4" x="143.33" y="361" width="12.67" height="4"/><rect class="cls-4" x="143.33" y="368.22" width="12.67" height="4"/><rect class="cls-4" x="143.33" y="375.44" width="12.67" height="4"/><rect class="cls-4" x="143.33" y="382.67" width="12.67" height="4"/><rect class="cls-4" x="143.33" y="389.89" width="12.67" height="4"/><rect class="cls-4" x="143.33" y="397.11" width="12.67" height="4"/><rect class="cls-4" x="143.33" y="404.33" width="12.67" height="4"/><rect class="cls-4" x="143.33" y="411.56" width="12.67" height="4"/><rect class="cls-4" x="143.33" y="418.78" width="12.67" height="4"/><rect class="cls-4" x="143.33" y="426" width="12.67" height="1"/><rect class="cls-4" x="280.33" y="361" width="12.67" height="4"/><rect class="cls-4" x="280.33" y="368.22" width="12.67" height="4"/><rect class="cls-4" x="280.33" y="375.44" width="12.67" height="4"/><rect class="cls-4" x="280.33" y="382.67" width="12.67" height="4"/><rect class="cls-4" x="280.33" y="389.89" width="12.67" height="4"/><rect class="cls-4" x="280.33" y="397.11" width="12.67" height="4"/><rect class="cls-4" x="280.33" y="404.33" width="12.67" height="4"/><rect class="cls-4" x="280.33" y="411.56" width="12.67" height="4"/><rect class="cls-4" x="280.33" y="418.78" width="12.67" height="4"/><rect class="cls-4" x="280.33" y="426" width="12.67" height="1"/><polygon class="cls-5" points="308.02 394 129.98 394 127 382 311 382 308.02 394"/><path class="cls-6" d="M143.29,427v6l19,20h112l19-20v-6Zm128,20H165.34L152,433h132.5Z"/><circle class="cls-7" cx="735.21" cy="431.5" r="44.5"/><circle class="cls-2" cx="735.58" cy="431.3" r="20.16"/><circle class="cls-8" cx="873.36" cy="431.4" r="44.5"/><circle class="cls-2" cx="873.36" cy="431.4" r="20.16"/><rect class="cls-4" x="729.33" y="361" width="12.67" height="4"/><rect class="cls-4" x="729.33" y="368.22" width="12.67" height="4"/><rect class="cls-4" x="729.33" y="375.44" width="12.67" height="4"/><rect class="cls-4" x="729.33" y="382.67" width="12.67" height="4"/><rect class="cls-4" x="729.33" y="389.89" width="12.67" height="4"/><rect class="cls-4" x="729.33" y="397.11" width="12.67" height="4"/><rect class="cls-4" x="729.33" y="404.33" width="12.67" height="4"/><rect class="cls-4" x="729.33" y="411.56" width="12.67" height="4"/><rect class="cls-4" x="729.33" y="418.78" width="12.67" height="4"/><rect class="cls-4" x="729.33" y="426" width="12.67" height="1"/><rect class="cls-4" x="866.33" y="361" width="12.67" height="4"/><rect class="cls-4" x="866.33" y="368.22" width="12.67" height="4"/><rect class="cls-4" x="866.33" y="375.44" width="12.67" height="4"/><rect class="cls-4" x="866.33" y="382.67" width="12.67" height="4"/><rect class="cls-4" x="866.33" y="389.89" width="12.67" height="4"/><rect class="cls-4" x="866.33" y="397.11" width="12.67" height="4"/><rect class="cls-4" x="866.33" y="404.33" width="12.67" height="4"/><rect class="cls-4" x="866.33" y="411.56" width="12.67" height="4"/><rect class="cls-4" x="866.33" y="418.78" width="12.67" height="4"/><rect class="cls-4" x="866.33" y="426" width="12.67" height="1"/><polygon class="cls-9" points="894.02 394 715.98 394 713 382 897 382 894.02 394"/><path class="cls-10" d="M729.29,427v6l19,20h112l19-20v-6Zm128,20H751.34L738,433h132.5Z"/><rect class="cls-4" x="81.5" y="88.38" width="862" height="298"/><rect class="cls-11" x="94.63" y="101.88" width="836" height="271"/><rect class="cls-12" x="524.38" y="138.5" width="63" height="211"/><rect class="cls-2" x="538.38" y="157.5" width="35" height="173"/><rect class="cls-12" x="437.88" y="139" width="63" height="211"/><rect class="cls-2" x="451.88" y="158" width="35" height="173"/><rect class="cls-13" x="624.86" y="251.5" width="118" height="96"/><path class="cls-4" d="M740.86,253.5v92h-114v-92h114m4-4h-122v100h122v-100Z"/><rect class="cls-2" x="636.36" y="264" width="95" height="71"/><polygon class="cls-13" points="626.41 232.46 683.62 138.3 741.29 232.46 626.41 232.46"/><path class="cls-4" d="M683.62,142.14l54.1,88.32H630l53.65-88.32m0-7.68-60.75,100h122l-61.25-100Z"/><polygon class="cls-2" points="723.29 221.79 644.42 221.79 683.7 157.14 723.29 221.79"/><rect class="cls-13" x="769.86" y="251.5" width="118" height="96"/><path class="cls-4" d="M885.86,253.5v92h-114v-92h114m4-4h-122v100h122v-100Z"/><rect class="cls-2" x="781.36" y="264" width="95" height="71"/><polygon class="cls-13" points="771.41 232.46 828.62 138.3 886.29 232.46 771.41 232.46"/><path class="cls-4" d="M828.62,142.14l54.1,88.32H775l53.65-88.32m0-7.68-60.75,100h122l-61.25-100Z"/><polygon class="cls-2" points="868.29 221.79 789.42 221.79 828.7 157.14 868.29 221.79"/><rect class="cls-13" x="137.86" y="251.5" width="118" height="96"/><path class="cls-4" d="M253.86,253.5v92h-114v-92h114m4-4h-122v100h122v-100Z"/><rect class="cls-2" x="149.36" y="264" width="95" height="71"/><polygon class="cls-13" points="139.41 232.46 196.62 138.3 254.29 232.46 139.41 232.46"/><path class="cls-4" d="M196.62,142.14l54.1,88.32H143l53.65-88.32m0-7.68-60.75,100h122l-61.25-100Z"/><polygon class="cls-2" points="236.29 221.79 157.42 221.79 196.7 157.14 236.29 221.79"/><rect class="cls-13" x="282.86" y="251.5" width="118" height="96"/><path class="cls-4" d="M398.86,253.5v92h-114v-92h114m4-4h-122v100h122v-100Z"/><rect class="cls-2" x="294.36" y="264" width="95" height="71"/><polygon class="cls-13" points="284.41 232.46 341.62 138.3 399.29 232.46 284.41 232.46"/><path class="cls-4" d="M341.62,142.14l54.1,88.32H288l53.65-88.32m0-7.68-60.75,100h122l-61.25-100Z"/><polygon class="cls-2" points="381.29 221.79 302.42 221.79 341.7 157.14 381.29 221.79"/></svg>