<svg id="图层_1" data-name="图层 1" xmlns="http://www.w3.org/2000/svg" viewBox="0 0 100 100"><title>设备图标汇总</title><path d="M69.89,61.08a2.24,2.24,0,0,1-1.78-.85,2.34,2.34,0,0,1,.31-3.29l8.43-7-8.46-7a2.33,2.33,0,0,1-.33-3.27h0a2.3,2.3,0,0,1,3.28-.32L82,48.14a2.35,2.35,0,0,1,.86,1.78A2.29,2.29,0,0,1,82,51.7L71.35,60.49A2.06,2.06,0,0,1,69.89,61.08Z"/><path d="M77.42,52.27H48.3a2.32,2.32,0,0,1,0-4.64H77.45A2.32,2.32,0,0,1,79.78,50,2.35,2.35,0,0,1,77.42,52.27Z"/><path d="M69.56,79H23.87a2.32,2.32,0,0,1-2.33-2.32V23.32A2.32,2.32,0,0,1,23.87,21H69.56a2.31,2.31,0,0,1,2.32,2.32V33.39a2.32,2.32,0,1,1-4.64,0V25.64H26.18V74.36H67.23V66.61a2.33,2.33,0,0,1,4.65,0V76.68A2.34,2.34,0,0,1,69.56,79Z"/></svg>