<svg id="图层_1" data-name="图层 1" xmlns="http://www.w3.org/2000/svg" xmlns:xlink="http://www.w3.org/1999/xlink" viewBox="0 0 1024 512"><defs><style>.cls-1{fill:#4d4d4d;}.cls-2{fill:#5e5e5e;}.cls-3{fill:#ccc;}.cls-4{fill:#999;}.cls-5{fill:gray;}.cls-6{fill:url(#未命名的渐变_53);}.cls-7{fill:#666;}.cls-8{fill:url(#未命名的渐变_53-2);}.cls-9{fill:url(#未命名的渐变_53-3);}.cls-10{fill:url(#未命名的渐变_53-4);}.cls-11{fill:url(#未命名的渐变_53-5);}.cls-12{fill:url(#未命名的渐变_53-6);}.cls-13{fill:#b3b3b3;}.cls-14{fill:url(#未命名的渐变_61);}.cls-15{fill:url(#未命名的渐变_53-7);}.cls-16{fill:#707070;}.cls-17{fill:url(#未命名的渐变_68);}</style><linearGradient id="未命名的渐变_53" x1="883.36" y1="475.9" x2="883.36" y2="386.9" gradientUnits="userSpaceOnUse"><stop offset="0" stop-color="#787878"/><stop offset="1" stop-color="#595959"/></linearGradient><linearGradient id="未命名的渐变_53-2" x1="159.21" y1="387" x2="159.21" y2="476" xlink:href="#未命名的渐变_53"/><linearGradient id="未命名的渐变_53-3" x1="297.36" y1="475.9" x2="297.36" y2="386.9" xlink:href="#未命名的渐变_53"/><linearGradient id="未命名的渐变_53-4" x1="228.5" y1="382" x2="228.5" y2="394" xlink:href="#未命名的渐变_53"/><linearGradient id="未命名的渐变_53-5" x1="746.79" y1="387" x2="746.79" y2="476" xlink:href="#未命名的渐变_53"/><linearGradient id="未命名的渐变_53-6" x1="610.21" y1="387" x2="610.21" y2="476" xlink:href="#未命名的渐变_53"/><linearGradient id="未命名的渐变_61" x1="454" y1="89.29" x2="454" y2="133.43" gradientUnits="userSpaceOnUse"><stop offset="0" stop-color="#666"/><stop offset="0.19" stop-color="#626262"/><stop offset="0.68" stop-color="#5e5e5e"/><stop offset="1" stop-color="#4a4a4a"/></linearGradient><linearGradient id="未命名的渐变_53-7" x1="583" y1="390" x2="910" y2="390" xlink:href="#未命名的渐变_53"/><linearGradient id="未命名的渐变_68" x1="453.5" y1="386.38" x2="453.5" y2="133.43" gradientUnits="userSpaceOnUse"><stop offset="0" stop-color="#404040"/><stop offset="1" stop-color="#5e5e5e"/></linearGradient></defs><title>设备图标汇总</title><polygon class="cls-1" points="101 386 61 386 61 329 101 309 101 386"/><polygon class="cls-2" points="965 388 807 388 807 266.79 965 327 965 388"/><polygon class="cls-3" points="953 432 566 432 535 387 965 387 953 432"/><polygon class="cls-3" points="342 432 115 432 65 387 383 387 342 432"/><polygon class="cls-4" points="921.94 197.71 714.71 197.71 729.86 178 906.79 178 921.94 197.71"/><polygon class="cls-5" points="928 230.79 708.65 230.79 714.71 197.71 921.94 197.71 928 230.79"/><circle class="cls-6" cx="883.36" cy="431.4" r="44.5"/><circle class="cls-3" cx="883.36" cy="431.4" r="20.16"/><rect class="cls-7" x="876.33" y="361" width="12.67" height="4"/><rect class="cls-7" x="876.33" y="368.22" width="12.67" height="4"/><rect class="cls-7" x="876.33" y="375.44" width="12.67" height="4"/><rect class="cls-7" x="876.33" y="382.67" width="12.67" height="4"/><rect class="cls-7" x="876.33" y="389.89" width="12.67" height="4"/><rect class="cls-7" x="876.33" y="397.11" width="12.67" height="4"/><rect class="cls-7" x="876.33" y="404.33" width="12.67" height="4"/><rect class="cls-7" x="876.33" y="411.56" width="12.67" height="4"/><rect class="cls-7" x="876.33" y="418.78" width="12.67" height="4"/><rect class="cls-7" x="876.33" y="426" width="12.67" height="1"/><circle class="cls-8" cx="159.21" cy="431.5" r="44.5"/><circle class="cls-3" cx="159.58" cy="431.3" r="20.16"/><circle class="cls-9" cx="297.36" cy="431.4" r="44.5"/><circle class="cls-3" cx="297.36" cy="431.4" r="20.16"/><rect class="cls-7" x="153.33" y="361" width="12.67" height="4"/><rect class="cls-7" x="153.33" y="368.22" width="12.67" height="4"/><rect class="cls-7" x="153.33" y="375.44" width="12.67" height="4"/><rect class="cls-7" x="153.33" y="382.67" width="12.67" height="4"/><rect class="cls-7" x="153.33" y="389.89" width="12.67" height="4"/><rect class="cls-7" x="153.33" y="397.11" width="12.67" height="4"/><rect class="cls-7" x="153.33" y="404.33" width="12.67" height="4"/><rect class="cls-7" x="153.33" y="411.56" width="12.67" height="4"/><rect class="cls-7" x="153.33" y="418.78" width="12.67" height="4"/><rect class="cls-7" x="153.33" y="426" width="12.67" height="1"/><rect class="cls-7" x="290.33" y="361" width="12.67" height="4"/><rect class="cls-7" x="290.33" y="368.22" width="12.67" height="4"/><rect class="cls-7" x="290.33" y="375.44" width="12.67" height="4"/><rect class="cls-7" x="290.33" y="382.67" width="12.67" height="4"/><rect class="cls-7" x="290.33" y="389.89" width="12.67" height="4"/><rect class="cls-7" x="290.33" y="397.11" width="12.67" height="4"/><rect class="cls-7" x="290.33" y="404.33" width="12.67" height="4"/><rect class="cls-7" x="290.33" y="411.56" width="12.67" height="4"/><rect class="cls-7" x="290.33" y="418.78" width="12.67" height="4"/><rect class="cls-7" x="290.33" y="426" width="12.67" height="1"/><polygon class="cls-10" points="321.02 394 135.98 394 133 382 324 382 321.02 394"/><circle class="cls-11" cx="746.79" cy="431.5" r="44.5"/><circle class="cls-3" cx="747.15" cy="431.3" r="20.16"/><rect class="cls-7" x="740.9" y="361" width="12.67" height="4"/><rect class="cls-7" x="740.9" y="368.22" width="12.67" height="4"/><rect class="cls-7" x="740.9" y="375.44" width="12.67" height="4"/><rect class="cls-7" x="740.9" y="382.67" width="12.67" height="4"/><rect class="cls-7" x="740.9" y="389.89" width="12.67" height="4"/><rect class="cls-7" x="740.9" y="397.11" width="12.67" height="4"/><rect class="cls-7" x="740.9" y="404.33" width="12.67" height="4"/><rect class="cls-7" x="740.9" y="411.56" width="12.67" height="4"/><rect class="cls-7" x="740.9" y="418.78" width="12.67" height="4"/><rect class="cls-7" x="740.9" y="426" width="12.67" height="1"/><circle class="cls-12" cx="610.21" cy="431.5" r="44.5"/><circle class="cls-3" cx="610.58" cy="431.3" r="20.16"/><rect class="cls-7" x="604.33" y="361" width="12.67" height="4"/><rect class="cls-7" x="604.33" y="368.22" width="12.67" height="4"/><rect class="cls-7" x="604.33" y="375.44" width="12.67" height="4"/><rect class="cls-7" x="604.33" y="382.67" width="12.67" height="4"/><rect class="cls-7" x="604.33" y="389.89" width="12.67" height="4"/><rect class="cls-7" x="604.33" y="397.11" width="12.67" height="4"/><rect class="cls-7" x="604.33" y="404.33" width="12.67" height="4"/><rect class="cls-7" x="604.33" y="411.56" width="12.67" height="4"/><rect class="cls-7" x="604.33" y="418.78" width="12.67" height="4"/><rect class="cls-7" x="604.33" y="426" width="12.67" height="1"/><polygon class="cls-13" points="796 89.29 112 89.29 162 63 746 63 796 89.29"/><polygon class="cls-14" points="816 133.43 92 133.43 112 89.29 796 89.29 816 133.43"/><polygon class="cls-15" points="907.02 394 585.98 394 583 386 910 386 907.02 394"/><rect class="cls-16" x="708.5" y="231.16" width="219.35" height="155.21"/><rect class="cls-17" x="91.5" y="133.43" width="724" height="252.95"/><polygon class="cls-3" points="92 214.25 347 214.25 412 307 459 214 604 214 597 227 461 227 411 325 339 227 92 227 92 214.25"/><polygon class="cls-5" points="802 368 641 368 641 276.32 656.29 264.22 656.29 153 802 153 802 368"/><rect class="cls-4" x="694.95" y="166.2" width="70.1" height="94.85"/><path class="cls-1" d="M762.1,169.15v89H697.9v-89h64.2m5.9-5.9H692V264h76V163.25Z"/><rect class="cls-3" x="708.75" y="181.89" width="42.51" height="63.48"/><path class="cls-1" d="M749.41,183.73v59.79H710.59V183.73h38.82M753.1,180H706.9v67.17h46.2V180Z"/><rect class="cls-1" x="153" y="261" width="430" height="9"/><rect class="cls-1" x="153" y="293" width="430" height="9"/><rect class="cls-1" x="153" y="318" width="430" height="9"/><rect class="cls-1" x="204" y="270" width="9" height="48"/><rect class="cls-1" x="153" y="270" width="9" height="48"/><rect class="cls-1" x="273" y="270" width="9" height="48"/><rect class="cls-1" x="337" y="270" width="9" height="48"/><rect class="cls-1" x="465" y="270" width="9" height="48"/><rect class="cls-1" x="529" y="270" width="9" height="48"/><rect class="cls-1" x="574" y="270" width="9" height="48"/></svg>