<svg id="图层_1" data-name="图层 1" xmlns="http://www.w3.org/2000/svg" xmlns:xlink="http://www.w3.org/1999/xlink" viewBox="0 0 512 512"><defs><style>.cls-1{fill:url(#未命名的渐变_71);}.cls-2{fill:#666;}.cls-3{fill:url(#未命名的渐变_86);}.cls-4{fill:#bcbcbc;}.cls-5{fill:url(#未命名的渐变_94);}.cls-6{fill:#999;}.cls-7{fill:#d6d6d6;}.cls-8{fill:#fff;}.cls-9{fill:#c4c4c4;}.cls-10{fill:url(#未命名的渐变_16);}.cls-11{fill:#7f7f7f;}.cls-12{fill:url(#未命名的渐变_16-2);}.cls-13{fill:url(#未命名的渐变_16-3);}.cls-14{fill:url(#未命名的渐变_16-4);}</style><linearGradient id="未命名的渐变_71" x1="415.5" y1="318" x2="415.5" y2="375" gradientUnits="userSpaceOnUse"><stop offset="0" stop-color="#b3b3b3"/><stop offset="0.6" stop-color="#828282"/><stop offset="0.99" stop-color="#666"/></linearGradient><linearGradient id="未命名的渐变_86" x1="251.89" y1="61.95" x2="251.89" y2="299.95" gradientUnits="userSpaceOnUse"><stop offset="0" stop-color="#e6e6e6"/><stop offset="1" stop-color="#bababa"/></linearGradient><linearGradient id="未命名的渐变_94" x1="257.75" y1="167" x2="257.75" y2="319" gradientUnits="userSpaceOnUse"><stop offset="0" stop-color="#b3b3b3"/><stop offset="0.23" stop-color="#a7a7a7"/><stop offset="0.64" stop-color="#878787"/><stop offset="0.99" stop-color="#666"/></linearGradient><linearGradient id="未命名的渐变_16" x1="387.14" y1="129.3" x2="438.3" y2="129.3" gradientTransform="translate(542.02 -283.45) rotate(90)" gradientUnits="userSpaceOnUse"><stop offset="0" stop-color="#ddd"/><stop offset="1" stop-color="#929292"/></linearGradient><linearGradient id="未命名的渐变_16-2" x1="391.47" y1="123.54" x2="434.7" y2="123.54" gradientTransform="translate(536.6 -289.58) rotate(90)" xlink:href="#未命名的渐变_16"/><linearGradient id="未命名的渐变_16-3" x1="391.47" y1="135.79" x2="434.7" y2="135.79" gradientTransform="translate(548.82 -277.33) rotate(90)" xlink:href="#未命名的渐变_16"/><linearGradient id="未命名的渐变_16-4" x1="444.79" y1="129.28" x2="448.39" y2="129.28" gradientTransform="matrix(1, 0, 0, 1, 0, 0)" xlink:href="#未命名的渐变_16"/></defs><title>设备图标汇总</title><rect class="cls-1" x="390" y="318" width="51" height="57"/><rect class="cls-2" x="325" y="98.78" width="54" height="61" rx="3.62"/><circle class="cls-3" cx="251.89" cy="180.95" r="119"/><path class="cls-4" d="M251.89,65a116,116,0,1,1-82,34,115.24,115.24,0,0,1,82-34m0-6a122,122,0,1,0,122,122,122,122,0,0,0-122-122Z"/><polygon class="cls-5" points="471.75 319 43.75 319 43.75 167 94.75 167 95 212 471.75 212 471.75 319"/><circle class="cls-6" cx="249.89" cy="180.95" r="48.5"/><path class="cls-7" d="M249.89,134.45a46.5,46.5,0,1,1-46.5,46.5,46.55,46.55,0,0,1,46.5-46.5m0-4a50.5,50.5,0,1,0,50.5,50.5,50.49,50.49,0,0,0-50.5-50.5Z"/><circle class="cls-2" cx="249.89" cy="180.95" r="12.66"/><circle class="cls-8" cx="251.67" cy="152.19" r="9.19"/><circle class="cls-8" cx="223.03" cy="180.83" r="9.19"/><circle class="cls-8" cx="251.67" cy="209.48" r="9.19"/><circle class="cls-8" cx="280.32" cy="180.83" r="9.19"/><rect class="cls-6" x="224" y="200" width="53" height="56"/><path class="cls-9" d="M275,202v52H226V202h49m4-4H222v60h57V198Z"/><rect class="cls-10" x="392.9" y="103.69" width="39.63" height="51.16" transform="translate(282.36 541.65) rotate(-89.85)"/><path class="cls-11" d="M389.35,111.56l46.83.12L436.09,147l-46.84-.12.1-35.31M385,107.22l-.12,44,55.48.15.12-44L385,107.22Z"/><rect class="cls-12" x="412.73" y="101.89" width="0.72" height="43.23" transform="translate(288.46 536.27) rotate(-89.84)"/><polygon class="cls-11" points="389.32 120.93 389.31 125.97 436.87 126.1 436.88 121.05 389.32 120.93 389.32 120.93"/><rect class="cls-13" x="412.7" y="114.14" width="0.72" height="43.23" transform="translate(276.18 548.46) rotate(-89.84)"/><polygon class="cls-11" points="389.29 133.18 389.28 138.22 436.83 138.35 436.85 133.3 389.29 133.18 389.29 133.18"/><path class="cls-14" d="M444.79,149.09V109.46h1.81a1.79,1.79,0,0,1,1.79,1.79V147.3a1.79,1.79,0,0,1-1.79,1.79Z"/><path class="cls-11" d="M446.6,107.3h-4v44h4a4,4,0,0,0,3.95-3.95V111.25a4,4,0,0,0-3.95-4Z"/><rect class="cls-2" x="151.58" y="270.5" width="207" height="18"/><rect class="cls-2" x="177.58" y="332" width="155" height="18"/><rect class="cls-2" x="157.08" y="368" width="95" height="18" transform="translate(-206.66 255.08) rotate(-45)"/><rect class="cls-2" x="296.58" y="329.5" width="18" height="95" transform="translate(-177.08 326.5) rotate(-45)"/><rect class="cls-2" x="86" y="365" width="172" height="18" transform="translate(546 202) rotate(90)"/><rect class="cls-2" x="253" y="365" width="172" height="18" transform="translate(713 35) rotate(90)"/></svg>