<svg id="图层_1" data-name="图层 1" xmlns="http://www.w3.org/2000/svg" xmlns:xlink="http://www.w3.org/1999/xlink" viewBox="0 0 512 512"><defs><style>.cls-1{fill:#666;}.cls-2{fill:url(#未命名的渐变_2);}.cls-3{fill:url(#未命名的渐变_2-2);}.cls-4{fill:url(#未命名的渐变_2-3);}.cls-5{fill:url(#未命名的渐变_2-4);}.cls-6{fill:url(#未命名的渐变_2-5);}.cls-7{fill:url(#未命名的渐变_2-6);}.cls-8{fill:url(#未命名的渐变_2-7);}.cls-9{fill:url(#未命名的渐变_2-8);}.cls-10{fill:url(#未命名的渐变_2-9);}.cls-11{fill:url(#未命名的渐变_2-10);}.cls-12{fill:url(#未命名的渐变_2-11);}.cls-13{fill:url(#未命名的渐变_2-12);}.cls-14{fill:url(#未命名的渐变_2-13);}.cls-15{fill:url(#未命名的渐变_2-14);}.cls-16{fill:url(#未命名的渐变_53);}.cls-17{fill:#fff;}</style><linearGradient id="未命名的渐变_2" x1="340.17" y1="184" x2="340.17" y2="285.94" gradientUnits="userSpaceOnUse"><stop offset="0" stop-color="#787878"/><stop offset="1" stop-color="#595959"/></linearGradient><linearGradient id="未命名的渐变_2-2" x1="319.34" x2="319.34" y2="285.94" xlink:href="#未命名的渐变_2"/><linearGradient id="未命名的渐变_2-3" x1="298.52" x2="298.52" y2="285.94" xlink:href="#未命名的渐变_2"/><linearGradient id="未命名的渐变_2-4" x1="277.69" x2="277.69" y2="285.94" xlink:href="#未命名的渐变_2"/><linearGradient id="未命名的渐变_2-5" x1="256.87" x2="256.87" y2="285.94" xlink:href="#未命名的渐变_2"/><linearGradient id="未命名的渐变_2-6" x1="236.04" x2="236.04" y2="285.94" xlink:href="#未命名的渐变_2"/><linearGradient id="未命名的渐变_2-7" x1="215.21" x2="215.21" y2="285.94" xlink:href="#未命名的渐变_2"/><linearGradient id="未命名的渐变_2-8" x1="194.39" x2="194.39" y2="285.94" xlink:href="#未命名的渐变_2"/><linearGradient id="未命名的渐变_2-9" x1="173.56" x2="173.56" y2="285.94" xlink:href="#未命名的渐变_2"/><linearGradient id="未命名的渐变_2-10" x1="152.73" x2="152.73" y2="285.94" xlink:href="#未命名的渐变_2"/><linearGradient id="未命名的渐变_2-11" x1="131.91" x2="131.91" y2="285.94" xlink:href="#未命名的渐变_2"/><linearGradient id="未命名的渐变_2-12" x1="111.08" x2="111.08" y2="285.94" xlink:href="#未命名的渐变_2"/><linearGradient id="未命名的渐变_2-13" x1="86.24" x2="86.24" y2="285.94" xlink:href="#未命名的渐变_2"/><linearGradient id="未命名的渐变_2-14" x1="217.59" y1="288.13" x2="217.59" y2="303.48" xlink:href="#未命名的渐变_2"/><linearGradient id="未命名的渐变_53" x1="67.98" y1="243.74" x2="397.88" y2="243.74" xlink:href="#未命名的渐变_2"/></defs><title>设备图标汇总</title><rect class="cls-1" x="86.05" y="194.96" width="261.97" height="83.3"/><rect class="cls-2" x="331.95" y="184" width="16.44" height="101.94"/><rect class="cls-1" x="336.88" y="212.5" width="6.58" height="27.4"/><rect class="cls-1" x="336.88" y="264.02" width="6.58" height="8.77"/><rect class="cls-3" x="311.12" y="184" width="16.44" height="101.94"/><rect class="cls-1" x="316.06" y="212.5" width="6.58" height="27.4"/><rect class="cls-1" x="316.06" y="264.02" width="6.58" height="8.77"/><rect class="cls-4" x="290.3" y="184" width="16.44" height="101.94"/><rect class="cls-1" x="295.23" y="212.5" width="6.58" height="27.4"/><rect class="cls-1" x="295.23" y="264.02" width="6.58" height="8.77"/><rect class="cls-5" x="269.47" y="184" width="16.44" height="101.94"/><rect class="cls-1" x="274.4" y="212.5" width="6.58" height="27.4"/><rect class="cls-1" x="274.4" y="264.02" width="6.58" height="8.77"/><rect class="cls-6" x="248.64" y="184" width="16.44" height="101.94"/><rect class="cls-1" x="253.58" y="212.5" width="6.58" height="27.4"/><rect class="cls-1" x="253.58" y="264.02" width="6.58" height="8.77"/><rect class="cls-7" x="227.82" y="184" width="16.44" height="101.94"/><rect class="cls-1" x="232.75" y="212.5" width="6.58" height="27.4"/><rect class="cls-1" x="232.75" y="264.02" width="6.58" height="8.77"/><rect class="cls-8" x="206.99" y="184" width="16.44" height="101.94"/><rect class="cls-1" x="211.92" y="212.5" width="6.58" height="27.4"/><rect class="cls-1" x="211.92" y="264.02" width="6.58" height="8.77"/><rect class="cls-9" x="186.17" y="184" width="16.44" height="101.94"/><rect class="cls-1" x="191.1" y="212.5" width="6.58" height="27.4"/><rect class="cls-1" x="191.1" y="264.02" width="6.58" height="8.77"/><rect class="cls-10" x="165.34" y="184" width="16.44" height="101.94"/><rect class="cls-1" x="170.27" y="212.5" width="6.58" height="27.4"/><rect class="cls-1" x="170.27" y="264.02" width="6.58" height="8.77"/><rect class="cls-11" x="144.51" y="184" width="16.44" height="101.94"/><rect class="cls-1" x="149.45" y="212.5" width="6.58" height="27.4"/><rect class="cls-1" x="149.45" y="264.02" width="6.58" height="8.77"/><rect class="cls-12" x="123.69" y="184" width="16.44" height="101.94"/><rect class="cls-1" x="128.62" y="212.5" width="6.58" height="27.4"/><rect class="cls-1" x="128.62" y="264.02" width="6.58" height="8.77"/><rect class="cls-13" x="102.86" y="184" width="16.44" height="101.94"/><rect class="cls-1" x="107.79" y="212.5" width="6.58" height="27.4"/><rect class="cls-1" x="107.79" y="264.02" width="6.58" height="8.77"/><polygon class="cls-14" points="98.48 285.94 74 285.94 74 209.21 86.24 184 98.48 184 98.48 285.94"/><rect class="cls-1" x="360.08" y="213.59" width="6.58" height="19.73"/><rect class="cls-1" x="201.69" y="139.61" width="6.58" height="340.89" transform="translate(-105.07 515.04) rotate(-90)"/><rect class="cls-15" x="71.81" y="288.13" width="291.57" height="15.35"/><path class="cls-1" d="M376,213.59c-3.19,0-4.94.22-9.32,0v6.5c3.29.08,6.12.08,9.32.08,24.11,0,50.42,18.64,50.42,42.75S400.09,306.76,376,306.76h-.55v6.58H376c27.73,0,57-22.69,57-50.42S403.71,213.59,376,213.59Z"/><polygon class="cls-1" points="361.18 233.32 361.18 226.75 34.54 226.75 34.54 231.13 34.54 233.32 34.54 344.03 17 344.03 17 348.42 63.04 348.42 63.04 344.03 44.4 344.03 44.4 233.32 361.18 233.32"/><polygon class="cls-1" points="355.7 344.03 355.7 316.63 345.83 316.63 345.83 344.03 328.3 344.03 328.3 348.42 374.33 348.42 374.33 344.03 355.7 344.03"/><path class="cls-1" d="M396.25,237.71v7.67h85.51a6.57,6.57,0,0,1,6.57,6.57v8.78H496v-23Z"/><path class="cls-1" d="M389.68,249.77h88a6.23,6.23,0,0,1,6.23,6.23v17.88a0,0,0,0,1,0,0H389.68a0,0,0,0,1,0,0V249.77A0,0,0,0,1,389.68,249.77Z"/><rect class="cls-16" x="67.98" y="234.98" width="329.9" height="17.51"/><path class="cls-17" d="M396.23,236.64v14.2H69.64v-14.2H396.23m3.31-3.32H66.32v20.83H399.54V233.32Z"/></svg>