<svg id="图层_1" data-name="图层 1" xmlns="http://www.w3.org/2000/svg" xmlns:xlink="http://www.w3.org/1999/xlink" viewBox="0 0 512 512"><defs><style>.cls-1{fill:url(#未命名的渐变_68);}.cls-2{fill:url(#未命名的渐变_68-2);}.cls-3{fill:url(#未命名的渐变_68-3);}.cls-4{fill:url(#未命名的渐变_68-4);}.cls-5{fill:url(#未命名的渐变_56);}.cls-6{fill:url(#未命名的渐变_107);}.cls-7{fill:url(#未命名的渐变_107-2);}.cls-8{fill:url(#未命名的渐变_107-3);}.cls-9{fill:url(#未命名的渐变_107-4);}</style><linearGradient id="未命名的渐变_68" x1="352.38" y1="266.92" x2="352.89" y2="389.54" gradientUnits="userSpaceOnUse"><stop offset="0" stop-color="#404040"/><stop offset="1" stop-color="#5e5e5e"/></linearGradient><linearGradient id="未命名的渐变_68-2" x1="162.45" y1="266.92" x2="162.96" y2="389.54" xlink:href="#未命名的渐变_68"/><linearGradient id="未命名的渐变_68-3" x1="257.63" y1="292.2" x2="257.92" y2="362.05" xlink:href="#未命名的渐变_68"/><linearGradient id="未命名的渐变_68-4" x1="258.27" y1="382.78" x2="258.27" y2="267.03" xlink:href="#未命名的渐变_68"/><linearGradient id="未命名的渐变_56" x1="258.21" y1="233.42" x2="258.34" y2="263.32" gradientUnits="userSpaceOnUse"><stop offset="0" stop-color="#707070"/><stop offset="1" stop-color="#5e5e5e"/></linearGradient><linearGradient id="未命名的渐变_107" x1="258.21" y1="198.08" x2="258.34" y2="229.77" gradientUnits="userSpaceOnUse"><stop offset="0" stop-color="#707070"/><stop offset="1" stop-color="#4f4f4f"/></linearGradient><linearGradient id="未命名的渐变_107-2" x1="258.07" y1="129.5" x2="258.36" y2="198.27" xlink:href="#未命名的渐变_107"/><linearGradient id="未命名的渐变_107-3" x1="309.74" y1="153.34" x2="309.83" y2="174.52" xlink:href="#未命名的渐变_107"/><linearGradient id="未命名的渐变_107-4" x1="208.03" y1="144.31" x2="208.2" y2="183.42" xlink:href="#未命名的渐变_107"/></defs><title>设备图标汇总</title><rect class="cls-1" x="335.82" y="266.96" width="33.62" height="122.54" rx="7.1"/><rect class="cls-2" x="145.9" y="266.96" width="33.62" height="122.54" rx="7.1"/><rect class="cls-3" x="179.06" y="292.53" width="157.43" height="69.19"/><path class="cls-4" d="M216.91,267h82.73a0,0,0,0,1,0,0v80a35.75,35.75,0,0,1-35.75,35.75H252.66A35.75,35.75,0,0,1,216.91,347V267A0,0,0,0,1,216.91,267Z"/><rect class="cls-5" x="201.62" y="233.63" width="113.3" height="29.47" rx="5.16"/><path class="cls-6" d="M241,198.16V229.7h34.59V198.16a38.36,38.36,0,0,1-34.59,0Z"/><circle class="cls-7" cx="258.21" cy="163.88" r="34.38"/><path class="cls-8" d="M295.15,153.4a38.16,38.16,0,0,1,0,21h29.27v-21Z"/><path class="cls-9" d="M214.62,149.61l-21.06-5.24v39.11L215,177.59h7.46a38.41,38.41,0,0,1,.26-28Z"/></svg>