<svg id="图层_1" data-name="图层 1" xmlns="http://www.w3.org/2000/svg" xmlns:xlink="http://www.w3.org/1999/xlink" viewBox="0 0 512 512"><defs><style>.cls-1{fill:#999;}.cls-2{fill:#666;}.cls-3{fill:url(#未命名的渐变_53);}.cls-4{fill:url(#未命名的渐变_53-2);}.cls-5{fill:url(#未命名的渐变_53-3);}.cls-6{stroke:#666;stroke-miterlimit:10;stroke-width:5.86px;fill:url(#未命名的渐变_78);}</style><linearGradient id="未命名的渐变_53" x1="57" y1="323.37" x2="426.9" y2="323.37" gradientUnits="userSpaceOnUse"><stop offset="0" stop-color="#787878"/><stop offset="1" stop-color="#595959"/></linearGradient><linearGradient id="未命名的渐变_53-2" y1="192.73" x2="426.9" y2="192.73" xlink:href="#未命名的渐变_53"/><linearGradient id="未命名的渐变_53-3" x1="725.2" y1="151.42" x2="611.38" y2="151.42" gradientTransform="matrix(-0.81, -0.81, -0.93, 0.93, 1102.48, 627.08)" xlink:href="#未命名的渐变_53"/><linearGradient id="未命名的渐变_78" x1="397.02" y1="114.5" x2="397.02" y2="221.46" gradientUnits="userSpaceOnUse"><stop offset="0" stop-color="#8c8c8c"/><stop offset="0.25" stop-color="#828282"/><stop offset="0.67" stop-color="#676767"/><stop offset="1" stop-color="#4d4d4d"/></linearGradient></defs><title>设备图标汇总</title><path class="cls-1" d="M287.58,216.18a57,57,0,1,0-106.16,0H108.8a127.53,127.53,0,0,1-1.23-17.66,127,127,0,0,1,127-127.06c70.06,0,127,57,127.06,127a128,128,0,0,1-1.23,17.7Z"/><path class="cls-2" d="M234.61,75.92A122.63,122.63,0,0,1,356.48,211.73H293.73a61.42,61.42,0,1,0-118.46,0H112.74a124.55,124.55,0,0,1-.72-13.21A122.59,122.59,0,0,1,234.59,75.92h0m0-8.92h0A131.54,131.54,0,0,0,105,220.64H188.4a52.5,52.5,0,1,1,92.2,0h83.64A131.54,131.54,0,0,0,234.61,67Z"/><rect class="cls-2" x="227.94" y="67.55" width="12.21" height="72.85" rx="4.31"/><rect class="cls-2" x="167.61" y="89.56" width="12.21" height="72.85" rx="4.31" transform="translate(-40.34 141.17) rotate(-40.01)"/><rect class="cls-2" x="135.55" y="145.2" width="12.21" height="72.85" rx="4.31" transform="matrix(0.17, -0.98, 0.98, 0.17, -61.8, 289.61)"/><rect class="cls-2" x="320.45" y="145.06" width="12.21" height="72.85" rx="4.31" transform="translate(448.53 -171.64) rotate(79.99)"/><rect class="cls-2" x="288.3" y="89.47" width="12.21" height="72.85" rx="4.31" transform="translate(149.77 -159.77) rotate(39.99)"/><rect class="cls-2" x="173.91" y="419.05" width="197" height="22.95"/><path class="cls-2" d="M234.61,144.58a53.9,53.9,0,0,1,53.12,63.15H181.48a54.74,54.74,0,0,1-.79-9.22,54,54,0,0,1,53.91-53.93h0m0-8.91h0a62.85,62.85,0,0,0-60.15,81H294.77a62.85,62.85,0,0,0-60.16-81Z"/><polygon class="cls-3" points="345.3 419 196.62 419 57 227.75 426.89 227.75 345.3 419"/><polygon class="cls-4" points="426.89 223 57 223 57 162.47 396.98 162.47 426.89 223"/><path class="cls-5" d="M410.58,258.57l39,35.36L448.93,214l-51.47-51.54S389,224.82,410.58,258.57Z"/><rect class="cls-2" x="447.75" y="212.33" width="7.25" height="83.41" rx="3.63"/><polygon class="cls-6" points="443.33 194.72 397.02 221.46 350.71 194.72 350.71 141.24 397.02 114.5 443.33 141.24 443.33 194.72"/><rect class="cls-2" x="394.02" y="118" width="6" height="101"/><rect class="cls-2" x="394.02" y="118" width="6" height="101" transform="translate(52.59 428.08) rotate(-60)"/><rect class="cls-2" x="394.02" y="118" width="6" height="101" transform="translate(449.61 596.58) rotate(-120)"/></svg>