<svg id="图层_1" data-name="图层 1" xmlns="http://www.w3.org/2000/svg" xmlns:xlink="http://www.w3.org/1999/xlink" viewBox="0 0 512 512"><defs><style>.cls-1{fill:url(#未命名的渐变_235);}.cls-2{fill:url(#未命名的渐变_235-2);}.cls-3{fill:url(#未命名的渐变_235-3);}.cls-4{fill:url(#未命名的渐变_53);}.cls-5{fill:url(#未命名的渐变_53-2);}.cls-6{fill:url(#未命名的渐变_53-3);}.cls-7{fill:url(#未命名的渐变_53-4);}.cls-8{fill:url(#未命名的渐变_68);}.cls-9{fill:url(#未命名的渐变_68-2);}.cls-10{fill:url(#未命名的渐变_68-3);}.cls-11{fill:url(#未命名的渐变_68-4);}.cls-12{fill:url(#未命名的渐变_53-5);}.cls-13{fill:url(#未命名的渐变_53-6);}.cls-14{fill:#666;}.cls-15{fill:url(#未命名的渐变_235-4);}</style><linearGradient id="未命名的渐变_235" x1="46" y1="205" x2="462" y2="205" gradientUnits="userSpaceOnUse"><stop offset="0.16" stop-color="#404040"/><stop offset="0.32" stop-color="#444"/><stop offset="0.47" stop-color="#4f4f4f"/><stop offset="0.6" stop-color="#5e5e5e"/><stop offset="0.7" stop-color="#4e4e4e"/><stop offset="0.88" stop-color="#3a3a3a"/><stop offset="0.99" stop-color="#333"/></linearGradient><linearGradient id="未命名的渐变_235-2" y1="246.5" y2="246.5" xlink:href="#未命名的渐变_235"/><linearGradient id="未命名的渐变_235-3" x1="66" y1="226" x2="446" y2="226" xlink:href="#未命名的渐变_235"/><linearGradient id="未命名的渐变_53" x1="122.83" y1="135" x2="122.83" y2="194" gradientUnits="userSpaceOnUse"><stop offset="0" stop-color="#787878"/><stop offset="1" stop-color="#595959"/></linearGradient><linearGradient id="未命名的渐变_53-2" x1="211.72" x2="211.72" xlink:href="#未命名的渐变_53"/><linearGradient id="未命名的渐变_53-3" x1="300.61" x2="300.61" xlink:href="#未命名的渐变_53"/><linearGradient id="未命名的渐变_53-4" x1="389.5" x2="389.5" xlink:href="#未命名的渐变_53"/><linearGradient id="未命名的渐变_68" x1="93" y1="274.5" x2="148" y2="274.5" gradientUnits="userSpaceOnUse"><stop offset="0" stop-color="#404040"/><stop offset="1" stop-color="#5e5e5e"/></linearGradient><linearGradient id="未命名的渐变_68-2" x1="182.67" x2="237.67" xlink:href="#未命名的渐变_68"/><linearGradient id="未命名的渐变_68-3" x1="272.33" x2="327.33" xlink:href="#未命名的渐变_68"/><linearGradient id="未命名的渐变_68-4" x1="362" x2="417" xlink:href="#未命名的渐变_68"/><linearGradient id="未命名的渐变_53-5" x1="164" y1="292" x2="164" y2="440" xlink:href="#未命名的渐变_53"/><linearGradient id="未命名的渐变_53-6" x1="-18" y1="292" x2="-18" y2="440" gradientTransform="matrix(-1, 0, 0, 1, 328, 0)" xlink:href="#未命名的渐变_53"/><linearGradient id="未命名的渐变_235-4" x1="256.63" y1="135" x2="256.63" y2="108" xlink:href="#未命名的渐变_235"/></defs><title>设备图标汇总</title><rect class="cls-1" x="46" y="200" width="416" height="10"/><rect class="cls-2" x="46" y="242" width="416" height="9"/><rect class="cls-3" x="66" y="212" width="380" height="28"/><polygon class="cls-4" points="84.33 144 93.33 144 93.33 185 84.33 185 84.33 194 161.33 194 161.33 185 152.33 185 152.33 144 161.33 144 161.33 135 84.33 135 84.33 144"/><polygon class="cls-5" points="173.22 144 182.22 144 182.22 185 173.22 185 173.22 194 250.22 194 250.22 185 241.22 185 241.22 144 250.22 144 250.22 135 173.22 135 173.22 144"/><polygon class="cls-6" points="262.11 144 271.11 144 271.11 185 262.11 185 262.11 194 339.11 194 339.11 185 330.11 185 330.11 144 339.11 144 339.11 135 262.11 135 262.11 144"/><polygon class="cls-7" points="428 144 428 135 351 135 351 144 360 144 360 185 351 185 351 194 428 194 428 185 419 185 419 144 428 144"/><polygon class="cls-8" points="142 298 99 298 93 251 148 251 142 298"/><polygon class="cls-9" points="231.67 298 188.67 298 182.67 251 237.67 251 231.67 298"/><polygon class="cls-10" points="321.33 298 278.33 298 272.33 251 327.33 251 321.33 298"/><polygon class="cls-11" points="411 298 368 298 362 251 417 251 411 298"/><path class="cls-12" d="M254,292H74V365A250.24,250.24,0,0,0,253,440h1Z"/><path class="cls-13" d="M256,292H436V365A250.24,250.24,0,0,1,257,440h-1Z"/><polygon class="cls-14" points="265.25 472 265.25 251 243.25 251 243.25 472 232.75 472 232.75 481 275.75 481 275.75 472 265.25 472"/><polygon class="cls-14" points="63.25 251 63.25 446 53 446 53 455 63.25 455 76 455 76 446 76 251 63.25 251"/><polygon class="cls-14" points="446.75 251 446.75 446 457 446 457 455 446.75 455 434 455 434 446 434 251 446.75 251"/><path class="cls-15" d="M130,135v-5.09c0-6.55,5.09-11.91,11.31-11.91H207v17h10V118h78v17h10V118h66.93c6.22,0,11.31,5.36,11.31,11.91V135h10v-6.07c0-11.51-8.93-20.93-19.85-20.93H139.85c-10.92,0-19.85,9.42-19.85,20.93V135Z"/></svg>