<svg id="图层_1" data-name="图层 1" xmlns="http://www.w3.org/2000/svg" xmlns:xlink="http://www.w3.org/1999/xlink" viewBox="0 0 957 512"><defs><style>.cls-1{fill:url(#未命名的渐变_52);}.cls-2{fill:url(#未命名的渐变_52-2);}.cls-3{fill:url(#未命名的渐变_53);}.cls-4{fill:#999;}.cls-5{fill:#e6e6e6;}</style><linearGradient id="未命名的渐变_52" x1="73" y1="265" x2="73" y2="310" gradientUnits="userSpaceOnUse"><stop offset="0" stop-color="#737373"/><stop offset="1" stop-color="#4d4d4d"/></linearGradient><linearGradient id="未命名的渐变_52-2" x1="1561" x2="1561" gradientTransform="matrix(-1, 0, 0, 1, 2452, 0)" xlink:href="#未命名的渐变_52"/><linearGradient id="未命名的渐变_53" x1="482" y1="289.15" x2="482" y2="193.9" gradientUnits="userSpaceOnUse"><stop offset="0" stop-color="#787878"/><stop offset="1" stop-color="#595959"/></linearGradient></defs><title>设备图标汇总</title><polygon class="cls-1" points="119 310 27 310 27 265 42.17 265 41.98 293 119 293 119 310"/><polygon class="cls-2" points="845 310 937 310 937 265 921.83 265 922.02 293 845 293 845 310"/><rect class="cls-3" x="46" y="193.9" width="872" height="95.25"/><rect class="cls-4" x="462" y="-131.01" width="40.99" height="744.99" transform="translate(239.67 723.3) rotate(-89.84)"/><path class="cls-5" d="M112.05,222,853,224l-.1,37L112,259l.1-37m-4-4-.12,45,749,2.08.12-45-749-2.09Z"/><rect class="cls-4" x="93.51" y="227.59" width="28.49" height="27.78" transform="translate(-139.2 146.92) rotate(-45)"/><path class="cls-5" d="M108,224.42l16.81,16.81L107.5,258.55,90.69,241.73,108,224.42m0-5.66-23,23L107.5,264.2l23-23L108,218.76Z"/><rect class="cls-4" x="842.51" y="227.59" width="28.49" height="27.78" transform="translate(80.19 676.55) rotate(-45)"/><path class="cls-5" d="M857,224.42l16.81,16.81L856.5,258.55l-16.81-16.82L857,224.42m0-5.66-23,23L856.5,264.2l23-23L857,218.76Z"/></svg>