<svg id="图层_1" data-name="图层 1" xmlns="http://www.w3.org/2000/svg" xmlns:xlink="http://www.w3.org/1999/xlink" viewBox="0 0 2048 512"><defs><style>.cls-1{fill:url(#未命名的渐变_16);}.cls-2{fill:#777;}.cls-3{fill:url(#未命名的渐变_30);}.cls-4{fill:#06c641;}</style><linearGradient id="未命名的渐变_16" x1="1023.5" y1="231" x2="1023.5" y2="295" gradientUnits="userSpaceOnUse"><stop offset="0" stop-color="#ddd"/><stop offset="1" stop-color="#929292"/></linearGradient><linearGradient id="未命名的渐变_30" x1="1876.5" y1="243" x2="1876.5" y2="282" gradientUnits="userSpaceOnUse"><stop offset="0" stop-color="#858585"/><stop offset="1" stop-color="#595959"/></linearGradient></defs><title>设备图标汇总</title><path class="cls-1" d="M152.5,295a32,32,0,0,1,0-64h1742a32,32,0,0,1,0,64Z"/><path class="cls-2" d="M1894.5,234a29,29,0,0,1,0,58H152.5a29,29,0,0,1,0-58h1742m0-6H152.5a35,35,0,0,0,0,70h1742a35,35,0,0,0,0-70Z"/><circle class="cls-3" cx="1876.5" cy="262.5" r="19.5"/><circle class="cls-4" cx="171.5" cy="262.5" r="19.5"/></svg>