<svg id="图层_1" data-name="图层 1" xmlns="http://www.w3.org/2000/svg" xmlns:xlink="http://www.w3.org/1999/xlink" viewBox="0 0 1810 897"><defs><style>.cls-1,.cls-2,.cls-3{fill:#4d4d4d;}.cls-1,.cls-2,.cls-7,.cls-8{stroke:#4d4d4d;}.cls-1,.cls-11,.cls-2,.cls-7,.cls-8{stroke-miterlimit:10;}.cls-1,.cls-11,.cls-8{stroke-width:10px;}.cls-2{stroke-width:7.45px;}.cls-4{fill:url(#未命名的渐变_238);}.cls-5{fill:#666;}.cls-6{fill:url(#未命名的渐变_240);}.cls-7{fill:none;stroke-width:4px;}.cls-8{fill:url(#未命名的渐变_248);}.cls-9{fill:url(#未命名的渐变_52);}.cls-10{fill:url(#未命名的渐变_52-2);}.cls-11{fill:#e6e6e6;stroke:#666;}</style><linearGradient id="未命名的渐变_238" x1="874.55" y1="249" x2="874.55" y2="721" gradientUnits="userSpaceOnUse"><stop offset="0" stop-color="#b0b0b0"/><stop offset="1" stop-color="#737373"/></linearGradient><linearGradient id="未命名的渐变_240" x1="630.05" y1="723" x2="1119.05" y2="723" gradientUnits="userSpaceOnUse"><stop offset="0" stop-color="#575757"/><stop offset="1" stop-color="#4d4d4d"/></linearGradient><linearGradient id="未命名的渐变_248" x1="874.55" y1="517" x2="874.55" y2="183.5" gradientUnits="userSpaceOnUse"><stop offset="0" stop-color="#9c9c9c"/><stop offset="0.47" stop-color="#b8b8b8"/><stop offset="0.99" stop-color="#d4d4d4"/></linearGradient><linearGradient id="未命名的渐变_52" x1="1654" y1="388.5" x2="1699" y2="388.5" gradientUnits="userSpaceOnUse"><stop offset="0" stop-color="#737373"/><stop offset="1" stop-color="#4d4d4d"/></linearGradient><linearGradient id="未命名的渐变_52-2" x1="1736" y1="363.25" x2="1750" y2="363.25" xlink:href="#未命名的渐变_52"/></defs><title>设备图标汇总</title><rect class="cls-1" x="847.69" y="148" width="54" height="98" rx="27"/><path class="cls-2" d="M776,204V163a15,15,0,0,1,15-15h0a15,15,0,0,1,15,15v41Z"/><path class="cls-2" d="M939.5,204.5v-41a15,15,0,0,1,15-15h0a15,15,0,0,1,15,15v41Z"/><rect class="cls-3" x="865.05" y="91" width="19" height="68" rx="9.5"/><polygon class="cls-4" points="822.64 721 822.43 645.92 104.05 575.93 104.05 249 1645.05 249 1645.05 575.92 919.93 645.92 920 721 822.64 721"/><path class="cls-5" d="M1635.05,259V566.84L928,635.09l-18.09,1.75V655l0,56H832.61l-.15-56.06-.05-18.09-18-1.76L114.05,566.85V259h1521m20-20H94.05V585l718.41,70,.21,76H930l-.07-76,725.11-70V239Z"/><rect class="cls-6" x="630.05" y="692" width="489" height="62"/><rect class="cls-3" x="136.44" y="488.29" width="100" height="14" rx="7" transform="translate(-324.53 633.08) rotate(-84.46)"/><rect class="cls-3" x="184.21" y="492.92" width="100" height="14" rx="7" transform="translate(-285.97 684.82) rotate(-84.46)"/><rect class="cls-7" x="161.54" y="503.5" width="97.5" height="25" transform="translate(50.75 -17.88) rotate(5.54)"/><rect class="cls-3" x="249.9" y="499.29" width="100" height="14" rx="7" transform="translate(-232.95 755.96) rotate(-84.46)"/><rect class="cls-3" x="297.68" y="503.92" width="100" height="14" rx="7" transform="translate(-194.39 807.69) rotate(-84.46)"/><rect class="cls-7" x="275.01" y="514.49" width="97.5" height="25" transform="translate(52.34 -28.77) rotate(5.54)"/><rect class="cls-3" x="363.37" y="510.28" width="100" height="14" rx="7" transform="translate(-141.37 878.83) rotate(-84.46)"/><rect class="cls-3" x="411.15" y="514.91" width="100" height="14" rx="7" transform="translate(-102.81 930.57) rotate(-84.46)"/><rect class="cls-7" x="388.48" y="525.49" width="97.5" height="25" transform="translate(53.93 -39.67) rotate(5.54)"/><rect class="cls-3" x="476.84" y="521.28" width="100" height="14" rx="7" transform="translate(-49.79 1001.71) rotate(-84.46)"/><rect class="cls-3" x="524.62" y="525.91" width="100" height="14" rx="7" transform="translate(-11.23 1053.44) rotate(-84.46)"/><rect class="cls-7" x="501.95" y="536.48" width="97.5" height="25" transform="translate(55.52 -50.56) rotate(5.54)"/><rect class="cls-3" x="590.31" y="532.28" width="100" height="14" rx="7" transform="translate(41.79 1124.58) rotate(-84.46)"/><rect class="cls-3" x="638.09" y="536.91" width="100" height="14" rx="7" transform="translate(80.35 1176.32) rotate(-84.46)"/><rect class="cls-7" x="615.41" y="547.48" width="97.5" height="25" transform="translate(57.11 -61.45) rotate(5.54)"/><rect class="cls-3" x="703.78" y="543.27" width="100" height="14" rx="7" transform="translate(133.37 1247.46) rotate(-84.46)"/><rect class="cls-3" x="751.55" y="547.9" width="100" height="14" rx="7" transform="translate(171.92 1299.19) rotate(-84.46)"/><rect class="cls-7" x="728.88" y="558.48" width="97.5" height="25" transform="translate(58.7 -72.35) rotate(5.54)"/><rect class="cls-3" x="159.12" y="498.1" width="672" height="10" transform="translate(50.84 -45.41) rotate(5.54)"/><rect class="cls-3" x="1548.16" y="445.29" width="14" height="100" rx="7" transform="translate(-40.52 152.32) rotate(-5.54)"/><rect class="cls-3" x="1500.39" y="449.92" width="14" height="100" rx="7" transform="translate(-41.19 147.73) rotate(-5.54)"/><rect class="cls-7" x="1486.56" y="503.5" width="97.5" height="25" transform="translate(3113.23 881.49) rotate(174.46)"/><rect class="cls-3" x="1434.7" y="456.29" width="14" height="100" rx="7" transform="translate(-42.11 141.42) rotate(-5.54)"/><rect class="cls-3" x="1386.92" y="460.92" width="14" height="100" rx="7" transform="translate(-42.78 136.84) rotate(-5.54)"/><rect class="cls-7" x="1373.09" y="514.49" width="97.5" height="25" transform="translate(2887.88 914.38) rotate(174.46)"/><rect class="cls-3" x="1321.23" y="467.28" width="14" height="100" rx="7" transform="translate(-43.7 130.53) rotate(-5.54)"/><rect class="cls-3" x="1273.45" y="471.91" width="14" height="100" rx="7" transform="translate(-44.37 125.94) rotate(-5.54)"/><rect class="cls-7" x="1259.62" y="525.49" width="97.5" height="25" transform="translate(2662.54 947.27) rotate(174.46)"/><rect class="cls-3" x="1207.76" y="478.28" width="14" height="100" rx="7" transform="translate(-45.29 119.64) rotate(-5.54)"/><rect class="cls-3" x="1159.98" y="482.91" width="14" height="100" rx="7" transform="translate(-45.96 115.05) rotate(-5.54)"/><rect class="cls-7" x="1146.15" y="536.48" width="97.5" height="25" transform="translate(2437.19 980.15) rotate(174.46)"/><rect class="cls-3" x="1094.29" y="489.28" width="14" height="100" rx="7" transform="translate(-46.88 108.74) rotate(-5.54)"/><rect class="cls-3" x="1046.51" y="493.91" width="14" height="100" rx="7" transform="translate(-47.55 104.16) rotate(-5.54)"/><rect class="cls-7" x="1032.69" y="547.48" width="97.5" height="25" transform="translate(2211.84 1013.04) rotate(174.46)"/><rect class="cls-3" x="980.82" y="500.27" width="14" height="100" rx="7" transform="translate(-48.47 97.85) rotate(-5.54)"/><rect class="cls-3" x="933.05" y="504.9" width="14" height="100" rx="7" transform="translate(-49.14 93.26) rotate(-5.54)"/><rect class="cls-7" x="919.22" y="558.48" width="97.5" height="25" transform="translate(1986.5 1045.92) rotate(174.46)"/><rect class="cls-3" x="910.48" y="498.1" width="672" height="10" transform="translate(2535.67 883.63) rotate(174.46)"/><rect class="cls-3" x="355.55" y="483" width="1034" height="10"/><rect class="cls-5" x="110.05" y="322" width="1525" height="10"/><rect class="cls-5" x="160.05" y="286" width="1425" height="10"/><rect class="cls-8" x="847.55" y="183.5" width="54" height="333.5"/><rect class="cls-3" x="713.55" y="188.5" width="318" height="26"/><rect class="cls-5" x="741.5" y="212" width="12" height="111"/><rect class="cls-5" x="993" y="212" width="12" height="111"/><rect class="cls-5" x="57" y="350" width="45" height="65"/><rect class="cls-9" x="1654" y="362" width="45" height="53"/><rect class="cls-10" x="1736" y="325.25" width="14" height="76" rx="7"/><rect class="cls-5" x="160" y="296" width="10" height="27"/><rect class="cls-5" x="1575" y="296" width="10" height="27"/><rect class="cls-11" x="725.5" y="280.5" width="298" height="125"/><path class="cls-5" d="M1736,386.75H896.5a23.5,23.5,0,0,1-23.5-23.5h0a23.5,23.5,0,0,1,23.5-23.5H1736Z"/></svg>