<svg id="图层_1" data-name="图层 1" xmlns="http://www.w3.org/2000/svg" xmlns:xlink="http://www.w3.org/1999/xlink" viewBox="0 0 512 512"><defs><style>.cls-1{fill:url(#未命名的渐变_53);}.cls-2{fill:#666;}.cls-3{fill:url(#未命名的渐变_53-2);}.cls-4{fill:url(#未命名的渐变_53-3);}</style><linearGradient id="未命名的渐变_53" x1="320" y1="190" x2="320" y2="338" gradientUnits="userSpaceOnUse"><stop offset="0" stop-color="#787878"/><stop offset="1" stop-color="#595959"/></linearGradient><linearGradient id="未命名的渐变_53-2" x1="698.57" y1="436.79" x2="729.57" y2="436.79" gradientTransform="translate(612.29 -475.07) rotate(90)" xlink:href="#未命名的渐变_53"/><linearGradient id="未命名的渐变_53-3" x1="3568.59" y1="-2482.71" x2="3646.5" y2="-2463.99" gradientTransform="matrix(-0.23, 0.97, 0.97, 0.23, 3329.84, -2701.52)" xlink:href="#未命名的渐变_53"/></defs><title>设备图标汇总</title><polygon class="cls-1" points="481 300 472 338 456 334 249 314 178 294 159 274 178 193 203 190 276 208 466 296 481 300"/><rect class="cls-2" x="226.69" y="194.32" width="9.27" height="119" transform="translate(65.71 -47.03) rotate(13.51)"/><rect class="cls-2" x="147.63" y="189.81" width="9.46" height="85.27" transform="translate(58.53 -29.17) rotate(13.51)"/><rect class="cls-2" x="424.36" y="273.84" width="7" height="62.2" transform="translate(83.1 -91.54) rotate(13.51)"/><rect class="cls-3" x="111.5" y="223.5" width="128" height="31" transform="translate(-97.89 353.79) rotate(-76.49)"/><path class="cls-4" d="M38.54,260.12S60.06,182,149.89,206.25L138,255s-43.79-21.81-55.27,26.85Z"/></svg>