<svg id="图层_1" data-name="图层 1" xmlns="http://www.w3.org/2000/svg" xmlns:xlink="http://www.w3.org/1999/xlink" viewBox="0 0 512 512"><defs><style>.cls-1{fill:url(#未命名的渐变_131);}.cls-2{fill:url(#未命名的渐变_137);}.cls-3{fill:url(#未命名的渐变_144);}.cls-4{fill:url(#未命名的渐变_137-2);}.cls-5{fill:url(#未命名的渐变_144-2);}.cls-6{fill:url(#未命名的渐变_144-3);}.cls-7{fill:#fff;}.cls-8{fill:#666;}.cls-9{fill:#b3b3b3;}</style><linearGradient id="未命名的渐变_131" x1="113" y1="204.5" x2="417" y2="204.5" gradientUnits="userSpaceOnUse"><stop offset="0" stop-color="#4f4f4f"/><stop offset="0.08" stop-color="#5d5d5d"/><stop offset="0.24" stop-color="#838383"/><stop offset="0.46" stop-color="silver"/><stop offset="0.51" stop-color="#cfcfcf"/><stop offset="0.63" stop-color="#a8a8a8"/><stop offset="0.8" stop-color="#787878"/><stop offset="0.93" stop-color="#5a5a5a"/><stop offset="1" stop-color="#4f4f4f"/></linearGradient><linearGradient id="未命名的渐变_137" x1="113" y1="367.5" x2="265" y2="367.5" gradientUnits="userSpaceOnUse"><stop offset="0" stop-color="#424242"/><stop offset="0.09" stop-color="#505050"/><stop offset="0.25" stop-color="#767676"/><stop offset="0.47" stop-color="#b3b3b3"/><stop offset="0.51" stop-color="#bdbdbd"/><stop offset="0.62" stop-color="#9b9b9b"/><stop offset="0.79" stop-color="#6b6b6b"/><stop offset="0.92" stop-color="#4d4d4d"/><stop offset="1" stop-color="#424242"/></linearGradient><linearGradient id="未命名的渐变_144" x1="155.11" y1="414" x2="222.39" y2="414" gradientUnits="userSpaceOnUse"><stop offset="0" stop-color="#333"/><stop offset="0.15" stop-color="#363636"/><stop offset="0.24" stop-color="#3f3f3f"/><stop offset="0.33" stop-color="#4e4e4e"/><stop offset="0.4" stop-color="#636363"/><stop offset="0.47" stop-color="#7e7e7e"/><stop offset="0.51" stop-color="#919191"/><stop offset="0.59" stop-color="#757575"/><stop offset="0.69" stop-color="#585858"/><stop offset="0.8" stop-color="#434343"/><stop offset="0.9" stop-color="#373737"/><stop offset="1" stop-color="#333"/></linearGradient><linearGradient id="未命名的渐变_137-2" x1="265" x2="417" xlink:href="#未命名的渐变_137"/><linearGradient id="未命名的渐变_144-2" x1="307.36" x2="374.64" xlink:href="#未命名的渐变_144"/><linearGradient id="未命名的渐变_144-3" x1="113" y1="322" x2="417" y2="322" xlink:href="#未命名的渐变_144"/></defs><title>设备图标汇总</title><rect class="cls-1" x="113" y="91" width="304" height="227"/><polygon class="cls-2" points="220 408.75 158 408.75 113 326.25 265 326.25 220 408.75"/><rect class="cls-3" x="155.11" y="409" width="67.27" height="10"/><polygon class="cls-4" points="372 408.75 310 408.75 265 326.25 417 326.25 372 408.75"/><rect class="cls-5" x="307.36" y="409" width="67.27" height="10"/><rect class="cls-6" x="113" y="318" width="304" height="8"/><rect class="cls-7" x="169.75" y="116" width="40" height="293"/><rect class="cls-8" x="169.75" y="173" width="40" height="236"/><rect class="cls-9" x="170.49" y="405" width="19.14" height="4"/><rect class="cls-9" x="170.49" y="333" width="19.14" height="4"/><rect class="cls-9" x="170.49" y="261" width="19.14" height="4"/><rect class="cls-9" x="170.49" y="189" width="19.14" height="4"/><rect class="cls-9" x="170.49" y="117" width="19.14" height="4"/></svg>