<svg id="图层_1" data-name="图层 1" xmlns="http://www.w3.org/2000/svg" xmlns:xlink="http://www.w3.org/1999/xlink" viewBox="0 0 512 512"><defs><style>.cls-1{fill:url(#未命名的渐变_52);}.cls-2{fill:url(#未命名的渐变_52-2);}.cls-3{fill:url(#未命名的渐变_53);}.cls-4{fill:#999;}.cls-5{fill:#e6e6e6;}</style><linearGradient id="未命名的渐变_52" x1="64" y1="265" x2="64" y2="310" gradientUnits="userSpaceOnUse"><stop offset="0" stop-color="#737373"/><stop offset="1" stop-color="#4d4d4d"/></linearGradient><linearGradient id="未命名的渐变_52-2" x1="-320" x2="-320" gradientTransform="matrix(-1, 0, 0, 1, 126, 0)" xlink:href="#未命名的渐变_52"/><linearGradient id="未命名的渐变_53" x1="255" y1="289.15" x2="255" y2="193.9" gradientUnits="userSpaceOnUse"><stop offset="0" stop-color="#787878"/><stop offset="1" stop-color="#595959"/></linearGradient></defs><title>设备图标汇总</title><polygon class="cls-1" points="110 310 18 310 18 265 33.17 265 32.98 293 110 293 110 310"/><polygon class="cls-2" points="400 310 492 310 492 265 476.83 265 477.02 293 400 293 400 310"/><rect class="cls-3" x="37" y="193.9" width="436" height="95.25"/><rect class="cls-4" x="230.5" y="82.53" width="40.99" height="318" transform="translate(8.77 491.85) rotate(-89.84)"/><path class="cls-5" d="M94.05,222.6l314,.87-.1,37-314-.87.11-37m-4-4-.13,45,322,.89.12-45-322-.9Z"/><rect class="cls-4" x="75.51" y="227.64" width="28.49" height="27.78" transform="translate(-144.5 134.21) rotate(-45)"/><path class="cls-5" d="M90,224.47l16.81,16.81L89.5,258.59,72.69,241.78,90,224.47m0-5.66-23,23L89.5,264.25l23-23L90,218.81Z"/><rect class="cls-4" x="397.51" y="227.64" width="28.49" height="27.78" transform="translate(-50.19 361.9) rotate(-45)"/><path class="cls-5" d="M412,224.47l16.81,16.81L411.5,258.59l-16.81-16.81L412,224.47m0-5.66-23,23,22.47,22.47,23-23L412,218.81Z"/></svg>