<svg id="图层_1" data-name="图层 1" xmlns="http://www.w3.org/2000/svg" xmlns:xlink="http://www.w3.org/1999/xlink" viewBox="0 0 512 512"><defs><style>.cls-1{fill:url(#未命名的渐变_71);}.cls-2{fill:#aaa;}.cls-3{fill:url(#未命名的渐变_75);}.cls-4{fill:url(#未命名的渐变_75-2);}.cls-5{fill:url(#未命名的渐变_75-3);}.cls-6{fill:url(#未命名的渐变_75-4);}</style><linearGradient id="未命名的渐变_71" x1="415.07" y1="141.26" x2="146.47" y2="366.64" gradientUnits="userSpaceOnUse"><stop offset="0" stop-color="#b3b3b3"/><stop offset="0.6" stop-color="#828282"/><stop offset="0.99" stop-color="#666"/></linearGradient><linearGradient id="未命名的渐变_75" x1="148.1" y1="157.24" x2="198.66" y2="157.24" gradientUnits="userSpaceOnUse"><stop offset="0" stop-color="#a3a3a3"/><stop offset="1" stop-color="#5e5e5e"/></linearGradient><linearGradient id="未命名的渐变_75-2" x1="125.36" y1="177.5" x2="158.52" y2="177.5" xlink:href="#未命名的渐变_75"/><linearGradient id="未命名的渐变_75-3" x1="147.81" y1="194.35" x2="198.44" y2="194.35" xlink:href="#未命名的渐变_75"/><linearGradient id="未命名的渐变_75-4" x1="153.65" y1="177.75" x2="170.28" y2="177.75" xlink:href="#未命名的渐变_75"/></defs><title>设备图标汇总</title><path class="cls-1" d="M352,88l36,21s28,220-198,298l-34-29Z"/><rect class="cls-2" x="55.54" y="202.8" width="329" height="11" transform="translate(-76.19 271.99) rotate(-55.56)"/><path class="cls-2" d="M323.37,79.69,137.33,351l18.15,12.44,186-271.34ZM189,301a6,6,0,1,1,6-6A6,6,0,0,1,189,301Zm52-72a9,9,0,1,1,9-9A9,9,0,0,1,241,229Zm52-79a6,6,0,1,1,6-6A6,6,0,0,1,293,150Z"/><rect class="cls-2" x="244" y="399" width="97" height="10"/><path class="cls-2" d="M244,439.44V331a12,12,0,0,0-24,0V439.44c-2.48,1.59-4,3.68-4,6h32C248,443.12,246.48,441,244,439.44Z"/><path class="cls-2" d="M365,439.44V158a12,12,0,0,0-24,0V439.44c-2.48,1.59-4,3.68-4,6h32C369,443.12,367.48,441,365,439.44Z"/><path class="cls-3" d="M153.42,168.55l-5.32-24.83S188,129.53,198.66,173c0,0-13.9-8.44-29.45-8.24A34.82,34.82,0,0,0,153.42,168.55Z"/><path class="cls-4" d="M158.52,189.68l-18.84,17s-32.25-27.47.07-58.41c0,0-.36,16.26,7.59,29.61A34.71,34.71,0,0,0,158.52,189.68Z"/><path class="cls-5" d="M174.27,174.7l24.17,7.81s-7.67,41.66-50.63,29.15c0,0,14.26-7.82,21.85-21.39A34.74,34.74,0,0,0,174.27,174.7Z"/><circle class="cls-6" cx="161.96" cy="177.75" r="8.32"/></svg>