<svg id="图层_1" data-name="图层 1" xmlns="http://www.w3.org/2000/svg" xmlns:xlink="http://www.w3.org/1999/xlink" viewBox="0 0 512 512"><defs><style>.cls-1{fill:#666;}.cls-2{fill:url(#未命名的渐变_52);}.cls-3{fill:url(#未命名的渐变_52-2);}.cls-4{fill:url(#未命名的渐变_53);}.cls-5{fill:url(#未命名的渐变_53-2);}.cls-6{fill:url(#未命名的渐变_53-3);}.cls-7{fill:url(#未命名的渐变_52-3);}.cls-8{fill:url(#未命名的渐变_87);}.cls-9{fill:url(#未命名的渐变_87-2);}.cls-10{fill:url(#未命名的渐变_53-4);}.cls-11{fill:url(#未命名的渐变_53-5);}.cls-12{fill:url(#未命名的渐变_120);}.cls-13{fill:url(#未命名的渐变_114);}</style><linearGradient id="未命名的渐变_52" x1="137.46" y1="372.3" x2="156.1" y2="372.3" gradientTransform="translate(455.82 118.04) rotate(72.07)" gradientUnits="userSpaceOnUse"><stop offset="0" stop-color="#737373"/><stop offset="1" stop-color="#4d4d4d"/></linearGradient><linearGradient id="未命名的渐变_52-2" x1="227.66" y1="382.02" x2="283.79" y2="382.02" gradientTransform="matrix(1, 0, 0, 1, 0, 0)" xlink:href="#未命名的渐变_52"/><linearGradient id="未命名的渐变_53" x1="225.26" y1="292.1" x2="225.26" y2="380.82" gradientUnits="userSpaceOnUse"><stop offset="0" stop-color="#787878"/><stop offset="1" stop-color="#595959"/></linearGradient><linearGradient id="未命名的渐变_53-2" x1="669.49" y1="367.63" x2="688.08" y2="367.63" gradientTransform="translate(506.27 -357.31) rotate(90)" xlink:href="#未命名的渐变_53"/><linearGradient id="未命名的渐变_53-3" x1="2833.17" y1="-1806.54" x2="2879.88" y2="-1795.31" gradientTransform="matrix(-0.23, 0.97, 0.97, 0.23, 2498.63, -2043.58)" xlink:href="#未命名的渐变_53"/><linearGradient id="未命名的渐变_52-3" x1="209.98" y1="385.02" x2="209.98" y2="394.61" gradientTransform="matrix(1, 0, 0, 1, 0, 0)" xlink:href="#未命名的渐变_52"/><linearGradient id="未命名的渐变_87" x1="146.43" y1="394.61" x2="146.43" y2="403" gradientUnits="userSpaceOnUse"><stop offset="0" stop-color="#616161"/><stop offset="1" stop-color="#404040"/></linearGradient><linearGradient id="未命名的渐变_87-2" x1="274.12" y1="394.61" x2="274.12" xlink:href="#未命名的渐变_87"/><linearGradient id="未命名的渐变_53-4" x1="128.53" y1="107.65" x2="437.53" y2="107.65" gradientTransform="translate(392.88 -49.75) rotate(90)" xlink:href="#未命名的渐变_53"/><linearGradient id="未命名的渐变_53-5" x1="443.92" y1="114.39" x2="480.92" y2="114.39" gradientTransform="translate(-15.31 196.48)" xlink:href="#未命名的渐变_53"/><linearGradient id="未命名的渐变_120" x1="133.36" y1="178.1" x2="106.03" y2="116.68" gradientTransform="matrix(0.91, 0.41, -0.41, 0.91, 71.35, -29.71)" gradientUnits="userSpaceOnUse"><stop offset="0" stop-color="#404040"/><stop offset="0.24" stop-color="#4e4e4e"/><stop offset="0.53" stop-color="#565656"/><stop offset="1" stop-color="#595959"/></linearGradient><linearGradient id="未命名的渐变_114" x1="114.46" y1="92" x2="114.46" y2="120.5" gradientUnits="userSpaceOnUse"><stop offset="0" stop-color="#8c8c8c"/><stop offset="1" stop-color="#595959"/></linearGradient></defs><title>设备图标汇总</title><rect class="cls-1" x="172" y="243" width="30" height="68"/><rect class="cls-2" x="129.97" y="367.94" width="33.61" height="8.72" transform="translate(-252.63 397.34) rotate(-72.07)"/><polygon class="cls-3" points="279.81 393.41 283.79 385.32 257.03 373.63 227.66 370.63 279.81 393.41"/><polygon class="cls-4" points="321.77 358.04 316.38 380.82 306.79 378.42 182.7 366.43 140.14 354.44 128.75 342.45 140.14 293.9 155.13 292.1 198.89 302.89 312.78 355.64 321.77 358.04"/><rect class="cls-1" x="169.33" y="294.69" width="5.56" height="71.34" transform="translate(81.96 -31.07) rotate(13.51)"/><rect class="cls-1" x="121.94" y="291.99" width="5.67" height="51.11" transform="translate(77.65 -20.36) rotate(13.51)"/><rect class="cls-1" x="287.82" y="342.36" width="4.2" height="37.29" transform="translate(92.38 -57.75) rotate(13.51)"/><rect class="cls-5" x="100.28" y="312.18" width="76.73" height="18.58" transform="translate(-206.33 381.16) rotate(-76.49)"/><path class="cls-6" d="M56.54,334.14s12.9-46.85,66.75-32.3l-7.13,29.23S89.91,318,83,347.16Z"/><rect class="cls-7" x="131.75" y="385.02" width="156.46" height="9.59"/><rect class="cls-8" x="136.54" y="394.61" width="19.78" height="8.39"/><rect class="cls-9" x="264.23" y="394.61" width="19.78" height="8.39"/><rect class="cls-10" x="220.23" y="78.78" width="130" height="309" rx="3.03" transform="translate(-42.32 402.08) rotate(-66.54)"/><rect class="cls-11" x="428.61" y="288.37" width="37" height="45" rx="2.36" transform="translate(160.7 -152.29) rotate(23.46)"/><rect class="cls-1" x="161.25" y="205.05" width="137.08" height="8" transform="translate(-53.45 336.64) rotate(-66.54)"/><rect class="cls-1" x="272.25" y="253.21" width="137.08" height="8" transform="translate(-30.82 467.46) rotate(-66.54)"/><polygon class="cls-12" points="134 140.66 134.21 120 94 120.39 94.35 156 128.21 185.26 132.19 187.23 147.59 152.88 134 140.66"/><rect class="cls-1" x="93" y="118" width="41.96" height="6" rx="2.51"/><polygon class="cls-13" points="133.69 120.5 95.24 120.5 77.04 92 151.88 92 133.69 120.5"/></svg>