<svg id="图层_1" data-name="图层 1" xmlns="http://www.w3.org/2000/svg" xmlns:xlink="http://www.w3.org/1999/xlink" viewBox="0 0 512 512"><defs><style>.cls-1{fill:url(#未命名的渐变_42);}.cls-2{fill:url(#未命名的渐变_42-2);}.cls-3{fill:#898989;}.cls-4{fill:#adadad;}.cls-5{fill:#6d6d6d;}.cls-6{fill:url(#未命名的渐变_4);}.cls-7{fill:#4d4d4d;}.cls-8{fill:url(#未命名的渐变_4-2);}.cls-9{fill:url(#未命名的渐变_33);}.cls-10{fill:#999;stroke:#545454;stroke-miterlimit:10;stroke-width:3.42px;}.cls-11{fill:#ccc;}.cls-12{fill:url(#未命名的渐变_33-2);}</style><linearGradient id="未命名的渐变_42" x1="51" y1="257" x2="74" y2="257" gradientUnits="userSpaceOnUse"><stop offset="0" stop-color="#757575"/><stop offset="1" stop-color="#595959"/></linearGradient><linearGradient id="未命名的渐变_42-2" x1="464" x2="441" xlink:href="#未命名的渐变_42"/><linearGradient id="未命名的渐变_4" x1="153.93" y1="230.46" x2="93.19" y2="230.46" gradientUnits="userSpaceOnUse"><stop offset="0" stop-color="#adadad"/><stop offset="1" stop-color="#6e6e6e"/></linearGradient><linearGradient id="未命名的渐变_4-2" x1="-38.1" y1="230.46" x2="-98.85" y2="230.46" gradientTransform="matrix(-1, 0, 0, 1, 322.55, 0)" xlink:href="#未命名的渐变_4"/><radialGradient id="未命名的渐变_33" cx="332.3" cy="249.5" r="80.18" gradientUnits="userSpaceOnUse"><stop offset="0" stop-color="#919191"/><stop offset="0.01" stop-color="#8f8f8f"/><stop offset="0.2" stop-color="#6d6d6d"/><stop offset="0.39" stop-color="#525252"/><stop offset="0.59" stop-color="#3f3f3f"/><stop offset="0.79" stop-color="#343434"/><stop offset="1" stop-color="#303030"/></radialGradient><radialGradient id="未命名的渐变_33-2" cx="187.05" cy="249.5" r="80.18" xlink:href="#未命名的渐变_33"/></defs><title>设备图标汇总</title><rect class="cls-1" x="51" y="182" width="23" height="150"/><rect class="cls-2" x="441" y="182" width="23" height="150"/><polygon class="cls-3" points="91.19 186.26 91.55 332.22 150.74 332.22 176.99 370.37 333.6 370.37 359.84 332.22 419.04 332.22 419.4 186.26 91.19 186.26"/><rect class="cls-4" x="23.29" y="169.11" width="52.41" height="14"/><rect class="cls-4" x="23.29" y="278.84" width="52.41" height="14"/><rect class="cls-4" x="23.29" y="331.4" width="52.41" height="14"/><rect class="cls-4" x="66.17" y="169.11" width="14.29" height="176.28"/><polygon class="cls-5" points="112.63 331.58 82.85 345.4 82.85 169.11 112.63 186.94 112.63 331.58"/><polygon class="cls-6" points="93.19 195.32 102.71 195.32 153.93 241.77 153.93 265.59 93.19 265.59 93.19 195.32"/><rect class="cls-7" x="91.19" y="195.32" width="2.38" height="70.28"/><rect class="cls-4" x="434.88" y="169.11" width="52.41" height="14"/><rect class="cls-4" x="434.88" y="278.84" width="52.41" height="14"/><rect class="cls-4" x="434.88" y="331.4" width="52.41" height="14"/><rect class="cls-4" x="430.12" y="169.11" width="14.29" height="176.28"/><polygon class="cls-5" points="397.96 331.58 427.74 345.4 427.74 169.11 397.96 186.94 397.96 331.58"/><polygon class="cls-8" points="421.4 195.32 411.87 195.32 360.65 241.77 360.65 265.59 421.4 265.59 421.4 195.32"/><rect class="cls-7" x="417.02" y="195.32" width="2.38" height="70.28" transform="translate(836.41 460.91) rotate(-180)"/><path class="cls-9" d="M410.21,298.25c-4.84,1.41-15.5,4-19.58,1.31a1.15,1.15,0,0,1-.41-.49l-16.29-33.62,22.42-24.59a9,9,0,0,0,2.36-6.55c-.46-8-4.64-27-31-49.52l-.08-.06c-1.07-.79-23.05-16.7-36.32-16.06a1.25,1.25,0,0,0-.84,2.15c3.64,3.48,11.25,11.4,10.93,16.3a1.36,1.36,0,0,1-.22.61l-21,30.91-32.51-7.12a9,9,0,0,0-6.85,1.23c-6.72,4.41-21.1,17.54-27.39,51.6a.38.38,0,0,0,0,.1c-.15,1.33-2.94,28.32,4.25,39.49a1.25,1.25,0,0,0,2.28-.35c1.2-4.89,4.25-15.44,8.65-17.61a1.18,1.18,0,0,1,.64-.11l37.25,2.7,10.09,31.71a9,9,0,0,0,4.5,5.32c7.17,3.61,25.73,9.5,58.38-2.08l.09,0c1.22-.54,26-11.62,32.08-23.43A1.26,1.26,0,0,0,410.21,298.25Zm-94-21.31,9.21-44.09,33.57,30Z"/><circle class="cls-10" cx="334.2" cy="257.29" r="26.91"/><circle class="cls-11" cx="334.2" cy="257.29" r="17.07"/><path class="cls-12" d="M265.9,264.45s0-.06,0-.1c-6.29-34.06-20.67-47.19-27.39-51.6a9,9,0,0,0-6.85-1.23l-32.51,7.12-21-30.91a1.25,1.25,0,0,1-.22-.61c-.32-4.9,7.29-12.82,10.92-16.3a1.25,1.25,0,0,0-.83-2.15c-13.27-.64-35.25,15.27-36.32,16.06l-.09.06c-26.35,22.48-30.53,41.5-31,49.52a9,9,0,0,0,2.36,6.55l22.42,24.59-16.29,33.62a1.15,1.15,0,0,1-.41.49c-4.09,2.73-14.74.1-19.58-1.31a1.26,1.26,0,0,0-1.45,1.8c6.09,11.81,30.86,22.89,32.08,23.43l.09,0c32.64,11.58,51.21,5.69,58.38,2.08a9,9,0,0,0,4.49-5.32l10.1-31.71,37.25-2.7a1.18,1.18,0,0,1,.64.11c4.4,2.17,7.45,12.72,8.65,17.61a1.25,1.25,0,0,0,2.28.35C268.84,292.77,266,265.78,265.9,264.45Zm-105.56-1.58,33.58-30,9.2,44.09Z"/><circle class="cls-10" cx="183.39" cy="257.29" r="26.91"/><circle class="cls-11" cx="183.39" cy="257.29" r="17.07"/></svg>