<svg id="图层_1" data-name="图层 1" xmlns="http://www.w3.org/2000/svg" xmlns:xlink="http://www.w3.org/1999/xlink" viewBox="0 0 512 512"><defs><style>.cls-1{fill:url(#未命名的渐变_53);}.cls-2{fill:url(#未命名的渐变_53-2);}.cls-3{fill:url(#未命名的渐变_53-3);}.cls-4{fill:url(#未命名的渐变_53-4);}.cls-5{fill:url(#未命名的渐变_53-5);}.cls-6{fill:url(#未命名的渐变_53-6);}.cls-7{fill:url(#未命名的渐变_53-7);}.cls-8{fill:url(#未命名的渐变_53-8);}.cls-9{fill:#666;}.cls-10{fill:url(#未命名的渐变_68);}.cls-11{fill:url(#未命名的渐变_68-2);}.cls-12{fill:url(#未命名的渐变_68-3);}.cls-13{fill:url(#未命名的渐变_68-4);}.cls-14{fill:url(#未命名的渐变_68-5);}.cls-15{fill:url(#未命名的渐变_68-6);}.cls-16{fill:url(#未命名的渐变_68-7);}.cls-17{fill:url(#未命名的渐变_68-8);}.cls-18{fill:url(#未命名的渐变_68-9);}.cls-19{fill:url(#未命名的渐变_68-10);}.cls-20{fill:url(#未命名的渐变_68-11);}.cls-21{fill:url(#未命名的渐变_68-12);}.cls-22{fill:url(#未命名的渐变_68-13);}.cls-23{fill:url(#未命名的渐变_68-14);}</style><linearGradient id="未命名的渐变_53" x1="267.25" y1="227.12" x2="267.25" y2="106.16" gradientUnits="userSpaceOnUse"><stop offset="0" stop-color="#787878"/><stop offset="1" stop-color="#595959"/></linearGradient><linearGradient id="未命名的渐变_53-2" x1="311.34" y1="227.12" x2="311.34" y2="171.72" xlink:href="#未命名的渐变_53"/><linearGradient id="未命名的渐变_53-3" x1="389.34" y1="227.12" x2="389.34" y2="171.72" xlink:href="#未命名的渐变_53"/><linearGradient id="未命名的渐变_53-4" x1="350.34" y1="227.12" x2="350.34" y2="175.87" xlink:href="#未命名的渐变_53"/><linearGradient id="未命名的渐变_53-5" x1="69.4" y1="184.13" x2="69.45" y2="91.43" gradientTransform="translate(-0.09 0.06) rotate(-0.03)" xlink:href="#未命名的渐变_53"/><linearGradient id="未命名的渐变_53-6" x1="63.76" y1="86.93" x2="63.78" y2="66.55" gradientTransform="translate(-0.09 0.06) rotate(-0.03)" xlink:href="#未命名的渐变_53"/><linearGradient id="未命名的渐变_53-7" x1="105.02" y1="233.34" x2="154.77" y2="233.34" xlink:href="#未命名的渐变_53"/><linearGradient id="未命名的渐变_53-8" x1="161.55" y1="228.81" x2="227.12" y2="228.81" xlink:href="#未命名的渐变_53"/><linearGradient id="未命名的渐变_68" x1="246.34" y1="335.07" x2="246.34" y2="233.9" gradientUnits="userSpaceOnUse"><stop offset="0" stop-color="#404040"/><stop offset="1" stop-color="#5e5e5e"/></linearGradient><linearGradient id="未命名的渐变_68-2" x1="408" y1="335.07" x2="408" y2="233.9" xlink:href="#未命名的渐变_68"/><linearGradient id="未命名的渐变_68-3" x1="274.6" y1="335.07" x2="274.6" y2="233.9" xlink:href="#未命名的渐变_68"/><linearGradient id="未命名的渐变_68-4" x1="339.04" y1="243.02" x2="339.04" y2="233.9" xlink:href="#未命名的渐变_68"/><linearGradient id="未命名的渐变_68-5" x1="339.04" y1="258.36" x2="339.04" y2="249.24" xlink:href="#未命名的渐变_68"/><linearGradient id="未命名的渐变_68-6" x1="339.04" y1="273.7" x2="339.04" y2="264.59" xlink:href="#未命名的渐变_68"/><linearGradient id="未命名的渐变_68-7" x1="339.04" y1="289.04" x2="339.04" y2="279.93" xlink:href="#未命名的渐变_68"/><linearGradient id="未命名的渐变_68-8" x1="339.04" y1="304.38" x2="339.04" y2="295.27" xlink:href="#未命名的渐变_68"/><linearGradient id="未命名的渐变_68-9" x1="339.04" y1="319.73" x2="339.04" y2="310.61" xlink:href="#未命名的渐变_68"/><linearGradient id="未命名的渐变_68-10" x1="339.04" y1="335.07" x2="339.04" y2="325.95" xlink:href="#未命名的渐变_68"/><linearGradient id="未命名的渐变_68-11" x1="443.04" y1="332.26" x2="443.04" y2="253.12" xlink:href="#未命名的渐变_68"/><linearGradient id="未命名的渐变_68-12" x1="244.64" y1="415.91" x2="244.64" y2="388.78" xlink:href="#未命名的渐变_68"/><linearGradient id="未命名的渐变_68-13" x1="302.3" y1="434" x2="302.3" y2="351.47" xlink:href="#未命名的渐变_68"/><linearGradient id="未命名的渐变_68-14" x1="359.95" y1="415.91" x2="359.95" y2="388.78" xlink:href="#未命名的渐变_68"/></defs><title>设备图标汇总</title><polygon class="cls-1" points="301.73 227.12 232.77 227.12 232.77 106.16 301.73 166.07 301.73 227.12"/><rect class="cls-2" x="307.38" y="171.72" width="7.91" height="55.39"/><rect class="cls-3" x="385.39" y="171.72" width="7.91" height="55.39"/><rect class="cls-4" x="319.82" y="175.87" width="61.05" height="51.25"/><path class="cls-5" d="M88.05,91.44l-47.48,0,0,43L88.1,184.15h9A1.13,1.13,0,0,0,98.27,183l0-52.4a1.12,1.12,0,0,0-.67-1l-9.51-11Z"/><path class="cls-6" d="M97.32,66.57l-67.19,0a1.13,1.13,0,0,0-1,1.72L40.56,87l46.35,0L98.29,68.29A1.13,1.13,0,0,0,97.32,66.57Z"/><rect class="cls-7" x="105.02" y="71.11" width="49.74" height="324.45" rx="7.13"/><rect class="cls-8" x="161.55" y="95.98" width="65.57" height="265.67" rx="6.07"/><path class="cls-9" d="M256.51,349.18a3.55,3.55,0,0,0,3.67,3.42h20.93a3.55,3.55,0,0,0,3.66-3.42v-9.34H256.51Z"/><path class="cls-9" d="M369.56,349.18a3.55,3.55,0,0,0,3.67,3.42h20.93a3.55,3.55,0,0,0,3.66-3.42v-9.34H369.56Z"/><path class="cls-10" d="M232.77,247.26v74.45c0,7.35,7.46,13.36,16.57,13.36H259.9V233.9H249.34C240.23,233.9,232.77,239.91,232.77,247.26Z"/><path class="cls-11" d="M405,233.9H394.43V335.07H405c9.11,0,16.56-6,16.56-13.36V247.26C421.56,239.91,414.11,233.9,405,233.9Z"/><rect class="cls-12" x="265.55" y="233.9" width="18.09" height="101.17"/><rect class="cls-13" x="288.16" y="233.9" width="101.74" height="9.11"/><rect class="cls-14" x="288.16" y="249.24" width="101.74" height="9.11"/><rect class="cls-15" x="288.16" y="264.59" width="101.74" height="9.11"/><rect class="cls-16" x="288.16" y="279.93" width="101.74" height="9.11"/><rect class="cls-17" x="288.16" y="295.27" width="101.74" height="9.11"/><rect class="cls-18" x="288.16" y="310.61" width="101.74" height="9.11"/><rect class="cls-19" x="288.16" y="325.95" width="101.74" height="9.11"/><rect class="cls-20" x="426.09" y="253.12" width="33.91" height="79.13" rx="1.99"/><rect class="cls-21" x="209.22" y="388.78" width="70.84" height="27.13" rx="4.65"/><path class="cls-22" d="M425,400.08V351.47H402.34v2.23c0,1.89-1.9,3.43-4.25,3.43h-28.8c-2.35,0-4.25-1.54-4.25-3.43v-2.23H289.29v2.23c0,1.89-1.9,3.43-4.25,3.43h-28.8c-2.35,0-4.25-1.54-4.25-3.43v-2.23H233.9v10a7,7,0,0,1-6.94,6.94H179.64v31.65h24.87v4.53H179.64V434H425V404.61H400.08v-4.53ZM284.58,414.73a5.71,5.71,0,0,1-5.7,5.7H210.4a5.71,5.71,0,0,1-5.7-5.7V390a5.71,5.71,0,0,1,5.7-5.7h68.48a5.71,5.71,0,0,1,5.7,5.7Zm35.24-10.12H284.77v-4.53h35.05Zm80.08,10.12a5.72,5.72,0,0,1-5.71,5.7H325.71a5.71,5.71,0,0,1-5.7-5.7V390a5.71,5.71,0,0,1,5.7-5.7h68.48a5.72,5.72,0,0,1,5.71,5.7Z"/><rect class="cls-23" x="324.53" y="388.78" width="70.84" height="27.13" rx="4.65"/></svg>