<svg id="图层_1" data-name="图层 1" xmlns="http://www.w3.org/2000/svg" xmlns:xlink="http://www.w3.org/1999/xlink" viewBox="0 0 512 512"><defs><style>.cls-1{fill:url(#未命名的渐变_131);}.cls-2{fill:url(#未命名的渐变_137);}.cls-3{fill:url(#未命名的渐变_144);}.cls-4{fill:url(#未命名的渐变_181);}.cls-5{fill:url(#未命名的渐变_194);}.cls-6{fill:url(#未命名的渐变_151);}.cls-7{fill:url(#未命名的渐变_144-2);}.cls-8{fill:#fff;}.cls-9{fill:#666;}.cls-10{fill:#b3b3b3;}</style><linearGradient id="未命名的渐变_131" x1="113" y1="163.5" x2="417" y2="163.5" gradientUnits="userSpaceOnUse"><stop offset="0" stop-color="#4f4f4f"/><stop offset="0.08" stop-color="#5d5d5d"/><stop offset="0.24" stop-color="#838383"/><stop offset="0.46" stop-color="silver"/><stop offset="0.51" stop-color="#cfcfcf"/><stop offset="0.63" stop-color="#a8a8a8"/><stop offset="0.8" stop-color="#787878"/><stop offset="0.93" stop-color="#5a5a5a"/><stop offset="1" stop-color="#4f4f4f"/></linearGradient><linearGradient id="未命名的渐变_137" x1="113" y1="326.5" x2="417" y2="326.5" gradientUnits="userSpaceOnUse"><stop offset="0" stop-color="#424242"/><stop offset="0.09" stop-color="#505050"/><stop offset="0.25" stop-color="#767676"/><stop offset="0.47" stop-color="#b3b3b3"/><stop offset="0.51" stop-color="#bdbdbd"/><stop offset="0.62" stop-color="#9b9b9b"/><stop offset="0.79" stop-color="#6b6b6b"/><stop offset="0.92" stop-color="#4d4d4d"/><stop offset="1" stop-color="#424242"/></linearGradient><linearGradient id="未命名的渐变_144" x1="191" y1="421" x2="339" y2="421" gradientUnits="userSpaceOnUse"><stop offset="0" stop-color="#333"/><stop offset="0.15" stop-color="#363636"/><stop offset="0.24" stop-color="#3f3f3f"/><stop offset="0.33" stop-color="#4e4e4e"/><stop offset="0.4" stop-color="#636363"/><stop offset="0.47" stop-color="#7e7e7e"/><stop offset="0.51" stop-color="#919191"/><stop offset="0.59" stop-color="#757575"/><stop offset="0.69" stop-color="#585858"/><stop offset="0.8" stop-color="#434343"/><stop offset="0.9" stop-color="#373737"/><stop offset="1" stop-color="#333"/></linearGradient><linearGradient id="未命名的渐变_181" x1="162.53" y1="372" x2="162.53" y2="325" gradientUnits="userSpaceOnUse"><stop offset="0" stop-color="#5c5c5c"/><stop offset="0.48" stop-color="#8f8f8f"/><stop offset="1" stop-color="#636363"/></linearGradient><linearGradient id="未命名的渐变_194" x1="136.5" y1="374" x2="136.5" y2="323" gradientUnits="userSpaceOnUse"><stop offset="0" stop-color="#171717"/><stop offset="0.3" stop-color="#4e4e4e"/><stop offset="0.51" stop-color="#707070"/><stop offset="0.89" stop-color="#2e2e2e"/><stop offset="1" stop-color="#1a1a1a"/></linearGradient><radialGradient id="未命名的渐变_151" cx="89.5" cy="118.5" r="24.52" gradientUnits="userSpaceOnUse"><stop offset="0.01" stop-color="#919191"/><stop offset="0.82" stop-color="#454545"/><stop offset="1" stop-color="#333"/></radialGradient><linearGradient id="未命名的渐变_144-2" x1="113" y1="240" x2="417" y2="240" xlink:href="#未命名的渐变_144"/></defs><title>设备图标汇总</title><rect class="cls-1" x="113" y="91" width="304" height="145"/><polygon class="cls-2" points="327 409 203 409 113 244 417 244 327 409"/><rect class="cls-3" x="191" y="410" width="148" height="22"/><path class="cls-4" d="M189,372H135V325l32,0c4,0,15.17,8.34,18,14A51.94,51.94,0,0,1,189,372Z"/><rect class="cls-5" x="134" y="323" width="5" height="51"/><polygon class="cls-6" points="77 133 77 93 66 93 66 144 74 144 113 144 113 133 77 133"/><rect class="cls-7" x="113" y="236" width="304" height="8"/><rect class="cls-8" x="274" y="116" width="40" height="293"/><rect class="cls-9" x="274" y="173" width="40" height="236"/><rect class="cls-10" x="274.49" y="405" width="19.14" height="4"/><rect class="cls-10" x="274.49" y="333" width="19.14" height="4"/><rect class="cls-10" x="274.49" y="261" width="19.14" height="4"/><rect class="cls-10" x="274.49" y="189" width="19.14" height="4"/><rect class="cls-10" x="274.49" y="117" width="19.14" height="4"/></svg>