<svg id="图层_1" data-name="图层 1" xmlns="http://www.w3.org/2000/svg" xmlns:xlink="http://www.w3.org/1999/xlink" viewBox="0 0 512 512"><defs><style>.cls-1{fill:url(#未命名的渐变_52);}.cls-2{fill:url(#未命名的渐变_52-2);}.cls-3{fill:url(#未命名的渐变_53);}.cls-4{fill:#666;}.cls-5{fill:url(#未命名的渐变_53-2);}.cls-6{fill:url(#未命名的渐变_53-3);}.cls-7{fill:url(#未命名的渐变_52-3);}.cls-8{fill:url(#未命名的渐变_87);}.cls-9{fill:url(#未命名的渐变_87-2);}</style><linearGradient id="未命名的渐变_52" x1="173.53" y1="323.79" x2="204.63" y2="323.79" gradientTransform="matrix(0.31, 0.95, -0.95, 0.31, 438.94, 44.22)" gradientUnits="userSpaceOnUse"><stop offset="0" stop-color="#737373"/><stop offset="1" stop-color="#4d4d4d"/></linearGradient><linearGradient id="未命名的渐变_52-2" x1="324" y1="340" x2="417.63" y2="340" gradientTransform="matrix(1, 0, 0, 1, 0, 0)" xlink:href="#未命名的渐变_52"/><linearGradient id="未命名的渐变_53" x1="320" y1="190" x2="320" y2="338" gradientUnits="userSpaceOnUse"><stop offset="0" stop-color="#787878"/><stop offset="1" stop-color="#595959"/></linearGradient><linearGradient id="未命名的渐变_53-2" x1="717.25" y1="594.52" x2="748.25" y2="594.52" gradientTransform="translate(770.02 -493.75) rotate(90)" xlink:href="#未命名的渐变_53"/><linearGradient id="未命名的渐变_53-3" x1="4398.58" y1="-3139.68" x2="4476.49" y2="-3120.95" gradientTransform="matrix(-0.23, 0.97, 0.97, 0.23, 4159.83, -3358.49)" xlink:href="#未命名的渐变_53"/><linearGradient id="未命名的渐变_52-3" x1="294.5" y1="345" x2="294.5" y2="361" gradientTransform="matrix(1, 0, 0, 1, 0, 0)" xlink:href="#未命名的渐变_52"/><linearGradient id="未命名的渐变_87" x1="188.5" y1="361" x2="188.5" y2="375" gradientUnits="userSpaceOnUse"><stop offset="0" stop-color="#616161"/><stop offset="1" stop-color="#404040"/></linearGradient><linearGradient id="未命名的渐变_87-2" x1="401.5" x2="401.5" xlink:href="#未命名的渐变_87"/></defs><title>设备图标汇总</title><rect class="cls-1" x="161.04" y="316.52" width="56.07" height="14.55" transform="translate(-177.2 404.01) rotate(-72.07)"/><polygon class="cls-2" points="411 359 417.63 345.51 373 326 324 321 411 359"/><polygon class="cls-3" points="481 300 472 338 456 334 249 314 178 294 159 274 178 193 203 190 276 208 466 296 481 300"/><rect class="cls-4" x="226.69" y="194.32" width="9.27" height="119" transform="translate(65.71 -47.03) rotate(13.51)"/><rect class="cls-4" x="147.63" y="189.81" width="9.46" height="85.27" transform="translate(58.53 -29.17) rotate(13.51)"/><rect class="cls-4" x="424.36" y="273.84" width="7" height="62.2" transform="translate(83.1 -91.54) rotate(13.51)"/><rect class="cls-5" x="111.5" y="223.5" width="128" height="31" transform="translate(-97.89 353.79) rotate(-76.49)"/><path class="cls-6" d="M38.54,260.12S60.06,182,149.89,206.25L138,255s-43.79-21.81-55.27,26.85Z"/><rect class="cls-7" x="164" y="345" width="261" height="16"/><rect class="cls-8" x="172" y="361" width="33" height="14"/><rect class="cls-9" x="385" y="361" width="33" height="14"/></svg>