<svg id="图层_1" data-name="图层 1" xmlns="http://www.w3.org/2000/svg" xmlns:xlink="http://www.w3.org/1999/xlink" viewBox="0 0 512 512"><defs><style>.cls-1{fill:url(#未命名的渐变_141);}.cls-2{fill:url(#未命名的渐变_68);}.cls-3{fill:url(#未命名的渐变_148);}.cls-4{fill:url(#未命名的渐变_150);}.cls-5{fill:url(#未命名的渐变_53);}.cls-6{fill:url(#未命名的渐变_68-2);}.cls-7{fill:url(#未命名的渐变_166);}.cls-8{fill:#666;}.cls-9{fill:url(#未命名的渐变_177);}.cls-10{fill:url(#未命名的渐变_177-2);}</style><linearGradient id="未命名的渐变_141" x1="27.09" y1="320.68" x2="173.08" y2="267.65" gradientTransform="translate(427.03 155.3) rotate(90)" gradientUnits="userSpaceOnUse"><stop offset="0" stop-color="#787878"/><stop offset="1" stop-color="#595959"/></linearGradient><linearGradient id="未命名的渐变_68" x1="173.08" y1="336.16" x2="27.08" y2="336.16" gradientTransform="translate(18.45 -41.3)" gradientUnits="userSpaceOnUse"><stop offset="0" stop-color="#404040"/><stop offset="1" stop-color="#5e5e5e"/></linearGradient><linearGradient id="未命名的渐变_148" x1="211.08" y1="302.66" x2="173.08" y2="302.66" gradientTransform="translate(139.22 -55.27) rotate(19.96)" gradientUnits="userSpaceOnUse"><stop offset="0" stop-color="#787878"/><stop offset="1" stop-color="#4d4d4d"/></linearGradient><linearGradient id="未命名的渐变_150" x1="173.08" y1="344.66" x2="211.08" y2="344.66" gradientTransform="translate(139.22 -55.27) rotate(19.96)" gradientUnits="userSpaceOnUse"><stop offset="0" stop-color="#333"/><stop offset="1" stop-color="#5e5e5e"/></linearGradient><linearGradient id="未命名的渐变_53" x1="357.08" y1="299.42" x2="216.3" y2="299.42" gradientTransform="translate(139.22 -55.27) rotate(19.96)" xlink:href="#未命名的渐变_141"/><linearGradient id="未命名的渐变_68-2" x1="306.59" y1="207.94" x2="189.59" y2="207.94" gradientTransform="translate(-35.57 127.27) rotate(-20.97)" xlink:href="#未命名的渐变_68"/><linearGradient id="未命名的渐变_166" x1="363.09" y1="193.94" x2="363.09" y2="221.94" gradientTransform="translate(-35.57 127.27) rotate(-20.97)" gradientUnits="userSpaceOnUse"><stop offset="0" stop-color="#ccc"/><stop offset="0.96" stop-color="#8c8c8c"/></linearGradient><radialGradient id="未命名的渐变_177" cx="407.92" cy="275.88" r="18.62" gradientUnits="userSpaceOnUse"><stop offset="0" stop-color="#8a8a8a"/><stop offset="1" stop-color="#545454"/></radialGradient><radialGradient id="未命名的渐变_177-2" cx="407.92" cy="275.88" r="11.1" xlink:href="#未命名的渐变_177"/></defs><title>设备图标汇总</title><rect class="cls-1" x="106.37" y="182.38" width="53" height="146" transform="translate(-152.53 293.09) rotate(-70.04)"/><rect class="cls-2" x="45.53" y="284.36" width="146" height="21" transform="translate(107.78 -22.75) rotate(19.96)"/><polygon class="cls-3" points="222.35 334.17 192.44 305.21 210.53 255.4 240.44 284.35 222.35 334.17"/><polygon class="cls-4" points="213.47 358.6 183.56 329.65 190.73 309.91 220.64 338.86 213.47 358.6"/><path class="cls-5" d="M368.11,360.51,235.7,312.69l9.22-25.38,121.19,53.41a4.61,4.61,0,0,1,2.74,4.44Z"/><path class="cls-6" d="M326.37,218.71,220.1,257.37a2.42,2.42,0,0,1-3.19-1.11l-2.43-6.34a1.2,1.2,0,0,1,.81-1.48l106.09-42.76a1.24,1.24,0,0,1,1.65.54l4.21,11A1.22,1.22,0,0,1,326.37,218.71Z"/><path class="cls-7" d="M431.92,185.78,325,226.76a2.49,2.49,0,0,1-3.21-1.43l-8.24-21.5a2.5,2.5,0,0,1,1.43-3.21l106.93-41a12,12,0,0,1,15.5,6.91l1.43,3.74A12,12,0,0,1,431.92,185.78Z"/><rect class="cls-8" x="397.42" y="202.25" width="21" height="185.75" rx="10.02"/><circle class="cls-9" cx="407.92" cy="275.88" r="18.62"/><circle class="cls-10" cx="407.92" cy="275.88" r="11.1"/></svg>