<svg id="图层_1" data-name="图层 1" xmlns="http://www.w3.org/2000/svg" viewBox="0 0 100 100"><defs><style>.cls-1{fill:#1a1a1a;}</style></defs><title>设备图标汇总</title><path class="cls-1" d="M83.17,52.61h-4.4a2.11,2.11,0,0,0-.12-.79L69.86,28.75a2.19,2.19,0,0,0-2.07-1.41H59a2.22,2.22,0,0,0-1.45.55l-2.62,2.34-7.36-9.71a2.2,2.2,0,0,0-2.35-.77L27.64,24.87a2.21,2.21,0,0,0-1.57,1.73L21.68,52.23a2.41,2.41,0,0,0,0,.38H17.26A2.2,2.2,0,1,0,16.94,57h3.84l5.27,11.72c0,.81,1,1.47,2.2,1.47h.4a6.6,6.6,0,1,0,12.39,0H59.42a6.37,6.37,0,0,0-.42,2.2,6.6,6.6,0,0,0,13.19.55,5,5,0,0,0,0-.55,6.59,6.59,0,0,0-.4-2.2h.4c1.17,0,2.2-.66,2.2-1.47L79.67,57h3.51a2.2,2.2,0,1,0,.32-4.39h-.33Zm-53-23.91L45,24.38l7.87,10.33a2.22,2.22,0,0,0,1.54.86A2.38,2.38,0,0,0,56.08,35l3.75-3.3h6.44l8,20.86H26.07Zm4.68,45.88a2.21,2.21,0,1,1,2.21-2.2h0A2.21,2.21,0,0,1,34.86,74.58Zm30.77,0a2.21,2.21,0,1,1,2.16-2.24v0a2.2,2.2,0,0,1-2.2,2.2Zm5.28-8.79H29.54L25.61,57H74.83Z"/></svg>