<svg id="图层_1" data-name="图层 1" xmlns="http://www.w3.org/2000/svg" xmlns:xlink="http://www.w3.org/1999/xlink" viewBox="0 0 2880 512"><defs><style>.cls-1{fill:url(#未命名的渐变_53);}.cls-2{fill:#ccc;}.cls-3{fill:url(#未命名的渐变_53-2);}.cls-4{fill:#666;}.cls-5{fill:url(#未命名的渐变_53-3);}.cls-6{fill:url(#未命名的渐变_53-4);}.cls-7{fill:url(#未命名的渐变_53-5);}.cls-8{fill:url(#未命名的渐变_53-6);}.cls-9{fill:url(#未命名的渐变_53-7);}.cls-10{fill:url(#未命名的渐变_53-8);}.cls-11{fill:url(#未命名的渐变_35);}.cls-12,.cls-13{fill:#999;}.cls-12{stroke:#666;stroke-miterlimit:10;stroke-width:4px;}.cls-14{fill:url(#未命名的渐变_53-9);}.cls-15{fill:url(#未命名的渐变_53-10);}.cls-16{fill:url(#未命名的渐变_53-11);}.cls-17{fill:url(#未命名的渐变_53-12);}.cls-18{fill:url(#未命名的渐变_53-13);}.cls-19{fill:url(#未命名的渐变_53-14);}.cls-20{fill:url(#未命名的渐变_53-15);}.cls-21{fill:url(#未命名的渐变_53-16);}.cls-22{fill:url(#未命名的渐变_35-2);}.cls-23{fill:#4d4d4d;}.cls-24{fill:#5e5e5e;}.cls-25{fill:gray;}.cls-26{fill:url(#未命名的渐变_53-17);}.cls-27{fill:url(#未命名的渐变_53-18);}.cls-28{fill:url(#未命名的渐变_53-19);}.cls-29{fill:url(#未命名的渐变_53-20);}.cls-30{fill:url(#未命名的渐变_53-21);}.cls-31{fill:url(#未命名的渐变_53-22);}.cls-32{fill:#b3b3b3;}.cls-33{fill:url(#未命名的渐变_61);}.cls-34{fill:url(#未命名的渐变_53-23);}.cls-35{fill:#707070;}.cls-36{fill:url(#未命名的渐变_68);}</style><linearGradient id="未命名的渐变_53" x1="1146.21" y1="402" x2="1146.21" y2="491" gradientUnits="userSpaceOnUse"><stop offset="0" stop-color="#787878"/><stop offset="1" stop-color="#595959"/></linearGradient><linearGradient id="未命名的渐变_53-2" x1="1284.36" y1="490.9" x2="1284.36" y2="401.9" xlink:href="#未命名的渐变_53"/><linearGradient id="未命名的渐变_53-3" x1="1216" y1="397" x2="1216" y2="409" xlink:href="#未命名的渐变_53"/><linearGradient id="未命名的渐变_53-4" x1="1215.29" y1="442" x2="1215.29" y2="468" xlink:href="#未命名的渐变_53"/><linearGradient id="未命名的渐变_53-5" x1="1732.21" x2="1732.21" xlink:href="#未命名的渐变_53"/><linearGradient id="未命名的渐变_53-6" x1="1870.36" y1="490.9" x2="1870.36" y2="401.9" xlink:href="#未命名的渐变_53"/><linearGradient id="未命名的渐变_53-7" x1="1802" y1="397" x2="1802" y2="409" xlink:href="#未命名的渐变_53"/><linearGradient id="未命名的渐变_53-8" x1="1801.29" y1="442" x2="1801.29" y2="468" xlink:href="#未命名的渐变_53"/><linearGradient id="未命名的渐变_35" x1="1509.63" y1="116.88" x2="1509.63" y2="387.88" gradientUnits="userSpaceOnUse"><stop offset="0" stop-color="#8f8f8f"/><stop offset="1" stop-color="#6e6e6e"/></linearGradient><linearGradient id="未命名的渐变_53-9" x1="243.21" x2="243.21" xlink:href="#未命名的渐变_53"/><linearGradient id="未命名的渐变_53-10" x1="381.36" y1="490.9" x2="381.36" y2="401.9" xlink:href="#未命名的渐变_53"/><linearGradient id="未命名的渐变_53-11" x1="313" y1="397" x2="313" y2="409" xlink:href="#未命名的渐变_53"/><linearGradient id="未命名的渐变_53-12" x1="312.29" y1="442" x2="312.29" y2="468" xlink:href="#未命名的渐变_53"/><linearGradient id="未命名的渐变_53-13" x1="829.21" x2="829.21" xlink:href="#未命名的渐变_53"/><linearGradient id="未命名的渐变_53-14" x1="967.36" y1="490.9" x2="967.36" y2="401.9" xlink:href="#未命名的渐变_53"/><linearGradient id="未命名的渐变_53-15" x1="899" y1="397" x2="899" y2="409" xlink:href="#未命名的渐变_53"/><linearGradient id="未命名的渐变_53-16" x1="898.29" y1="442" x2="898.29" y2="468" xlink:href="#未命名的渐变_53"/><linearGradient id="未命名的渐变_35-2" x1="606.63" y1="116.88" x2="606.63" y2="387.88" xlink:href="#未命名的渐变_35"/><linearGradient id="未命名的渐变_53-17" x1="2782.36" y1="490.9" x2="2782.36" y2="401.9" xlink:href="#未命名的渐变_53"/><linearGradient id="未命名的渐变_53-18" x1="2058.21" x2="2058.21" xlink:href="#未命名的渐变_53"/><linearGradient id="未命名的渐变_53-19" x1="2196.36" y1="490.9" x2="2196.36" y2="401.9" xlink:href="#未命名的渐变_53"/><linearGradient id="未命名的渐变_53-20" x1="2127.5" y1="397" x2="2127.5" y2="409" xlink:href="#未命名的渐变_53"/><linearGradient id="未命名的渐变_53-21" x1="2645.79" x2="2645.79" xlink:href="#未命名的渐变_53"/><linearGradient id="未命名的渐变_53-22" x1="2509.21" x2="2509.21" xlink:href="#未命名的渐变_53"/><linearGradient id="未命名的渐变_61" x1="2353" y1="104.29" x2="2353" y2="148.43" gradientUnits="userSpaceOnUse"><stop offset="0" stop-color="#666"/><stop offset="0.19" stop-color="#626262"/><stop offset="0.68" stop-color="#5e5e5e"/><stop offset="1" stop-color="#4a4a4a"/></linearGradient><linearGradient id="未命名的渐变_53-23" x1="2482" y1="405" x2="2809" y2="405" xlink:href="#未命名的渐变_53"/><linearGradient id="未命名的渐变_68" x1="2352.5" y1="401.38" x2="2352.5" y2="148.43" gradientUnits="userSpaceOnUse"><stop offset="0" stop-color="#404040"/><stop offset="1" stop-color="#5e5e5e"/></linearGradient></defs><title>设备图标汇总</title><circle class="cls-1" cx="1146.21" cy="446.5" r="44.5"/><circle class="cls-2" cx="1146.58" cy="446.3" r="20.16"/><circle class="cls-3" cx="1284.36" cy="446.4" r="44.5"/><circle class="cls-2" cx="1284.36" cy="446.4" r="20.16"/><rect class="cls-4" x="1140.33" y="376" width="12.67" height="4"/><rect class="cls-4" x="1140.33" y="383.22" width="12.67" height="4"/><rect class="cls-4" x="1140.33" y="390.44" width="12.67" height="4"/><rect class="cls-4" x="1140.33" y="397.67" width="12.67" height="4"/><rect class="cls-4" x="1140.33" y="404.89" width="12.67" height="4"/><rect class="cls-4" x="1140.33" y="412.11" width="12.67" height="4"/><rect class="cls-4" x="1140.33" y="419.33" width="12.67" height="4"/><rect class="cls-4" x="1140.33" y="426.56" width="12.67" height="4"/><rect class="cls-4" x="1140.33" y="433.78" width="12.67" height="4"/><rect class="cls-4" x="1140.33" y="441" width="12.67" height="1"/><rect class="cls-4" x="1277.33" y="376" width="12.67" height="4"/><rect class="cls-4" x="1277.33" y="383.22" width="12.67" height="4"/><rect class="cls-4" x="1277.33" y="390.44" width="12.67" height="4"/><rect class="cls-4" x="1277.33" y="397.67" width="12.67" height="4"/><rect class="cls-4" x="1277.33" y="404.89" width="12.67" height="4"/><rect class="cls-4" x="1277.33" y="412.11" width="12.67" height="4"/><rect class="cls-4" x="1277.33" y="419.33" width="12.67" height="4"/><rect class="cls-4" x="1277.33" y="426.56" width="12.67" height="4"/><rect class="cls-4" x="1277.33" y="433.78" width="12.67" height="4"/><rect class="cls-4" x="1277.33" y="441" width="12.67" height="1"/><polygon class="cls-5" points="1305.02 409 1126.98 409 1124 397 1308 397 1305.02 409"/><path class="cls-6" d="M1140.29,442v6l19,20h112l19-20v-6Zm128,20h-105.9L1149,448h132.5Z"/><circle class="cls-7" cx="1732.21" cy="446.5" r="44.5"/><circle class="cls-2" cx="1732.58" cy="446.3" r="20.16"/><circle class="cls-8" cx="1870.36" cy="446.4" r="44.5"/><circle class="cls-2" cx="1870.36" cy="446.4" r="20.16"/><rect class="cls-4" x="1726.33" y="376" width="12.67" height="4"/><rect class="cls-4" x="1726.33" y="383.22" width="12.67" height="4"/><rect class="cls-4" x="1726.33" y="390.44" width="12.67" height="4"/><rect class="cls-4" x="1726.33" y="397.67" width="12.67" height="4"/><rect class="cls-4" x="1726.33" y="404.89" width="12.67" height="4"/><rect class="cls-4" x="1726.33" y="412.11" width="12.67" height="4"/><rect class="cls-4" x="1726.33" y="419.33" width="12.67" height="4"/><rect class="cls-4" x="1726.33" y="426.56" width="12.67" height="4"/><rect class="cls-4" x="1726.33" y="433.78" width="12.67" height="4"/><rect class="cls-4" x="1726.33" y="441" width="12.67" height="1"/><rect class="cls-4" x="1863.33" y="376" width="12.67" height="4"/><rect class="cls-4" x="1863.33" y="383.22" width="12.67" height="4"/><rect class="cls-4" x="1863.33" y="390.44" width="12.67" height="4"/><rect class="cls-4" x="1863.33" y="397.67" width="12.67" height="4"/><rect class="cls-4" x="1863.33" y="404.89" width="12.67" height="4"/><rect class="cls-4" x="1863.33" y="412.11" width="12.67" height="4"/><rect class="cls-4" x="1863.33" y="419.33" width="12.67" height="4"/><rect class="cls-4" x="1863.33" y="426.56" width="12.67" height="4"/><rect class="cls-4" x="1863.33" y="433.78" width="12.67" height="4"/><rect class="cls-4" x="1863.33" y="441" width="12.67" height="1"/><polygon class="cls-9" points="1891.02 409 1712.98 409 1710 397 1894 397 1891.02 409"/><path class="cls-10" d="M1726.29,442v6l19,20h112l19-20v-6Zm128,20h-105.9L1735,448h132.5Z"/><rect class="cls-4" x="1078.5" y="103.38" width="862" height="298"/><rect class="cls-11" x="1091.63" y="116.88" width="836" height="271"/><rect class="cls-12" x="1521.38" y="153.5" width="63" height="211"/><rect class="cls-2" x="1535.38" y="172.5" width="35" height="173"/><rect class="cls-12" x="1434.88" y="154" width="63" height="211"/><rect class="cls-2" x="1448.88" y="173" width="35" height="173"/><rect class="cls-13" x="1621.86" y="266.5" width="118" height="96"/><path class="cls-4" d="M1737.86,268.5v92h-114v-92h114m4-4h-122v100h122v-100Z"/><rect class="cls-2" x="1633.36" y="279" width="95" height="71"/><polygon class="cls-13" points="1623.41 247.46 1680.62 153.3 1738.29 247.46 1623.41 247.46"/><path class="cls-4" d="M1680.62,157.14l54.1,88.32H1627l53.65-88.32m0-7.68-60.75,100h122l-61.25-100Z"/><polygon class="cls-2" points="1720.29 236.79 1641.42 236.79 1680.7 172.14 1720.29 236.79"/><rect class="cls-13" x="1766.86" y="266.5" width="118" height="96"/><path class="cls-4" d="M1882.86,268.5v92h-114v-92h114m4-4h-122v100h122v-100Z"/><rect class="cls-2" x="1778.36" y="279" width="95" height="71"/><polygon class="cls-13" points="1768.41 247.46 1825.62 153.3 1883.29 247.46 1768.41 247.46"/><path class="cls-4" d="M1825.62,157.14l54.1,88.32H1772l53.65-88.32m0-7.68-60.75,100h122l-61.25-100Z"/><polygon class="cls-2" points="1865.29 236.79 1786.42 236.79 1825.7 172.14 1865.29 236.79"/><rect class="cls-13" x="1134.86" y="266.5" width="118" height="96"/><path class="cls-4" d="M1250.86,268.5v92h-114v-92h114m4-4h-122v100h122v-100Z"/><rect class="cls-2" x="1146.36" y="279" width="95" height="71"/><polygon class="cls-13" points="1136.41 247.46 1193.62 153.3 1251.29 247.46 1136.41 247.46"/><path class="cls-4" d="M1193.62,157.14l54.1,88.32H1140l53.65-88.32m0-7.68-60.75,100h122l-61.25-100Z"/><polygon class="cls-2" points="1233.29 236.79 1154.42 236.79 1193.7 172.14 1233.29 236.79"/><rect class="cls-13" x="1279.86" y="266.5" width="118" height="96"/><path class="cls-4" d="M1395.86,268.5v92h-114v-92h114m4-4h-122v100h122v-100Z"/><rect class="cls-2" x="1291.36" y="279" width="95" height="71"/><polygon class="cls-13" points="1281.41 247.46 1338.62 153.3 1396.29 247.46 1281.41 247.46"/><path class="cls-4" d="M1338.62,157.14l54.1,88.32H1285l53.65-88.32m0-7.68-60.75,100h122l-61.25-100Z"/><polygon class="cls-2" points="1378.29 236.79 1299.42 236.79 1338.7 172.14 1378.29 236.79"/><circle class="cls-14" cx="243.21" cy="446.5" r="44.5"/><circle class="cls-2" cx="243.58" cy="446.3" r="20.16"/><circle class="cls-15" cx="381.36" cy="446.4" r="44.5"/><circle class="cls-2" cx="381.36" cy="446.4" r="20.16"/><rect class="cls-4" x="237.33" y="376" width="12.67" height="4"/><rect class="cls-4" x="237.33" y="383.22" width="12.67" height="4"/><rect class="cls-4" x="237.33" y="390.44" width="12.67" height="4"/><rect class="cls-4" x="237.33" y="397.67" width="12.67" height="4"/><rect class="cls-4" x="237.33" y="404.89" width="12.67" height="4"/><rect class="cls-4" x="237.33" y="412.11" width="12.67" height="4"/><rect class="cls-4" x="237.33" y="419.33" width="12.67" height="4"/><rect class="cls-4" x="237.33" y="426.56" width="12.67" height="4"/><rect class="cls-4" x="237.33" y="433.78" width="12.67" height="4"/><rect class="cls-4" x="237.33" y="441" width="12.67" height="1"/><rect class="cls-4" x="374.33" y="376" width="12.67" height="4"/><rect class="cls-4" x="374.33" y="383.22" width="12.67" height="4"/><rect class="cls-4" x="374.33" y="390.44" width="12.67" height="4"/><rect class="cls-4" x="374.33" y="397.67" width="12.67" height="4"/><rect class="cls-4" x="374.33" y="404.89" width="12.67" height="4"/><rect class="cls-4" x="374.33" y="412.11" width="12.67" height="4"/><rect class="cls-4" x="374.33" y="419.33" width="12.67" height="4"/><rect class="cls-4" x="374.33" y="426.56" width="12.67" height="4"/><rect class="cls-4" x="374.33" y="433.78" width="12.67" height="4"/><rect class="cls-4" x="374.33" y="441" width="12.67" height="1"/><polygon class="cls-16" points="402.02 409 223.98 409 221 397 405 397 402.02 409"/><path class="cls-17" d="M237.29,442v6l19,20h112l19-20v-6Zm128,20H259.34L246,448h132.5Z"/><circle class="cls-18" cx="829.21" cy="446.5" r="44.5"/><circle class="cls-2" cx="829.58" cy="446.3" r="20.16"/><circle class="cls-19" cx="967.36" cy="446.4" r="44.5"/><circle class="cls-2" cx="967.36" cy="446.4" r="20.16"/><rect class="cls-4" x="823.33" y="376" width="12.67" height="4"/><rect class="cls-4" x="823.33" y="383.22" width="12.67" height="4"/><rect class="cls-4" x="823.33" y="390.44" width="12.67" height="4"/><rect class="cls-4" x="823.33" y="397.67" width="12.67" height="4"/><rect class="cls-4" x="823.33" y="404.89" width="12.67" height="4"/><rect class="cls-4" x="823.33" y="412.11" width="12.67" height="4"/><rect class="cls-4" x="823.33" y="419.33" width="12.67" height="4"/><rect class="cls-4" x="823.33" y="426.56" width="12.67" height="4"/><rect class="cls-4" x="823.33" y="433.78" width="12.67" height="4"/><rect class="cls-4" x="823.33" y="441" width="12.67" height="1"/><rect class="cls-4" x="960.33" y="376" width="12.67" height="4"/><rect class="cls-4" x="960.33" y="383.22" width="12.67" height="4"/><rect class="cls-4" x="960.33" y="390.44" width="12.67" height="4"/><rect class="cls-4" x="960.33" y="397.67" width="12.67" height="4"/><rect class="cls-4" x="960.33" y="404.89" width="12.67" height="4"/><rect class="cls-4" x="960.33" y="412.11" width="12.67" height="4"/><rect class="cls-4" x="960.33" y="419.33" width="12.67" height="4"/><rect class="cls-4" x="960.33" y="426.56" width="12.67" height="4"/><rect class="cls-4" x="960.33" y="433.78" width="12.67" height="4"/><rect class="cls-4" x="960.33" y="441" width="12.67" height="1"/><polygon class="cls-20" points="988.02 409 809.98 409 807 397 991 397 988.02 409"/><path class="cls-21" d="M823.29,442v6l19,20h112l19-20v-6Zm128,20H845.34L832,448h132.5Z"/><rect class="cls-4" x="175.5" y="103.38" width="862" height="298"/><rect class="cls-22" x="188.63" y="116.88" width="836" height="271"/><rect class="cls-12" x="618.38" y="153.5" width="63" height="211"/><rect class="cls-2" x="632.38" y="172.5" width="35" height="173"/><rect class="cls-12" x="531.88" y="154" width="63" height="211"/><rect class="cls-2" x="545.88" y="173" width="35" height="173"/><rect class="cls-13" x="718.86" y="266.5" width="118" height="96"/><path class="cls-4" d="M834.86,268.5v92h-114v-92h114m4-4h-122v100h122v-100Z"/><rect class="cls-2" x="730.36" y="279" width="95" height="71"/><polygon class="cls-13" points="720.41 247.46 777.62 153.3 835.29 247.46 720.41 247.46"/><path class="cls-4" d="M777.62,157.14l54.1,88.32H724l53.65-88.32m0-7.68-60.75,100h122l-61.25-100Z"/><polygon class="cls-2" points="817.29 236.79 738.42 236.79 777.7 172.14 817.29 236.79"/><rect class="cls-13" x="863.86" y="266.5" width="118" height="96"/><path class="cls-4" d="M979.86,268.5v92h-114v-92h114m4-4h-122v100h122v-100Z"/><rect class="cls-2" x="875.36" y="279" width="95" height="71"/><polygon class="cls-13" points="865.41 247.46 922.62 153.3 980.29 247.46 865.41 247.46"/><path class="cls-4" d="M922.62,157.14l54.1,88.32H869l53.65-88.32m0-7.68-60.75,100h122l-61.25-100Z"/><polygon class="cls-2" points="962.29 236.79 883.42 236.79 922.7 172.14 962.29 236.79"/><rect class="cls-13" x="231.86" y="266.5" width="118" height="96"/><path class="cls-4" d="M347.86,268.5v92h-114v-92h114m4-4h-122v100h122v-100Z"/><rect class="cls-2" x="243.36" y="279" width="95" height="71"/><polygon class="cls-13" points="233.41 247.46 290.62 153.3 348.29 247.46 233.41 247.46"/><path class="cls-4" d="M290.62,157.14l54.1,88.32H237l53.65-88.32m0-7.68-60.75,100h122l-61.25-100Z"/><polygon class="cls-2" points="330.29 236.79 251.42 236.79 290.7 172.14 330.29 236.79"/><rect class="cls-13" x="376.86" y="266.5" width="118" height="96"/><path class="cls-4" d="M492.86,268.5v92h-114v-92h114m4-4h-122v100h122v-100Z"/><rect class="cls-2" x="388.36" y="279" width="95" height="71"/><polygon class="cls-13" points="378.41 247.46 435.62 153.3 493.29 247.46 378.41 247.46"/><path class="cls-4" d="M435.62,157.14l54.1,88.32H382l53.65-88.32m0-7.68-60.75,100h122l-61.25-100Z"/><polygon class="cls-2" points="475.29 236.79 396.42 236.79 435.7 172.14 475.29 236.79"/><polygon class="cls-23" points="2000 401 1960 401 1960 344 2000 324 2000 401"/><polygon class="cls-24" points="2864 403 2706 403 2706 281.79 2864 342 2864 403"/><polygon class="cls-2" points="2852 447 2465 447 2434 402 2864 402 2852 447"/><polygon class="cls-2" points="2241 447 2014 447 1964 402 2282 402 2241 447"/><polygon class="cls-13" points="2820.94 212.71 2613.71 212.71 2628.86 193 2805.79 193 2820.94 212.71"/><polygon class="cls-25" points="2827 245.79 2607.65 245.79 2613.71 212.71 2820.94 212.71 2827 245.79"/><circle class="cls-26" cx="2782.36" cy="446.4" r="44.5"/><circle class="cls-2" cx="2782.36" cy="446.4" r="20.16"/><rect class="cls-4" x="2775.33" y="376" width="12.67" height="4"/><rect class="cls-4" x="2775.33" y="383.22" width="12.67" height="4"/><rect class="cls-4" x="2775.33" y="390.44" width="12.67" height="4"/><rect class="cls-4" x="2775.33" y="397.67" width="12.67" height="4"/><rect class="cls-4" x="2775.33" y="404.89" width="12.67" height="4"/><rect class="cls-4" x="2775.33" y="412.11" width="12.67" height="4"/><rect class="cls-4" x="2775.33" y="419.33" width="12.67" height="4"/><rect class="cls-4" x="2775.33" y="426.56" width="12.67" height="4"/><rect class="cls-4" x="2775.33" y="433.78" width="12.67" height="4"/><rect class="cls-4" x="2775.33" y="441" width="12.67" height="1"/><circle class="cls-27" cx="2058.21" cy="446.5" r="44.5"/><circle class="cls-2" cx="2058.58" cy="446.3" r="20.16"/><circle class="cls-28" cx="2196.36" cy="446.4" r="44.5"/><circle class="cls-2" cx="2196.36" cy="446.4" r="20.16"/><rect class="cls-4" x="2052.33" y="376" width="12.67" height="4"/><rect class="cls-4" x="2052.33" y="383.22" width="12.67" height="4"/><rect class="cls-4" x="2052.33" y="390.44" width="12.67" height="4"/><rect class="cls-4" x="2052.33" y="397.67" width="12.67" height="4"/><rect class="cls-4" x="2052.33" y="404.89" width="12.67" height="4"/><rect class="cls-4" x="2052.33" y="412.11" width="12.67" height="4"/><rect class="cls-4" x="2052.33" y="419.33" width="12.67" height="4"/><rect class="cls-4" x="2052.33" y="426.56" width="12.67" height="4"/><rect class="cls-4" x="2052.33" y="433.78" width="12.67" height="4"/><rect class="cls-4" x="2052.33" y="441" width="12.67" height="1"/><rect class="cls-4" x="2189.33" y="376" width="12.67" height="4"/><rect class="cls-4" x="2189.33" y="383.22" width="12.67" height="4"/><rect class="cls-4" x="2189.33" y="390.44" width="12.67" height="4"/><rect class="cls-4" x="2189.33" y="397.67" width="12.67" height="4"/><rect class="cls-4" x="2189.33" y="404.89" width="12.67" height="4"/><rect class="cls-4" x="2189.33" y="412.11" width="12.67" height="4"/><rect class="cls-4" x="2189.33" y="419.33" width="12.67" height="4"/><rect class="cls-4" x="2189.33" y="426.56" width="12.67" height="4"/><rect class="cls-4" x="2189.33" y="433.78" width="12.67" height="4"/><rect class="cls-4" x="2189.33" y="441" width="12.67" height="1"/><polygon class="cls-29" points="2220.02 409 2034.98 409 2032 397 2223 397 2220.02 409"/><circle class="cls-30" cx="2645.79" cy="446.5" r="44.5"/><circle class="cls-2" cx="2646.15" cy="446.3" r="20.16"/><rect class="cls-4" x="2639.9" y="376" width="12.67" height="4"/><rect class="cls-4" x="2639.9" y="383.22" width="12.67" height="4"/><rect class="cls-4" x="2639.9" y="390.44" width="12.67" height="4"/><rect class="cls-4" x="2639.9" y="397.67" width="12.67" height="4"/><rect class="cls-4" x="2639.9" y="404.89" width="12.67" height="4"/><rect class="cls-4" x="2639.9" y="412.11" width="12.67" height="4"/><rect class="cls-4" x="2639.9" y="419.33" width="12.67" height="4"/><rect class="cls-4" x="2639.9" y="426.56" width="12.67" height="4"/><rect class="cls-4" x="2639.9" y="433.78" width="12.67" height="4"/><rect class="cls-4" x="2639.9" y="441" width="12.67" height="1"/><circle class="cls-31" cx="2509.21" cy="446.5" r="44.5"/><circle class="cls-2" cx="2509.58" cy="446.3" r="20.16"/><rect class="cls-4" x="2503.33" y="376" width="12.67" height="4"/><rect class="cls-4" x="2503.33" y="383.22" width="12.67" height="4"/><rect class="cls-4" x="2503.33" y="390.44" width="12.67" height="4"/><rect class="cls-4" x="2503.33" y="397.67" width="12.67" height="4"/><rect class="cls-4" x="2503.33" y="404.89" width="12.67" height="4"/><rect class="cls-4" x="2503.33" y="412.11" width="12.67" height="4"/><rect class="cls-4" x="2503.33" y="419.33" width="12.67" height="4"/><rect class="cls-4" x="2503.33" y="426.56" width="12.67" height="4"/><rect class="cls-4" x="2503.33" y="433.78" width="12.67" height="4"/><rect class="cls-4" x="2503.33" y="441" width="12.67" height="1"/><polygon class="cls-32" points="2695 104.29 2011 104.29 2061 78 2645 78 2695 104.29"/><polygon class="cls-33" points="2715 148.43 1991 148.43 2011 104.29 2695 104.29 2715 148.43"/><polygon class="cls-34" points="2806.02 409 2484.98 409 2482 401 2809 401 2806.02 409"/><rect class="cls-35" x="2607.5" y="246.16" width="219.35" height="155.21"/><rect class="cls-36" x="1990.5" y="148.43" width="724" height="252.95"/><polygon class="cls-2" points="1991 229.25 2246 229.25 2311 322 2358 229 2503 229 2496 242 2360 242 2310 340 2238 242 1991 242 1991 229.25"/><polygon class="cls-25" points="2701 383 2540 383 2540 291.32 2555.29 279.22 2555.29 168 2701 168 2701 383"/><rect class="cls-13" x="2593.95" y="181.2" width="70.1" height="94.85"/><path class="cls-23" d="M2661.1,184.15v89h-64.2v-89h64.2m5.9-5.9h-76V279h76V178.25Z"/><rect class="cls-2" x="2607.75" y="196.89" width="42.51" height="63.48"/><path class="cls-23" d="M2648.41,198.73v59.79h-38.82V198.73h38.82m3.69-3.69h-46.2v67.17h46.2V195Z"/><rect class="cls-23" x="2052" y="276" width="430" height="9"/><rect class="cls-23" x="2052" y="308" width="430" height="9"/><rect class="cls-23" x="2052" y="333" width="430" height="9"/><rect class="cls-23" x="2103" y="285" width="9" height="48"/><rect class="cls-23" x="2052" y="285" width="9" height="48"/><rect class="cls-23" x="2172" y="285" width="9" height="48"/><rect class="cls-23" x="2236" y="285" width="9" height="48"/><rect class="cls-23" x="2364" y="285" width="9" height="48"/><rect class="cls-23" x="2428" y="285" width="9" height="48"/><rect class="cls-23" x="2473" y="285" width="9" height="48"/></svg>