<svg id="图层_1" data-name="图层 1" xmlns="http://www.w3.org/2000/svg" xmlns:xlink="http://www.w3.org/1999/xlink" viewBox="0 0 512 512"><defs><style>.cls-1{fill:#afafaf;}.cls-2{fill:#d9dbdb;}.cls-3{fill:none;}.cls-4{fill:url(#未命名的渐变_71);}.cls-5{fill:url(#未命名的渐变_71-2);}</style><linearGradient id="未命名的渐变_71" x1="269" y1="278.11" x2="269" y2="388" gradientUnits="userSpaceOnUse"><stop offset="0" stop-color="#b3b3b3"/><stop offset="0.6" stop-color="#828282"/><stop offset="0.99" stop-color="#666"/></linearGradient><linearGradient id="未命名的渐变_71-2" x1="215.01" y1="180.14" x2="297.21" y2="322.52" xlink:href="#未命名的渐变_71"/></defs><title>设备图标汇总</title><rect class="cls-1" x="202.24" y="127.07" width="68.55" height="37.86" transform="translate(-31.17 220.84) rotate(-47.31)"/><circle class="cls-2" cx="245.48" cy="135.89" r="8.64"/><circle class="cls-2" cx="226.63" cy="157.58" r="8.64"/><path class="cls-3" d="M332.8,361l4.53-54.73a403.64,403.64,0,0,1-135.48,39.57L205.2,361Z"/><path class="cls-4" d="M332.8,361H205.2l-3.35-15.16A380,380,0,0,1,161.5,348q-6.25,0-12.45-.15L145.8,368H114.35a2.35,2.35,0,0,0-2.35,2.35v15.3a2.35,2.35,0,0,0,2.35,2.35h309.3a2.35,2.35,0,0,0,2.35-2.35v-15.3a2.35,2.35,0,0,0-2.35-2.35H392.2l-6.89-89.89a383.32,383.32,0,0,1-48,28.16Z"/><path class="cls-5" d="M425.78,234l-4-117L288,138l-53.22,58L59,280.79V281h-.22l.95,51.46A504.67,504.67,0,0,0,158.28,342C271.41,342,370.4,291,424.67,237.08Z"/></svg>