<svg id="图层_1" data-name="图层 1" xmlns="http://www.w3.org/2000/svg" xmlns:xlink="http://www.w3.org/1999/xlink" viewBox="0 0 512 512"><defs><style>.cls-1{fill:url(#未命名的渐变_5);}.cls-2{fill:url(#未命名的渐变_5-2);}.cls-3{fill:url(#未命名的渐变_5-3);}.cls-4{fill:url(#未命名的渐变_5-4);}.cls-5{fill:url(#未命名的渐变_5-5);}.cls-6{fill:url(#未命名的渐变_5-6);}.cls-7{fill:url(#未命名的渐变_5-7);}.cls-8{fill:url(#未命名的渐变_5-8);}.cls-9{fill:url(#未命名的渐变_5-9);}.cls-10{fill:url(#未命名的渐变_5-10);}.cls-11{fill:url(#未命名的渐变_68);}.cls-12{fill:url(#未命名的渐变_68-2);}.cls-13{fill:url(#未命名的渐变_68-3);}.cls-14{fill:url(#未命名的渐变_68-4);}.cls-15{fill:url(#未命名的渐变_68-5);}.cls-16{fill:url(#未命名的渐变_68-6);}.cls-17{fill:url(#未命名的渐变_68-7);}.cls-18{fill:url(#未命名的渐变_68-8);}.cls-19{fill:url(#未命名的渐变_5-11);}</style><linearGradient id="未命名的渐变_5" x1="119.73" y1="236.6" x2="119.73" y2="377.23" gradientUnits="userSpaceOnUse"><stop offset="0.15" stop-color="gray"/><stop offset="0.32" stop-color="#767676"/><stop offset="0.62" stop-color="#5c5c5c"/><stop offset="0.99" stop-color="#333"/></linearGradient><linearGradient id="未命名的渐变_5-2" x1="210.33" y1="236.6" x2="210.33" y2="377.23" xlink:href="#未命名的渐变_5"/><linearGradient id="未命名的渐变_5-3" x1="300.94" y1="236.6" x2="300.94" y2="377.23" xlink:href="#未命名的渐变_5"/><linearGradient id="未命名的渐变_5-4" x1="391.55" y1="236.6" x2="391.55" y2="377.23" xlink:href="#未命名的渐变_5"/><linearGradient id="未命名的渐变_5-5" x1="119.73" y1="207.21" x2="119.73" y2="230.3" xlink:href="#未命名的渐变_5"/><linearGradient id="未命名的渐变_5-6" x1="210.33" y1="207.21" x2="210.33" y2="230.3" xlink:href="#未命名的渐变_5"/><linearGradient id="未命名的渐变_5-7" x1="300.94" y1="207.21" x2="300.94" y2="230.3" xlink:href="#未命名的渐变_5"/><linearGradient id="未命名的渐变_5-8" x1="391.55" y1="207.21" x2="391.55" y2="230.3" xlink:href="#未命名的渐变_5"/><linearGradient id="未命名的渐变_5-9" x1="455.04" y1="236.69" x2="455.04" y2="377.05" xlink:href="#未命名的渐变_5"/><linearGradient id="未命名的渐变_5-10" x1="55.71" y1="236.6" x2="55.71" y2="377.23" xlink:href="#未命名的渐变_5"/><linearGradient id="未命名的渐变_68" x1="1456.3" y1="329.5" x2="1456.3" y2="289" gradientTransform="translate(-189.42 1653.75) rotate(-90)" gradientUnits="userSpaceOnUse"><stop offset="0" stop-color="#404040"/><stop offset="1" stop-color="#5e5e5e"/></linearGradient><linearGradient id="未命名的渐变_68-2" x1="1510.23" y1="329.5" x2="1510.23" y2="289" xlink:href="#未命名的渐变_68"/><linearGradient id="未命名的渐变_68-3" x1="1465.72" y1="329.5" x2="1465.72" y2="289" xlink:href="#未命名的渐变_68"/><linearGradient id="未命名的渐变_68-4" x1="1487.22" y1="294.37" x2="1487.22" y2="289" xlink:href="#未命名的渐变_68"/><linearGradient id="未命名的渐变_68-5" x1="1487.22" y1="303.05" x2="1487.22" y2="297.69" xlink:href="#未命名的渐变_68"/><linearGradient id="未命名的渐变_68-6" x1="1487.22" y1="311.74" x2="1487.22" y2="306.37" xlink:href="#未命名的渐变_68"/><linearGradient id="未命名的渐变_68-7" x1="1487.22" y1="320.42" x2="1487.22" y2="315.06" xlink:href="#未命名的渐变_68"/><linearGradient id="未命名的渐变_68-8" x1="1487.22" y1="329.1" x2="1487.22" y2="323.74" xlink:href="#未命名的渐变_68"/><linearGradient id="未命名的渐变_5-11" x1="120" y1="198" x2="120" y2="208" xlink:href="#未命名的渐变_5"/></defs><title>设备图标汇总</title><rect class="cls-1" x="77.75" y="236.6" width="83.96" height="140.63"/><rect class="cls-2" x="168.35" y="236.6" width="83.96" height="140.63"/><rect class="cls-3" x="258.96" y="236.6" width="83.96" height="140.63"/><rect class="cls-4" x="349.57" y="236.6" width="83.96" height="140.63"/><rect class="cls-5" x="77.75" y="207.21" width="83.96" height="23.09"/><rect class="cls-6" x="168.35" y="207.21" width="83.96" height="23.09"/><rect class="cls-7" x="258.96" y="207.21" width="83.96" height="23.09"/><rect class="cls-8" x="349.57" y="207.21" width="83.96" height="23.09"/><polygon class="cls-9" points="440.09 236.69 440.09 377.05 470 356.24 470 247.09 440.09 236.69"/><polygon class="cls-10" points="70.4 236.6 40.75 247.09 40.75 356.24 70.14 377.23 70.66 377.23 70.66 236.6 70.4 236.6"/><path class="cls-11" d="M104.93,202h29.81a5.44,5.44,0,0,0,5.34-5.52v-3.53H99.58v3.53A5.45,5.45,0,0,0,104.93,202Z"/><path class="cls-12" d="M99.58,144.53v3.52h40.5v-3.52a5.45,5.45,0,0,0-5.34-5.53H104.93A5.46,5.46,0,0,0,99.58,144.53Z"/><rect class="cls-13" x="99.58" y="185.01" width="40.5" height="6.03"/><rect class="cls-14" x="99.58" y="149.56" width="5.36" height="33.94"/><rect class="cls-15" x="108.27" y="149.56" width="5.36" height="33.94"/><rect class="cls-16" x="116.95" y="149.56" width="5.36" height="33.94"/><rect class="cls-17" x="125.64" y="149.56" width="5.36" height="33.94"/><rect class="cls-18" x="134.32" y="149.56" width="5.36" height="33.94"/><rect class="cls-19" x="95" y="198" width="50" height="10"/></svg>