<svg id="图层_1" data-name="图层 1" xmlns="http://www.w3.org/2000/svg" xmlns:xlink="http://www.w3.org/1999/xlink" viewBox="0 0 512 512"><defs><style>.cls-1{fill:#afafaf;}.cls-2{fill:#898989;}.cls-3{fill:url(#未命名的渐变_68);}.cls-4{fill:url(#未命名的渐变_68-2);}.cls-5{fill:url(#未命名的渐变_68-3);}.cls-6{fill:url(#未命名的渐变_68-4);}</style><linearGradient id="未命名的渐变_68" x1="351.02" y1="333.38" x2="402.19" y2="333.38" gradientUnits="userSpaceOnUse"><stop offset="0" stop-color="#404040"/><stop offset="1" stop-color="#5e5e5e"/></linearGradient><linearGradient id="未命名的渐变_68-2" x1="328" y1="353.88" x2="361.56" y2="353.88" xlink:href="#未命名的渐变_68"/><linearGradient id="未命名的渐变_68-3" x1="350.72" y1="370.94" x2="401.96" y2="370.94" xlink:href="#未命名的渐变_68"/><linearGradient id="未命名的渐变_68-4" x1="356.63" y1="354.14" x2="373.46" y2="354.14" xlink:href="#未命名的渐变_68"/></defs><title>设备图标汇总</title><rect class="cls-1" x="106" y="72" width="287.45" height="195.34"/><polygon class="cls-1" points="292.23 336.04 207.21 336.04 106 270.25 393.45 270.25 292.23 336.04"/><rect class="cls-2" x="203.95" y="336.55" width="90.08" height="8.1"/><rect class="cls-2" x="106" y="263.3" width="287.45" height="8.1"/><polygon class="cls-1" points="291.22 367.55 208.23 380.7 208.23 345.28 291.22 345.28 291.22 367.55"/><path class="cls-1" d="M260.74,440.7l-52.51-60,83-13.15,21.6,23.54a4,4,0,0,1,1.58,4.78l-47.67,42.82A4,4,0,0,1,260.74,440.7Z"/><polygon class="cls-2" points="320.11 394.14 261.83 445 256.26 439.13 314.54 388.27 320.11 394.14"/><path class="cls-3" d="M356.4,344.83,351,319.69s40.39-14.36,51.17,29.62c0,0-14.07-8.54-29.81-8.33A35.14,35.14,0,0,0,356.4,344.83Z"/><path class="cls-4" d="M361.56,366.21l-19.07,17.23s-32.64-27.8.07-59.13c0,0-.36,16.46,7.68,30A35.27,35.27,0,0,0,361.56,366.21Z"/><path class="cls-5" d="M377.5,351.05,402,359s-7.76,42.17-51.24,29.5c0,0,14.44-7.91,22.12-21.64A35.15,35.15,0,0,0,377.5,351.05Z"/><circle class="cls-6" cx="365.04" cy="354.14" r="8.42"/></svg>