<svg id="图层_1" data-name="图层 1" xmlns="http://www.w3.org/2000/svg" xmlns:xlink="http://www.w3.org/1999/xlink" viewBox="0 0 2729 512"><defs><style>.cls-1{fill:url(#未命名的渐变_52);}.cls-2{fill:url(#未命名的渐变_52-2);}.cls-3{fill:url(#未命名的渐变_53);}.cls-4{fill:#999;}.cls-5{fill:#e6e6e6;}</style><linearGradient id="未命名的渐变_52" x1="101" y1="265" x2="101" y2="310" gradientUnits="userSpaceOnUse"><stop offset="0" stop-color="#737373"/><stop offset="1" stop-color="#4d4d4d"/></linearGradient><linearGradient id="未命名的渐变_52-2" x1="3333" x2="3333" gradientTransform="matrix(-1, 0, 0, 1, 5996, 0)" xlink:href="#未命名的渐变_52"/><linearGradient id="未命名的渐变_53" x1="1382" y1="289.15" x2="1382" y2="193.9" gradientUnits="userSpaceOnUse"><stop offset="0" stop-color="#787878"/><stop offset="1" stop-color="#595959"/></linearGradient></defs><title>设备图标汇总</title><polygon class="cls-1" points="147 310 55 310 55 265 70.17 265 69.98 293 147 293 147 310"/><polygon class="cls-2" points="2617 310 2709 310 2709 265 2693.83 265 2694.02 293 2617 293 2617 310"/><rect class="cls-3" x="74" y="193.9" width="2616" height="95.25"/><polygon class="cls-4" points="137.12 221.59 2627.05 221.48 2626.93 262.47 137 262.58 137.12 221.59"/><path class="cls-5" d="M2625,223.48l-.1,37L139,260.58l.1-37,2485.93-.1m4-4-2493.93.1-.12,45,2493.93-.11.12-45Z"/><rect class="cls-4" x="121.51" y="227.64" width="28.49" height="27.78" transform="translate(-131.03 166.73) rotate(-45)"/><path class="cls-5" d="M136,224.47l16.81,16.81L135.5,258.59l-16.81-16.81L136,224.47m0-5.66-23,23,22.47,22.47,23-23L136,218.81Z"/><rect class="cls-4" x="2614.51" y="227.64" width="28.49" height="27.78" transform="translate(599.18 1929.57) rotate(-45)"/><path class="cls-5" d="M2629,224.47l16.81,16.81-17.31,17.31-16.81-16.81L2629,224.47m0-5.66-23,23,22.47,22.47,23-23L2629,218.81Z"/></svg>