<svg id="图层_1" data-name="图层 1" xmlns="http://www.w3.org/2000/svg" xmlns:xlink="http://www.w3.org/1999/xlink" viewBox="0 0 512 512"><defs><style>.cls-1{fill:url(#未命名的渐变_68);}.cls-2{fill:url(#未命名的渐变_68-2);}.cls-3{fill:url(#未命名的渐变_68-3);}.cls-4{fill:url(#未命名的渐变_68-4);}.cls-5{fill:url(#未命名的渐变_68-5);}.cls-6{fill:url(#未命名的渐变_68-6);}.cls-7{fill:url(#未命名的渐变_68-7);}.cls-8{fill:url(#未命名的渐变_68-8);}.cls-9{fill:url(#未命名的渐变_68-9);}.cls-10{fill:url(#未命名的渐变_68-10);}.cls-11{fill:url(#未命名的渐变_11);}.cls-12{fill:#4d4d4d;}.cls-13{fill:url(#未命名的渐变_178);}.cls-14{fill:url(#未命名的渐变_178-2);}.cls-15{fill:url(#未命名的渐变_5);}.cls-16{fill:url(#未命名的渐变_178-3);}.cls-17{fill:url(#未命名的渐变_25);}.cls-18{fill:url(#未命名的渐变_11-2);}.cls-19{fill:url(#未命名的渐变_11-3);}.cls-20{fill:url(#未命名的渐变_11-4);}.cls-21{fill:url(#未命名的渐变_15);}.cls-22{fill:url(#未命名的渐变_15-2);}</style><linearGradient id="未命名的渐变_68" x1="444.95" y1="-852.93" x2="444.95" y2="-930.68" gradientTransform="translate(1029.68 786.65) rotate(-90)" gradientUnits="userSpaceOnUse"><stop offset="0" stop-color="#404040"/><stop offset="1" stop-color="#5e5e5e"/></linearGradient><linearGradient id="未命名的渐变_68-2" x1="484.65" y1="-923.68" x2="484.65" y2="-930.68" xlink:href="#未命名的渐变_68"/><linearGradient id="未命名的渐变_68-3" x1="484.65" y1="-911.89" x2="484.65" y2="-918.89" xlink:href="#未命名的渐变_68"/><linearGradient id="未命名的渐变_68-4" x1="484.65" y1="-900.1" x2="484.65" y2="-907.1" xlink:href="#未命名的渐变_68"/><linearGradient id="未命名的渐变_68-5" x1="484.65" y1="-888.3" x2="484.65" y2="-895.31" xlink:href="#未命名的渐变_68"/><linearGradient id="未命名的渐变_68-6" x1="484.65" y1="-876.51" x2="484.65" y2="-883.52" xlink:href="#未命名的渐变_68"/><linearGradient id="未命名的渐变_68-7" x1="484.65" y1="-864.72" x2="484.65" y2="-871.73" xlink:href="#未命名的渐变_68"/><linearGradient id="未命名的渐变_68-8" x1="484.65" y1="-852.93" x2="484.65" y2="-859.94" xlink:href="#未命名的渐变_68"/><linearGradient id="未命名的渐变_68-9" x1="137.87" y1="259.94" x2="137.87" y2="240" gradientTransform="matrix(1, 0, 0, 1, 0, 0)" xlink:href="#未命名的渐变_68"/><linearGradient id="未命名的渐变_68-10" x1="137.87" y1="277.33" x2="137.87" y2="261.49" gradientTransform="matrix(1, 0, 0, 1, 0, 0)" xlink:href="#未命名的渐变_68"/><linearGradient id="未命名的渐变_11" x1="227.5" y1="328" x2="227.5" y2="399" gradientTransform="matrix(-1, 0, 0, 1, 437, 0)" gradientUnits="userSpaceOnUse"><stop offset="0.16" stop-color="#404040"/><stop offset="0.59" stop-color="#3c3c3c"/><stop offset="0.94" stop-color="#333"/></linearGradient><linearGradient id="未命名的渐变_178" x1="416.5" y1="-40.18" x2="416.5" y2="140.24" gradientTransform="matrix(0, 0.47, -0.31, 0, 345.06, -60.86)" gradientUnits="userSpaceOnUse"><stop offset="0" stop-color="#8a8a8a"/><stop offset="1" stop-color="#545454"/></linearGradient><linearGradient id="未命名的渐变_178-2" x1="337.1" y1="121.53" x2="337.1" y2="250.23" gradientTransform="matrix(0, 1.41, -0.84, 0, 485.4, -274.92)" xlink:href="#未命名的渐变_178"/><linearGradient id="未命名的渐变_5" x1="48" y1="373.59" x2="262.12" y2="373.59" gradientUnits="userSpaceOnUse"><stop offset="0.15" stop-color="gray"/><stop offset="0.32" stop-color="#767676"/><stop offset="0.62" stop-color="#5c5c5c"/><stop offset="0.99" stop-color="#333"/></linearGradient><linearGradient id="未命名的渐变_178-3" x1="329.59" y1="268.58" x2="329.59" y2="399.19" gradientTransform="matrix(1, 0, 0, 1, 0, 0)" xlink:href="#未命名的渐变_178"/><linearGradient id="未命名的渐变_25" x1="25" y1="407" x2="485" y2="407" gradientUnits="userSpaceOnUse"><stop offset="0" stop-color="#404040"/><stop offset="0.99" stop-color="#333"/></linearGradient><linearGradient id="未命名的渐变_11-2" x1="329.59" y1="254" x2="329.59" y2="270" gradientTransform="matrix(1, 0, 0, 1, 0, 0)" xlink:href="#未命名的渐变_11"/><linearGradient id="未命名的渐变_11-3" x1="329.59" y1="103" x2="329.59" y2="108" gradientTransform="matrix(1, 0, 0, 1, 0, 0)" xlink:href="#未命名的渐变_11"/><linearGradient id="未命名的渐变_11-4" x1="450.5" y1="328" x2="450.5" y2="399" gradientTransform="matrix(1, 0, 0, 1, 0, 0)" xlink:href="#未命名的渐变_11"/><linearGradient id="未命名的渐变_15" x1="357.59" y1="363.5" x2="387.59" y2="363.5" gradientUnits="userSpaceOnUse"><stop offset="0" stop-color="#404040"/><stop offset="1" stop-color="#474747"/></linearGradient><linearGradient id="未命名的渐变_15-2" x1="366.41" y1="328" x2="366.41" y2="399" gradientTransform="matrix(-1, 0, 0, 1, 653, 0)" xlink:href="#未命名的渐变_15"/></defs><title>设备图标汇总</title><rect class="cls-1" x="99" y="334.3" width="77.75" height="14.79"/><rect class="cls-2" x="99" y="269.39" width="7" height="65.22"/><rect class="cls-3" x="110.79" y="269.39" width="7" height="65.22"/><rect class="cls-4" x="122.58" y="269.39" width="7" height="65.22"/><rect class="cls-5" x="134.37" y="269.39" width="7" height="65.22"/><rect class="cls-6" x="146.16" y="269.39" width="7" height="65.22"/><rect class="cls-7" x="157.95" y="269.39" width="7" height="65.22"/><rect class="cls-8" x="169.75" y="269.39" width="7" height="65.22"/><polygon class="cls-9" points="176.75 259.94 176.75 259.72 156.49 240 119.27 240 99 259.72 99 259.94 176.75 259.94"/><rect class="cls-10" x="99" y="261.49" width="77.75" height="15.84"/><polygon class="cls-11" points="196 399 223 399 223 328 210 328 196 399"/><polygon class="cls-12" points="223 399 220 399 221 328 223 328 223 399"/><rect class="cls-13" x="301.68" y="98.34" width="55.82" height="71.01" transform="translate(195.12 463.17) rotate(-89.89)"/><rect class="cls-14" x="275.65" y="92.95" width="107.88" height="213.98" transform="translate(129.02 529.15) rotate(-89.89)"/><rect class="cls-15" x="48" y="348" width="214.12" height="51.19"/><rect class="cls-16" x="222.53" y="268.58" width="214.12" height="130.6"/><rect class="cls-17" x="25" y="399" width="460" height="16"/><rect class="cls-18" x="212.09" y="254" width="235" height="16"/><rect class="cls-19" x="285.09" y="103" width="89" height="5"/><polygon class="cls-20" points="464 399 437 399 437 328 450 328 464 399"/><polygon class="cls-21" points="387.59 399 357.59 399 357.59 328 366.59 328 387.59 399"/><polygon class="cls-22" points="271.59 399 301.59 399 301.59 328 292.59 328 271.59 399"/><polygon class="cls-12" points="304 399 301 399 301 328 303 328 304 399"/><polygon class="cls-12" points="358 399 355 399 356 328 358 328 358 399"/><polygon class="cls-12" points="437 399 439 399 438 328 437 328 437 399"/></svg>