<svg id="图层_1" data-name="图层 1" xmlns="http://www.w3.org/2000/svg" xmlns:xlink="http://www.w3.org/1999/xlink" viewBox="0 0 512 512"><defs><style>.cls-1{fill:#666;}.cls-2{fill:url(#未命名的渐变_178);}.cls-3{fill:url(#未命名的渐变_178-2);}.cls-4{fill:url(#未命名的渐变_178-3);}.cls-5{fill:url(#未命名的渐变_178-4);}.cls-6{fill:url(#未命名的渐变_5);}.cls-7{fill:url(#未命名的渐变_178-5);}.cls-8{fill:url(#未命名的渐变_178-6);}.cls-9{fill:url(#未命名的渐变_178-7);}.cls-10{fill:url(#未命名的渐变_178-8);}.cls-11{fill:url(#未命名的渐变_178-9);}.cls-12{fill:url(#未命名的渐变_235);}.cls-13{fill:gray;stroke:#fff;stroke-miterlimit:10;stroke-width:4px;}</style><linearGradient id="未命名的渐变_178" x1="147.62" y1="89.13" x2="147.62" y2="111.85" gradientUnits="userSpaceOnUse"><stop offset="0" stop-color="#8a8a8a"/><stop offset="1" stop-color="#545454"/></linearGradient><linearGradient id="未命名的渐变_178-2" x1="147.62" y1="104.75" x2="147.62" y2="141.66" xlink:href="#未命名的渐变_178"/><linearGradient id="未命名的渐变_178-3" x1="147.58" y1="121.38" x2="147.58" y2="261.93" gradientTransform="translate(0.42 -1.3) rotate(0.11)" xlink:href="#未命名的渐变_178"/><linearGradient id="未命名的渐变_178-4" x1="147.46" y1="121.24" x2="147.46" y2="140.51" gradientTransform="translate(0.42 -1.3) rotate(0.11)" xlink:href="#未命名的渐变_178"/><linearGradient id="未命名的渐变_5" x1="192.06" y1="268.58" x2="192.06" y2="399.19" gradientUnits="userSpaceOnUse"><stop offset="0.15" stop-color="gray"/><stop offset="0.32" stop-color="#767676"/><stop offset="0.62" stop-color="#5c5c5c"/><stop offset="0.99" stop-color="#333"/></linearGradient><linearGradient id="未命名的渐变_178-5" x1="281.49" y1="168.63" x2="281.49" y2="199.89" xlink:href="#未命名的渐变_178"/><linearGradient id="未命名的渐变_178-6" x1="281.49" y1="199.89" x2="281.49" y2="237.09" xlink:href="#未命名的渐变_178"/><linearGradient id="未命名的渐变_178-7" x1="281.49" y1="243.05" x2="281.49" y2="260.91" xlink:href="#未命名的渐变_178"/><linearGradient id="未命名的渐变_178-8" x1="147.62" y1="65" x2="147.62" y2="96.23" xlink:href="#未命名的渐变_178"/><linearGradient id="未命名的渐变_178-9" x1="413.16" y1="183.41" x2="413.16" y2="312.59" xlink:href="#未命名的渐变_178"/><linearGradient id="未命名的渐变_235" x1="251.68" y1="406.87" x2="251.68" y2="431" gradientUnits="userSpaceOnUse"><stop offset="0.16" stop-color="#404040"/><stop offset="0.32" stop-color="#444"/><stop offset="0.47" stop-color="#4f4f4f"/><stop offset="0.6" stop-color="#5e5e5e"/><stop offset="0.7" stop-color="#4e4e4e"/><stop offset="0.88" stop-color="#3a3a3a"/><stop offset="0.99" stop-color="#333"/></linearGradient></defs><title>设备图标汇总</title><rect class="cls-1" x="383.71" y="312.59" width="11.36" height="86.6"/><rect class="cls-1" x="434.81" y="312.59" width="11.36" height="86.6"/><rect class="cls-2" x="137.69" y="89.13" width="19.87" height="22.71" rx="3.01"/><rect class="cls-3" x="119.94" y="104.75" width="55.36" height="36.91" rx="6.41"/><path class="cls-4" d="M223.45,261.05l-151.9-.29.25-128.7c0-15.79,151.92-15.5,151.89.29Z"/><path class="cls-5" d="M223.45,131.72l-151.9-.29s.22,15,.25.48c0-15.78,151.92-15.49,151.89.29C223.66,149.2,223.45,131.72,223.45,131.72Z"/><rect class="cls-6" x="43" y="268.58" width="298.12" height="130.6"/><rect class="cls-7" x="237.49" y="168.63" width="88.02" height="31.25"/><polygon class="cls-8" points="305.5 237.09 257.49 237.09 237.49 199.89 325.5 199.89 305.5 237.09"/><rect class="cls-9" x="241.49" y="243.05" width="80.01" height="17.86"/><rect class="cls-10" x="132.01" y="65" width="31.23" height="31.23" rx="5.06"/><rect class="cls-11" x="361.35" y="183.41" width="103.63" height="129.18"/><path class="cls-12" d="M459.67,410.3a1.94,1.94,0,0,0-1.26-3.43H45a2,2,0,0,0-1.26,3.43,11.34,11.34,0,0,1,0,17.27A2,2,0,0,0,45,431H458.41a1.94,1.94,0,0,0,1.26-3.43A11.34,11.34,0,0,1,459.67,410.3Z"/><rect class="cls-13" x="389.38" y="218.9" width="51.11" height="35.49"/></svg>