<svg id="图层_1" data-name="图层 1" xmlns="http://www.w3.org/2000/svg" xmlns:xlink="http://www.w3.org/1999/xlink" viewBox="0 0 512 512"><defs><style>.cls-1{fill:url(#未命名的渐变_53);}.cls-2{fill:url(#未命名的渐变_181);}.cls-3{fill:url(#未命名的渐变_194);}.cls-4{fill:url(#未命名的渐变_144);}.cls-5{fill:url(#未命名的渐变_53-2);}.cls-6{fill:url(#未命名的渐变_53-3);}.cls-7{fill:url(#未命名的渐变_53-4);}.cls-8{fill:url(#未命名的渐变_144-2);}.cls-9{fill:url(#未命名的渐变_6);}.cls-10{fill:url(#未命名的渐变_68);}.cls-11{fill:url(#未命名的渐变_68-2);}.cls-12{fill:url(#未命名的渐变_68-3);}.cls-13{fill:url(#未命名的渐变_68-4);}.cls-14{fill:url(#未命名的渐变_68-5);}.cls-15{fill:url(#未命名的渐变_68-6);}.cls-16{fill:url(#未命名的渐变_68-7);}.cls-17{fill:url(#未命名的渐变_68-8);}.cls-18{fill:url(#未命名的渐变_5);}.cls-19{fill:url(#未命名的渐变_68-9);}.cls-20{fill:url(#未命名的渐变_68-10);}.cls-21{fill:url(#未命名的渐变_68-11);}.cls-22{fill:url(#未命名的渐变_68-12);}</style><linearGradient id="未命名的渐变_53" x1="358" y1="248.7" x2="396.37" y2="248.7" gradientUnits="userSpaceOnUse"><stop offset="0" stop-color="#787878"/><stop offset="1" stop-color="#595959"/></linearGradient><linearGradient id="未命名的渐变_181" x1="583.1" y1="191.64" x2="583.1" y2="147.66" gradientTransform="translate(989.98 422.32) rotate(-179.44)" gradientUnits="userSpaceOnUse"><stop offset="0" stop-color="#5c5c5c"/><stop offset="0.48" stop-color="#8f8f8f"/><stop offset="1" stop-color="#636363"/></linearGradient><linearGradient id="未命名的渐变_194" x1="574.26" y1="261.31" x2="574.26" y2="212.46" gradientTransform="matrix(-0.98, 0.19, 0.19, 0.98, 944.06, -92.83)" gradientUnits="userSpaceOnUse"><stop offset="0" stop-color="#171717"/><stop offset="0.3" stop-color="#4e4e4e"/><stop offset="0.51" stop-color="#707070"/><stop offset="0.89" stop-color="#2e2e2e"/><stop offset="1" stop-color="#1a1a1a"/></linearGradient><linearGradient id="未命名的渐变_144" x1="220.79" y1="429.5" x2="271.79" y2="429.5" gradientUnits="userSpaceOnUse"><stop offset="0" stop-color="#333"/><stop offset="0.15" stop-color="#363636"/><stop offset="0.24" stop-color="#3f3f3f"/><stop offset="0.33" stop-color="#4e4e4e"/><stop offset="0.4" stop-color="#636363"/><stop offset="0.47" stop-color="#7e7e7e"/><stop offset="0.51" stop-color="#919191"/><stop offset="0.59" stop-color="#757575"/><stop offset="0.69" stop-color="#585858"/><stop offset="0.8" stop-color="#434343"/><stop offset="0.9" stop-color="#373737"/><stop offset="1" stop-color="#333"/></linearGradient><linearGradient id="未命名的渐变_53-2" x1="246.29" y1="171" x2="246.29" y2="326.58" xlink:href="#未命名的渐变_53"/><linearGradient id="未命名的渐变_53-3" x1="223" y1="85" x2="223" y2="103" xlink:href="#未命名的渐变_53"/><linearGradient id="未命名的渐变_53-4" x1="117.06" y1="372.19" x2="375.52" y2="372.19" xlink:href="#未命名的渐变_53"/><linearGradient id="未命名的渐变_144-2" x1="208.79" y1="459.5" x2="283.79" y2="459.5" xlink:href="#未命名的渐变_144"/><linearGradient id="未命名的渐变_6" x1="117.29" y1="329" x2="375.29" y2="329" gradientUnits="userSpaceOnUse"><stop offset="0" stop-color="#333"/><stop offset="0.2" stop-color="#363636"/><stop offset="0.34" stop-color="#3f3f3f"/><stop offset="0.46" stop-color="#4e4e4e"/><stop offset="0.51" stop-color="#575757"/><stop offset="0.67" stop-color="#434343"/><stop offset="0.84" stop-color="#373737"/><stop offset="1" stop-color="#333"/></linearGradient><linearGradient id="未命名的渐变_68" x1="815.3" y1="1054.6" x2="815.3" y2="1014.91" gradientTransform="translate(-866.42 976.75) rotate(-90)" gradientUnits="userSpaceOnUse"><stop offset="0" stop-color="#404040"/><stop offset="1" stop-color="#5e5e5e"/></linearGradient><linearGradient id="未命名的渐变_68-2" x1="869.23" y1="1054.6" x2="869.23" y2="1014.91" xlink:href="#未命名的渐变_68"/><linearGradient id="未命名的渐变_68-3" x1="824.72" y1="1054.6" x2="824.72" y2="1014.91" xlink:href="#未命名的渐变_68"/><linearGradient id="未命名的渐变_68-4" x1="846.22" y1="1020.17" x2="846.22" y2="1014.91" xlink:href="#未命名的渐变_68"/><linearGradient id="未命名的渐变_68-5" x1="846.22" y1="1028.68" x2="846.22" y2="1023.42" xlink:href="#未命名的渐变_68"/><linearGradient id="未命名的渐变_68-6" x1="846.22" y1="1037.19" x2="846.22" y2="1031.93" xlink:href="#未命名的渐变_68"/><linearGradient id="未命名的渐变_68-7" x1="846.22" y1="1045.7" x2="846.22" y2="1040.44" xlink:href="#未命名的渐变_68"/><linearGradient id="未命名的渐变_68-8" x1="846.22" y1="1054.21" x2="846.22" y2="1048.96" xlink:href="#未命名的渐变_68"/><linearGradient id="未命名的渐变_5" x1="168.5" y1="162" x2="168.5" y2="172" gradientUnits="userSpaceOnUse"><stop offset="0.15" stop-color="gray"/><stop offset="0.32" stop-color="#767676"/><stop offset="0.62" stop-color="#5c5c5c"/><stop offset="0.99" stop-color="#333"/></linearGradient><linearGradient id="未命名的渐变_68-9" x1="254.5" y1="115" x2="254.5" y2="163" gradientTransform="matrix(1, 0, 0, 1, 0, 0)" xlink:href="#未命名的渐变_68"/><linearGradient id="未命名的渐变_68-10" x1="254.5" y1="103" x2="254.5" y2="117" gradientTransform="matrix(1, 0, 0, 1, 0, 0)" xlink:href="#未命名的渐变_68"/><linearGradient id="未命名的渐变_68-11" x1="254.5" y1="158" x2="254.5" y2="172" gradientTransform="matrix(1, 0, 0, 1, 0, 0)" xlink:href="#未命名的渐变_68"/><linearGradient id="未命名的渐变_68-12" x1="168.5" y1="103" x2="168.5" y2="112" gradientTransform="matrix(1, 0, 0, 1, 0, 0)" xlink:href="#未命名的渐变_68"/></defs><title>设备图标汇总</title><rect class="cls-1" x="358" y="187.4" width="38.37" height="122.6"/><path class="cls-2" d="M396.37,224.83l21.53.29,8.26,43.95-30-.26C392.47,268.77,386.08,239.81,396.37,224.83Z"/><polygon class="cls-3" points="426.2 270.47 431 270.69 421.64 223.9 417.28 223.58 426.2 270.47"/><rect class="cls-4" x="220.79" y="404" width="51" height="51"/><rect class="cls-5" x="117.06" y="171" width="258.45" height="155.58"/><rect class="cls-6" x="148" y="85" width="150" height="18"/><polygon class="cls-7" points="299 413 193.58 413 117.06 331.38 375.52 331.38 299 413"/><rect class="cls-8" x="208.79" y="455" width="75" height="9"/><rect class="cls-9" x="117.29" y="326" width="258" height="6"/><path class="cls-10" d="M153.73,166h29.21a5.4,5.4,0,0,0,5.24-5.52v-3.53H148.49v3.53A5.4,5.4,0,0,0,153.73,166Z"/><path class="cls-11" d="M148.49,108.53v3.52h39.69v-3.52a5.41,5.41,0,0,0-5.24-5.53H153.73A5.41,5.41,0,0,0,148.49,108.53Z"/><rect class="cls-12" x="148.49" y="149.01" width="39.69" height="6.03"/><rect class="cls-13" x="148.49" y="113.56" width="5.26" height="33.94"/><rect class="cls-14" x="157" y="113.56" width="5.26" height="33.94"/><rect class="cls-15" x="165.51" y="113.56" width="5.26" height="33.94"/><rect class="cls-16" x="174.02" y="113.56" width="5.26" height="33.94"/><rect class="cls-17" x="182.54" y="113.56" width="5.26" height="33.94"/><rect class="cls-18" x="144" y="162" width="49" height="10"/><rect class="cls-19" x="235" y="115" width="39" height="48"/><rect class="cls-20" x="227" y="103" width="55" height="14"/><rect class="cls-21" x="227" y="158" width="55" height="14"/><rect class="cls-22" x="148" y="103" width="41" height="9"/></svg>