<svg id="图层_1" data-name="图层 1" xmlns="http://www.w3.org/2000/svg" xmlns:xlink="http://www.w3.org/1999/xlink" viewBox="0 0 512 512"><defs><style>.cls-1{fill:url(#未命名的渐变_59);}.cls-2{fill:url(#未命名的渐变_59-2);}.cls-3{fill:url(#未命名的渐变_59-3);}.cls-4{fill:url(#未命名的渐变_59-4);}.cls-5{fill:url(#未命名的渐变_59-5);}.cls-6{fill:url(#未命名的渐变_45);}.cls-7{fill:#b3b3b3;stroke:#666;stroke-miterlimit:10;stroke-width:12px;}.cls-8{fill:#fff;}.cls-9{fill:url(#未命名的渐变_53);}.cls-10{fill:url(#未命名的渐变_43);}</style><linearGradient id="未命名的渐变_59" x1="311.97" y1="134" x2="311.97" y2="221" gradientUnits="userSpaceOnUse"><stop offset="0" stop-color="#a6a6a6"/><stop offset="1" stop-color="#737373"/></linearGradient><linearGradient id="未命名的渐变_59-2" x1="311.5" y1="120" x2="311.5" y2="130" xlink:href="#未命名的渐变_59"/><linearGradient id="未命名的渐变_59-3" x1="311.5" y1="109" x2="311.5" y2="117" xlink:href="#未命名的渐变_59"/><linearGradient id="未命名的渐变_59-4" x1="310.57" y1="63" x2="310.57" y2="75" xlink:href="#未命名的渐变_59"/><linearGradient id="未命名的渐变_59-5" x1="311.5" y1="78" x2="311.5" y2="109" xlink:href="#未命名的渐变_59"/><linearGradient id="未命名的渐变_45" x1="247.48" y1="355" x2="247.48" y2="444" gradientUnits="userSpaceOnUse"><stop offset="0" stop-color="#919191"/><stop offset="0.68" stop-color="#505050"/><stop offset="1" stop-color="#303030"/></linearGradient><linearGradient id="未命名的渐变_53" x1="247.48" y1="226.19" x2="247.48" y2="338.19" gradientUnits="userSpaceOnUse"><stop offset="0" stop-color="#787878"/><stop offset="1" stop-color="#595959"/></linearGradient><radialGradient id="未命名的渐变_43" cx="247.63" cy="282.34" r="27.41" gradientUnits="userSpaceOnUse"><stop offset="0" stop-color="#6b6b6b"/><stop offset="1" stop-color="#3b3b3b"/></radialGradient></defs><title>设备图标汇总</title><rect class="cls-1" x="260.31" y="134" width="103.32" height="87"/><rect class="cls-2" x="251" y="120" width="121" height="10"/><rect class="cls-3" x="251" y="109" width="121" height="8"/><rect class="cls-4" x="264.03" y="63" width="93.08" height="12"/><rect class="cls-5" x="276.13" y="78" width="70.74" height="31"/><polyline class="cls-6" points="352.75 435 352.75 355 142.67 355 142.67 435 126.96 435 126.96 444 142.67 444 150.41 444 182.53 444 182.53 433 312.89 433 312.89 444 344.55 444 352.75 444 367.99 444 367.99 435 352.75 435"/><circle class="cls-7" cx="247.48" cy="282.19" r="131"/><circle class="cls-8" cx="247.48" cy="282.19" r="68.5"/><rect class="cls-8" x="279.03" y="218.63" width="38" height="26" rx="6.06" transform="translate(251.08 -142.9) rotate(45)"/><rect class="cls-8" x="177.92" y="218.63" width="38" height="26" rx="6.06" transform="translate(-106.11 207.09) rotate(-45)"/><rect class="cls-8" x="177.92" y="319.75" width="38" height="26" rx="6.06" transform="translate(100.87 707.27) rotate(-135)"/><rect class="cls-8" x="279.03" y="319.75" width="38" height="26" rx="6.06" transform="translate(744.06 357.29) rotate(135)"/><circle class="cls-9" cx="247.48" cy="282.19" r="56"/><circle class="cls-8" cx="247.48" cy="282.19" r="43.25"/><circle class="cls-10" cx="247.63" cy="282.34" r="27.41"/></svg>