<svg id="图层_1" data-name="图层 1" xmlns="http://www.w3.org/2000/svg" xmlns:xlink="http://www.w3.org/1999/xlink" viewBox="0 0 1836 512"><defs><style>.cls-1{fill:url(#未命名的渐变_52);}.cls-2{fill:url(#未命名的渐变_52-2);}.cls-3{fill:url(#未命名的渐变_53);}.cls-4{fill:#999;}.cls-5{fill:#e6e6e6;}</style><linearGradient id="未命名的渐变_52" x1="80" y1="265" x2="80" y2="310" gradientUnits="userSpaceOnUse"><stop offset="0" stop-color="#737373"/><stop offset="1" stop-color="#4d4d4d"/></linearGradient><linearGradient id="未命名的渐变_52-2" x1="2440" x2="2440" gradientTransform="matrix(-1, 0, 0, 1, 4210, 0)" xlink:href="#未命名的渐变_52"/><linearGradient id="未命名的渐变_53" x1="925" y1="289.15" x2="925" y2="193.9" gradientUnits="userSpaceOnUse"><stop offset="0" stop-color="#787878"/><stop offset="1" stop-color="#595959"/></linearGradient></defs><title>设备图标汇总</title><polygon class="cls-1" points="126 310 34 310 34 265 49.17 265 48.98 293 126 293 126 310"/><polygon class="cls-2" points="1724 310 1816 310 1816 265 1800.83 265 1801.02 293 1724 293 1724 310"/><rect class="cls-3" x="53" y="193.9" width="1744" height="95.25"/><polygon class="cls-4" points="117.12 221.59 1734.05 221.48 1733.93 262.47 117.01 262.58 117.12 221.59"/><path class="cls-5" d="M1732,223.48l-.1,37L119,260.58l.1-37,1612.93-.1m4-4-1620.93.1-.12,45,1620.93-.11.12-45Z"/><rect class="cls-4" x="100.51" y="227.64" width="28.49" height="27.78" transform="translate(-137.18 151.88) rotate(-45)"/><path class="cls-5" d="M115,224.47l16.81,16.81L114.5,258.59,97.69,241.78,115,224.47m0-5.66-23,23,22.47,22.47,23-23L115,218.81Z"/><rect class="cls-4" x="1721.51" y="227.64" width="28.49" height="27.78" transform="translate(337.62 1298.12) rotate(-45)"/><path class="cls-5" d="M1736,224.47l16.81,16.81-17.31,17.31-16.81-16.81L1736,224.47m0-5.66-23,23,22.47,22.47,23-23L1736,218.81Z"/></svg>