<svg id="图层_1" data-name="图层 1" xmlns="http://www.w3.org/2000/svg" xmlns:xlink="http://www.w3.org/1999/xlink" viewBox="0 0 512 512"><defs><style>.cls-1{fill:url(#未命名的渐变_71);}.cls-2{fill:url(#未命名的渐变_71-2);}.cls-3{fill:url(#未命名的渐变_71-3);}.cls-4{fill:#afafaf;}.cls-5{fill:#d9dbdb;}</style><linearGradient id="未命名的渐变_71" x1="62" y1="302" x2="86" y2="302" gradientUnits="userSpaceOnUse"><stop offset="0" stop-color="#b3b3b3"/><stop offset="0.6" stop-color="#828282"/><stop offset="0.99" stop-color="#666"/></linearGradient><linearGradient id="未命名的渐变_71-2" x1="206.61" y1="184.82" x2="333.47" y2="404.55" xlink:href="#未命名的渐变_71"/><linearGradient id="未命名的渐变_71-3" x1="287" y1="342" x2="287" y2="388" xlink:href="#未命名的渐变_71"/></defs><title>设备图标汇总</title><rect class="cls-1" x="62" y="281" width="24" height="42"/><polygon class="cls-2" points="281.39 143.24 256 202 80.22 257.79 81.34 337.5 449.01 337.83 449 235 281.39 143.24"/><path class="cls-3" d="M441.65,368H410.2L406,342H355l-4.2,19H223.2L219,342H168l-4.2,26H132.35a2.35,2.35,0,0,0-2.35,2.35v15.3a2.35,2.35,0,0,0,2.35,2.35h309.3a2.35,2.35,0,0,0,2.35-2.35v-15.3A2.35,2.35,0,0,0,441.65,368Z"/><rect class="cls-4" x="204.24" y="141.07" width="68.55" height="37.86" transform="translate(-4.07 313.76) rotate(-66.22)"/><circle class="cls-5" cx="243.72" cy="147.53" r="8.64"/><circle class="cls-5" cx="232.92" cy="174.16" r="8.64"/></svg>