<svg id="图层_1" data-name="图层 1" xmlns="http://www.w3.org/2000/svg" xmlns:xlink="http://www.w3.org/1999/xlink" viewBox="0 0 1280 512"><defs><style>.cls-1{fill:url(#未命名的渐变_16);}.cls-2{fill:#777;}.cls-3{fill:url(#未命名的渐变_30);}.cls-4{fill:url(#未命名的渐变_67);}</style><linearGradient id="未命名的渐变_16" x1="639.5" y1="231" x2="639.5" y2="295" gradientUnits="userSpaceOnUse"><stop offset="0" stop-color="#ddd"/><stop offset="1" stop-color="#929292"/></linearGradient><linearGradient id="未命名的渐变_30" x1="1161.5" y1="243" x2="1161.5" y2="282" gradientUnits="userSpaceOnUse"><stop offset="0" stop-color="#858585"/><stop offset="1" stop-color="#595959"/></linearGradient><linearGradient id="未命名的渐变_67" x1="119.5" y1="243" x2="119.5" y2="282" gradientUnits="userSpaceOnUse"><stop offset="0" stop-color="#00c717"/><stop offset="1" stop-color="#009139"/></linearGradient></defs><title>设备图标汇总</title><path class="cls-1" d="M108.25,295a32,32,0,0,1,0-64h1062.5a32,32,0,0,1,0,64Z"/><path class="cls-2" d="M1170.75,234a29,29,0,0,1,0,58H108.25a29,29,0,0,1,0-58h1062.5m0-6H108.25a35,35,0,0,0,0,70h1062.5a35,35,0,0,0,0-70Z"/><circle class="cls-3" cx="1161.5" cy="262.5" r="19.5"/><circle class="cls-4" cx="119.5" cy="262.5" r="19.5"/></svg>