<svg id="图层_1" data-name="图层 1" xmlns="http://www.w3.org/2000/svg" xmlns:xlink="http://www.w3.org/1999/xlink" viewBox="0 0 512 512"><defs><style>.cls-1{fill:none;stroke:#b3b3b3;stroke-miterlimit:10;stroke-width:4px;}.cls-2{fill:url(#未命名的渐变_349);}.cls-3{fill:url(#未命名的渐变_349-2);}.cls-4{fill:url(#未命名的渐变_349-3);}.cls-5{fill:url(#未命名的渐变_349-4);}.cls-6{fill:url(#未命名的渐变_349-5);}.cls-7{fill:url(#未命名的渐变_349-6);}.cls-8{fill:url(#未命名的渐变_349-7);}.cls-9{fill:url(#未命名的渐变_349-8);}.cls-10{fill:url(#未命名的渐变_349-9);}.cls-11{fill:url(#未命名的渐变_349-10);}.cls-12{fill:url(#未命名的渐变_349-11);}.cls-13{fill:url(#未命名的渐变_349-12);}.cls-14{fill:url(#未命名的渐变_53);}.cls-15{fill:url(#未命名的渐变_53-2);}.cls-16{fill:url(#未命名的渐变_53-3);}.cls-17{fill:#666;}.cls-18{fill:#fff;}</style><linearGradient id="未命名的渐变_349" x1="161.5" y1="372" x2="161.5" y2="385" gradientUnits="userSpaceOnUse"><stop offset="0" stop-color="#9c9c9c"/><stop offset="1" stop-color="#707070"/></linearGradient><linearGradient id="未命名的渐变_349-2" x1="162" y1="342" x2="162" y2="369" xlink:href="#未命名的渐变_349"/><linearGradient id="未命名的渐变_349-3" x1="199.5" x2="199.5" xlink:href="#未命名的渐变_349"/><linearGradient id="未命名的渐变_349-4" x1="200" y1="342" x2="200" y2="369" xlink:href="#未命名的渐变_349"/><linearGradient id="未命名的渐变_349-5" x1="237.5" x2="237.5" xlink:href="#未命名的渐变_349"/><linearGradient id="未命名的渐变_349-6" x1="238" y1="342" x2="238" y2="369" xlink:href="#未命名的渐变_349"/><linearGradient id="未命名的渐变_349-7" x1="275.5" x2="275.5" xlink:href="#未命名的渐变_349"/><linearGradient id="未命名的渐变_349-8" x1="276" y1="342" x2="276" y2="369" xlink:href="#未命名的渐变_349"/><linearGradient id="未命名的渐变_349-9" x1="313.5" x2="313.5" xlink:href="#未命名的渐变_349"/><linearGradient id="未命名的渐变_349-10" x1="314" y1="342" x2="314" y2="369" xlink:href="#未命名的渐变_349"/><linearGradient id="未命名的渐变_349-11" x1="351.5" x2="351.5" xlink:href="#未命名的渐变_349"/><linearGradient id="未命名的渐变_349-12" x1="352" y1="342" x2="352" y2="369" xlink:href="#未命名的渐变_349"/><linearGradient id="未命名的渐变_53" x1="164" y1="134" x2="164" y2="158" gradientUnits="userSpaceOnUse"><stop offset="0" stop-color="#787878"/><stop offset="1" stop-color="#595959"/></linearGradient><linearGradient id="未命名的渐变_53-2" x1="163.5" y1="158" x2="163.5" y2="198" xlink:href="#未命名的渐变_53"/><linearGradient id="未命名的渐变_53-3" x1="240.5" y1="204" x2="240.5" y2="330" xlink:href="#未命名的渐变_53"/></defs><title>设备图标汇总</title><path class="cls-1" d="M78.3,337H405.7A26.3,26.3,0,0,1,432,363.3V407a0,0,0,0,1,0,0H52a0,0,0,0,1,0,0V363.3A26.3,26.3,0,0,1,78.3,337Z"/><rect class="cls-2" x="156" y="372" width="11" height="13"/><path class="cls-3" d="M162,342a14,14,0,0,0-14,14v10.49a2.52,2.52,0,0,0,2.51,2.51h23a2.52,2.52,0,0,0,2.51-2.51V356A14,14,0,0,0,162,342Z"/><rect class="cls-4" x="194" y="372" width="11" height="13"/><path class="cls-5" d="M200,342a14,14,0,0,0-14,14v10.49a2.52,2.52,0,0,0,2.51,2.51h23a2.52,2.52,0,0,0,2.51-2.51V356A14,14,0,0,0,200,342Z"/><rect class="cls-6" x="232" y="372" width="11" height="13"/><path class="cls-7" d="M238,342a14,14,0,0,0-14,14v10.49a2.52,2.52,0,0,0,2.51,2.51h23a2.52,2.52,0,0,0,2.51-2.51V356A14,14,0,0,0,238,342Z"/><rect class="cls-8" x="270" y="372" width="11" height="13"/><path class="cls-9" d="M276,342a14,14,0,0,0-14,14v10.49a2.52,2.52,0,0,0,2.51,2.51h23a2.52,2.52,0,0,0,2.51-2.51V356A14,14,0,0,0,276,342Z"/><rect class="cls-10" x="308" y="372" width="11" height="13"/><path class="cls-11" d="M314,342a14,14,0,0,0-14,14v10.49a2.52,2.52,0,0,0,2.51,2.51h23a2.52,2.52,0,0,0,2.51-2.51V356A14,14,0,0,0,314,342Z"/><rect class="cls-12" x="346" y="372" width="11" height="13"/><path class="cls-13" d="M352,342a14,14,0,0,0-14,14v10.49a2.52,2.52,0,0,0,2.51,2.51h23a2.52,2.52,0,0,0,2.51-2.51V356A14,14,0,0,0,352,342Z"/><rect class="cls-14" x="35" y="134" width="258" height="24"/><rect class="cls-15" x="57" y="158" width="213" height="40"/><polygon class="cls-16" points="57 259 138 330 424 330 424 204 57 204 57 259"/><path class="cls-17" d="M398.45,144.92A58.5,58.5,0,1,0,474.27,178,58.5,58.5,0,0,0,398.45,144.92ZM437,243.13a47,47,0,1,1,26.58-60.92A47,47,0,0,1,437,243.13Z"/><polygon class="cls-17" points="472.68 204.68 423.39 197.25 405.01 150.4 397.75 153.25 415.96 199.65 384.58 238.99 390.67 243.85 421.75 204.88 471.52 212.39 472.68 204.68"/><rect class="cls-17" x="50" y="383" width="384" height="28"/><rect class="cls-17" x="136" y="330" width="17" height="55"/><rect class="cls-17" x="356" y="330" width="17" height="55"/><path class="cls-17" d="M407,340.66A21.31,21.31,0,1,0,428.28,362,21.31,21.31,0,0,0,407,340.66Zm0,33.82A12.51,12.51,0,1,1,419.48,362,12.51,12.51,0,0,1,407,374.48Z"/><circle class="cls-17" cx="406.97" cy="361.97" r="5.5"/><path class="cls-17" d="M59.72,373.81l.77.33c3.18,1.47,55.06,11.4,56,11.53,8.32,1.21,14.35.1,17.35-6.48s.19-13.45-6.48-17.36c0,0-45.85-29.63-48.14-30.68a23.44,23.44,0,0,0-19.46,42.66ZM124.55,366a8.55,8.55,0,1,1-11.36,4.18A8.56,8.56,0,0,1,124.55,366Z"/><circle class="cls-18" cx="70.75" cy="352.25" r="13"/><circle class="cls-17" cx="68.75" cy="352.25" r="4.5"/><circle class="cls-17" cx="121" cy="374" r="4"/></svg>