<svg id="图层_1" data-name="图层 1" xmlns="http://www.w3.org/2000/svg" xmlns:xlink="http://www.w3.org/1999/xlink" viewBox="0 0 512 512"><defs><style>.cls-1{fill:url(#未命名的渐变_127);}.cls-2{fill:url(#未命名的渐变_56);}.cls-3{fill:url(#未命名的渐变_127-2);}.cls-4{fill:url(#未命名的渐变_53);}.cls-5{fill:none;stroke:#4d4d4d;stroke-linejoin:round;stroke-width:6.69px;}.cls-6{fill:#666;}</style><linearGradient id="未命名的渐变_127" x1="-56.99" y1="133.44" x2="-57.04" y2="202.57" gradientTransform="translate(283.42 218.32) rotate(-8.26)" gradientUnits="userSpaceOnUse"><stop offset="0" stop-color="#858585"/><stop offset="0.46" stop-color="#6b6b6b"/><stop offset="0.99" stop-color="#525252"/></linearGradient><linearGradient id="未命名的渐变_56" x1="383.37" y1="2317.81" x2="383.35" y2="2342.98" gradientTransform="matrix(0, 1, -0.5, 0, 1556.25, -275.02)" gradientUnits="userSpaceOnUse"><stop offset="0" stop-color="#707070"/><stop offset="1" stop-color="#5e5e5e"/></linearGradient><linearGradient id="未命名的渐变_127-2" x1="727.63" y1="296.55" x2="727.54" y2="425.19" gradientTransform="translate(-286.31 -295.58) rotate(8.85)" xlink:href="#未命名的渐变_127"/><linearGradient id="未命名的渐变_53" x1="-49.7" y1="18.06" x2="-49.77" y2="125.86" gradientTransform="matrix(0.99, -0.14, 0.18, 1.21, 279.69, 192.6)" gradientUnits="userSpaceOnUse"><stop offset="0" stop-color="#787878"/><stop offset="1" stop-color="#595959"/></linearGradient></defs><title>设备图标汇总</title><polygon class="cls-1" points="349.74 413.44 128.43 389.01 127.06 375.77 361.63 341.95 368.13 357 349.74 413.44"/><rect class="cls-2" x="380.39" y="27.06" width="12.58" height="162.56" transform="translate(275.8 494.3) rotate(-89.62)"/><polygon class="cls-3" points="416.64 244.22 312.36 227.62 319.03 184.78 299.48 173.91 303.44 148.49 323.8 157.05 326.17 140.51 311.98 120.19 462.65 121.21 449.1 192.72 416.64 244.22"/><polygon class="cls-4" points="450.24 323.08 54.85 380.49 35.96 250.38 335.76 206.85 440.5 256 450.24 323.08"/><circle class="cls-5" cx="380.72" cy="191.1" r="42.87"/><path class="cls-5" d="M317.45,179.57,444,202.62Z"/><path class="cls-5" d="M339.11,240.13l83.22-98.07Z"/><path class="cls-5" d="M402.38,251.65,359.06,130.54Z"/><rect class="cls-6" x="384.46" y="365.27" width="36.01" height="46.57" transform="translate(-98.49 637.56) rotate(-70.42)"/><rect class="cls-6" x="382.97" y="394.86" width="18.72" height="46.66" transform="translate(-133.14 647.71) rotate(-70.42)"/><rect class="cls-6" x="404.45" y="335.6" width="18.72" height="46.66" transform="translate(-63.03 628.55) rotate(-70.42)"/></svg>