<svg id="图层_1" data-name="图层 1" xmlns="http://www.w3.org/2000/svg" viewBox="0 0 100 100"><defs><style>.cls-1{fill:#1a1a1a;}</style></defs><title>设备图标汇总</title><path class="cls-1" d="M80.33,50.3A30.38,30.38,0,0,1,68.7,74.2l-.81-2.09A28.24,28.24,0,0,0,53.4,22.27a3.84,3.84,0,1,1,.21-2.14A30.47,30.47,0,0,1,80.33,50.3ZM56.7,39.5a3.85,3.85,0,1,1,3.76,3.76A3.85,3.85,0,0,1,56.7,39.5Zm-8-12.79,1,0c.39,0,.77,0,1.16,0v6.7l5.24,1.38-2.28,3.59-3.12-.49c0,2.62,0,5,0,7.43a3.54,3.54,0,0,0,.41,1.12,3.63,3.63,0,0,0,1.11-.57c.8-.86,1.51-1.79,2.31-2.74L56.18,45c-.85.82-1.69,1.56-2.44,2.39a1.3,1.3,0,0,0-.28,1.12c.16.38.63.87,1,.88,2.56.07,5.13,0,7.86,0-.18-1-.36-2.08-.55-3.12L65.42,44c.44,1.81.84,3.52,1.28,5.32h6.71c0,.37,0,.73,0,1.09s0,.77,0,1.15H66.6Q64.49,65.13,50.86,67.31v6.8c-.38,0-.78,0-1.17,0s-.74,0-1.1,0V67.29q-13.7-2.07-15.82-15.74H26q0-.55,0-1.14c0-.36,0-.74,0-1.1h6.82c1.41-9.12,6.66-14.39,15.91-15.8ZM50.75,62.8c6.4,0,11.77-6.76,11.22-11.32-2.45,0-4.91,0-7.37,0a1.88,1.88,0,0,0-1,.59c-.77.7-1.5,1.43-2.21,2.2a1.88,1.88,0,0,0-.59,1C50.72,57.78,50.74,60.24,50.75,62.8Zm-2.15,0V55.07c-1.11-1.21-1.94-2.15-2.81-3a1.58,1.58,0,0,0-.92-.51c-2.51,0-5,0-7.53,0C37,56.43,42.64,63,48.6,62.76ZM37.29,49.33H45c1.22-1.1,2.21-2,3.16-2.85a1.29,1.29,0,0,0,.45-.77c0-2.58,0-5.14,0-7.7C42.88,38,37.1,43.83,37.29,49.33Zm-15.81,1a28.31,28.31,0,0,0,24.77,28,3.83,3.83,0,1,1-.19,2.15,30.37,30.37,0,0,1-16.41-53l.83,2.14A28.21,28.21,0,0,0,21.48,50.31Z"/></svg>